PustakaBali.ufo
<glyph name="question" format="2">
  <advance width="532"/>
  <unicode hex="003F"/>
  <outline>
    <contour>
      <point x="186.48" y="222.48" type="line"/>
      <point x="186.48" y="252.18" type="line" smooth="yes"/>
      <point x="186.48" y="316.44"/>
      <point x="227.52" y="396.9"/>
      <point x="279.36" y="440.1" type="qcurve" smooth="yes"/>
      <point x="338.22" y="489.78"/>
      <point x="374.94" y="532.98"/>
      <point x="390.06" y="576.18"/>
      <point x="390.06" y="604.8" type="qcurve" smooth="yes"/>
      <point x="390.06" y="658.26"/>
      <point x="320.94" y="715.5"/>
      <point x="256.14" y="715.5" type="qcurve" smooth="yes"/>
      <point x="212.94" y="715.5"/>
      <point x="130.32" y="693.9"/>
      <point x="79.0195" y="669.06" type="qcurve"/>
      <point x="45" y="746.28" type="line"/>
      <point x="147.6" y="800.82"/>
      <point x="262.62" y="800.82" type="qcurve" smooth="yes"/>
      <point x="365.22" y="800.82"/>
      <point x="482.94" y="698.76"/>
      <point x="482.94" y="606.96" type="qcurve" smooth="yes"/>
      <point x="482.94" y="567"/>
      <point x="461.34" y="505.44"/>
      <point x="417.6" y="450.36"/>
      <point x="352.26" y="395.82" type="qcurve" smooth="yes"/>
      <point x="298.8" y="349.92"/>
      <point x="263.7" y="289.98"/>
      <point x="263.7" y="240.84" type="qcurve" smooth="yes"/>
      <point x="263.7" y="222.48" type="line"/>
    </contour>
    <contour>
      <point x="161.1" y="59.9404" type="qcurve" smooth="yes"/>
      <point x="161.1" y="133.92"/>
      <point x="229.68" y="133.92" type="qcurve" smooth="yes"/>
      <point x="261" y="133.92"/>
      <point x="297.18" y="96.6602"/>
      <point x="297.18" y="59.9404" type="qcurve" smooth="yes"/>
      <point x="297.18" y="23.7598"/>
      <point x="260.46" y="-15.6602"/>
      <point x="229.68" y="-15.6602" type="qcurve" smooth="yes"/>
      <point x="199.44" y="-15.6602"/>
      <point x="161.1" y="19.9805"/>
    </contour>
  </outline>
</glyph>
<glyph name="uni1B00" format="2">
  <advance width="0"/>
  <unicode hex="1B00"/>
  <anchor x="-366" y="505" name="_Anchor-2"/>
  <outline>
    <contour>
      <point x="-221" y="501" type="qcurve"/>
      <point x="-253" y="525" type="line"/>
      <point x="-217" y="596"/>
      <point x="-217" y="663" type="qcurve" smooth="yes"/>
      <point x="-217" y="676" type="line"/>
      <point x="-227" y="828"/>
      <point x="-367" y="828" type="qcurve" smooth="yes"/>
      <point x="-377" y="828" type="line" smooth="yes"/>
      <point x="-518" y="828"/>
      <point x="-526" y="676" type="qcurve" smooth="yes"/>
      <point x="-527" y="660" type="line"/>
      <point x="-527" y="595"/>
      <point x="-491" y="525" type="qcurve"/>
      <point x="-523" y="501" type="line"/>
      <point x="-601" y="596"/>
      <point x="-601" y="688" type="qcurve" smooth="yes"/>
      <point x="-601" y="699" type="line"/>
      <point x="-597" y="797"/>
      <point x="-480" y="911"/>
      <point x="-377" y="911" type="qcurve" smooth="yes"/>
      <point x="-367" y="911" type="line" smooth="yes"/>
      <point x="-264" y="911"/>
      <point x="-147" y="797"/>
      <point x="-142" y="699" type="qcurve"/>
      <point x="-142" y="690" type="line" smooth="yes"/>
      <point x="-142" y="597"/>
    </contour>
    <contour>
      <point x="-317" y="548" type="qcurve"/>
      <point x="-342" y="572" type="line"/>
      <point x="-320" y="597"/>
      <point x="-320" y="630" type="qcurve" smooth="yes"/>
      <point x="-322" y="689"/>
      <point x="-372" y="689" type="qcurve" smooth="yes"/>
      <point x="-423" y="689"/>
      <point x="-425" y="630" type="qcurve" smooth="yes"/>
      <point x="-425" y="597"/>
      <point x="-403" y="572" type="qcurve"/>
      <point x="-428" y="548" type="line"/>
      <point x="-481" y="591"/>
      <point x="-481" y="651" type="qcurve" smooth="yes"/>
      <point x="-481" y="697"/>
      <point x="-423" y="753"/>
      <point x="-372" y="753" type="qcurve" smooth="yes"/>
      <point x="-322" y="753"/>
      <point x="-264" y="697"/>
      <point x="-264" y="651" type="qcurve" smooth="yes"/>
      <point x="-264" y="591"/>
    </contour>
  </outline>
</glyph>
<glyph name="uni1B01" format="2">
  <advance width="0"/>
  <unicode hex="1B01"/>
  <anchor x="-274" y="494" name="_Anchor-2"/>
  <outline>
    <contour>
      <point x="-307" y="675" type="qcurve"/>
      <point x="-296" y="926" type="line"/>
      <point x="-261" y="926" type="line"/>
      <point x="-249" y="675" type="line"/>
      <point x="-229" y="667"/>
      <point x="-213" y="650" type="qcurve" smooth="yes"/>
      <point x="-191" y="626"/>
      <point x="-187" y="578" type="qcurve"/>
      <point x="-179" y="581"/>
      <point x="-172" y="586" type="qcurve" smooth="yes"/>
      <point x="-126" y="612"/>
      <point x="-101" y="663" type="qcurve"/>
      <point x="-76" y="650" type="line"/>
      <point x="-112" y="499"/>
      <point x="-271" y="495" type="qcurve"/>
      <point x="-294" y="495" type="line"/>
      <point x="-453" y="499"/>
      <point x="-489" y="650" type="qcurve"/>
      <point x="-464" y="663" type="line"/>
      <point x="-439" y="612"/>
      <point x="-393" y="586" type="qcurve" smooth="yes"/>
      <point x="-383" y="579"/>
      <point x="-370" y="574" type="qcurve"/>
      <point x="-367" y="625"/>
      <point x="-344" y="650" type="qcurve" smooth="yes"/>
      <point x="-327" y="668"/>
    </contour>
    <contour>
      <point x="-236" y="563" type="qcurve"/>
      <point x="-238" y="594"/>
      <point x="-245" y="611" type="qcurve" smooth="yes"/>
      <point x="-256" y="630"/>
      <point x="-279" y="630" type="qcurve" smooth="yes"/>
      <point x="-301" y="630"/>
      <point x="-311" y="611" type="qcurve" smooth="yes"/>
      <point x="-320" y="594"/>
      <point x="-321" y="562" type="qcurve"/>
      <point x="-303" y="560"/>
      <point x="-283" y="560" type="qcurve" smooth="yes"/>
      <point x="-257" y="560"/>
    </contour>
  </outline>
</glyph>
<glyph name="uni1B02" format="2">
  <advance width="0"/>
  <unicode hex="1B02"/>
  <anchor x="-225" y="502" name="_Anchor-2"/>
  <outline>
    <contour>
      <point x="-165" y="503" type="line"/>
      <point x="-207" y="643"/>
      <point x="-301" y="724" type="qcurve"/>
      <point x="-252" y="783" type="line"/>
      <point x="-140" y="711"/>
      <point x="-140" y="522" type="qcurve" smooth="yes"/>
      <point x="-140" y="508" type="line"/>
    </contour>
  </outline>
</glyph>
<glyph name="uni1B03" format="2">
  <advance width="0"/>
  <unicode hex="1B03"/>
  <anchor x="-370" y="495" name="_Anchor-2"/>
  <outline>
    <contour>
      <point x="-335" y="497" type="qcurve" smooth="yes"/>
      <point x="-379" y="497"/>
      <point x="-419" y="510" type="qcurve" smooth="yes"/>
      <point x="-525" y="545"/>
      <point x="-525" y="657" type="qcurve" smooth="yes"/>
      <point x="-525" y="716"/>
      <point x="-499" y="778" type="qcurve"/>
      <point x="-462" y="767" type="line"/>
      <point x="-471" y="720"/>
      <point x="-471" y="691" type="qcurve" smooth="yes"/>
      <point x="-471" y="556"/>
      <point x="-277" y="556" type="qcurve" smooth="yes"/>
      <point x="-241" y="556"/>
      <point x="-202" y="562" type="qcurve"/>
      <point x="-191" y="529" type="line"/>
      <point x="-268" y="497"/>
    </contour>
  </outline>
</glyph>
<glyph name="uni1B04" format="2">
  <advance width="321"/>
  <unicode hex="1B04"/>
  <outline>
    <contour>
      <point x="224" y="-893" type="line"/>
      <point x="85" y="-784"/>
      <point x="85" y="-496" type="qcurve"/>
      <point x="89" y="-328"/>
      <point x="166" y="-145" type="qcurve"/>
      <point x="199" y="-39"/>
      <point x="200" y="-20" type="qcurve" smooth="yes"/>
      <point x="200" y="86"/>
      <point x="53" y="159" type="qcurve"/>
      <point x="55" y="213" type="line"/>
      <point x="204" y="218"/>
      <point x="209" y="301" type="qcurve" smooth="yes"/>
      <point x="209" y="357"/>
      <point x="150" y="357" type="qcurve" smooth="yes"/>
      <point x="92" y="357"/>
      <point x="70" y="275" type="qcurve"/>
      <point x="30" y="285" type="line"/>
      <point x="43" y="418"/>
      <point x="163" y="422" type="qcurve" smooth="yes"/>
      <point x="221" y="420"/>
      <point x="287" y="359"/>
      <point x="287" y="309" type="qcurve" smooth="yes"/>
      <point x="287" y="205"/>
      <point x="158" y="176" type="qcurve"/>
      <point x="284" y="96"/>
      <point x="284" y="3" type="qcurve" smooth="yes"/>
      <point x="284" y="-55"/>
      <point x="250" y="-148" type="qcurve" smooth="yes"/>
      <point x="166" y="-355"/>
      <point x="166" y="-546" type="qcurve" smooth="yes"/>
      <point x="166" y="-770"/>
      <point x="253" y="-858" type="qcurve"/>
    </contour>
  </outline>
</glyph>
<glyph name="uni1B09" format="2">
  <advance width="641"/>
  <unicode hex="1B09"/>
  <anchor x="371" y="490" name="Anchor-2"/>
  <outline>
    <contour>
      <point x="624" y="-882" type="line"/>
      <point x="598" y="-658"/>
      <point x="472" y="-658" type="qcurve" smooth="yes"/>
      <point x="394" y="-658"/>
      <point x="273" y="-766" type="qcurve" smooth="yes"/>
      <point x="217" y="-816" type="line"/>
      <point x="141" y="-875"/>
      <point x="63" y="-875" type="qcurve" smooth="yes"/>
      <point x="1" y="-875"/>
      <point x="-84" y="-791"/>
      <point x="-84" y="-715" type="qcurve" smooth="yes"/>
      <point x="-84" y="-669"/>
      <point x="-63" y="-622" type="qcurve" smooth="yes"/>
      <point x="-25" y="-533"/>
      <point x="354" y="-65"/>
      <point x="491" y="131"/>
      <point x="491" y="216" type="qcurve" smooth="yes"/>
      <point x="491" y="348"/>
      <point x="371" y="348" type="qcurve" smooth="yes"/>
      <point x="316" y="348"/>
      <point x="252" y="255"/>
      <point x="252" y="163" type="qcurve" smooth="yes"/>
      <point x="252" y="134"/>
      <point x="255" y="101" type="qcurve"/>
      <point x="225" y="84" type="line"/>
      <point x="36" y="341" type="line"/>
      <point x="90" y="382" type="line"/>
      <point x="192" y="236" type="line"/>
      <point x="196" y="316"/>
      <point x="300" y="420"/>
      <point x="386" y="420" type="qcurve" smooth="yes"/>
      <point x="570" y="413"/>
      <point x="570" y="208" type="qcurve" smooth="yes"/>
      <point x="570" y="145"/>
      <point x="496" y="-22"/>
      <point x="69" y="-554"/>
      <point x="0" y="-674"/>
      <point x="0" y="-711" type="qcurve" smooth="yes"/>
      <point x="0" y="-788"/>
      <point x="76" y="-788" type="qcurve" smooth="yes"/>
      <point x="124" y="-788"/>
      <point x="361" y="-580"/>
      <point x="456" y="-580" type="qcurve" smooth="yes"/>
      <point x="657" y="-580"/>
      <point x="657" y="-856" type="qcurve"/>
      <point x="656" y="-878" type="line"/>
    </contour>
  </outline>
</glyph>
<glyph name="uni1B10" format="2">
  <advance width="997"/>
  <unicode hex="1B10"/>
  <anchor x="406" y="490" name="Anchor-2"/>
  <outline>
    <contour>
      <point x="796" y="0" type="line"/>
      <point x="717" y="0" type="line"/>
      <point x="717" y="265" type="line" smooth="yes"/>
      <point x="717" y="346"/>
      <point x="646" y="346" type="qcurve" smooth="yes"/>
      <point x="583" y="346"/>
      <point x="564" y="267" type="qcurve"/>
      <point x="509" y="267" type="line"/>
      <point x="487" y="354"/>
      <point x="428" y="354" type="qcurve" smooth="yes"/>
      <point x="360" y="354"/>
      <point x="360" y="248" type="qcurve" smooth="yes"/>
      <point x="360" y="121"/>
      <point x="450" y="49" type="qcurve"/>
      <point x="445" y="0" type="line"/>
      <point x="243" y="0" type="line" smooth="yes"/>
      <point x="152" y="0"/>
      <point x="123" y="67" type="qcurve" smooth="yes"/>
      <point x="115" y="89"/>
      <point x="115" y="111" type="qcurve" smooth="yes"/>
      <point x="115" y="146"/>
      <point x="133" y="182" type="qcurve" smooth="yes"/>
      <point x="177" y="274" type="line" smooth="yes"/>
      <point x="186" y="295"/>
      <point x="186" y="312" type="qcurve" smooth="yes"/>
      <point x="186" y="329"/>
      <point x="164" y="354"/>
      <point x="147" y="354" type="qcurve" smooth="yes"/>
      <point x="136" y="353" type="line"/>
      <point x="88" y="342"/>
      <point x="88" y="251" type="qcurve" smooth="yes"/>
      <point x="88" y="231" type="line"/>
      <point x="45" y="228" type="line"/>
      <point x="30" y="270"/>
      <point x="30" y="303" type="qcurve" smooth="yes"/>
      <point x="30" y="353"/>
      <point x="91" y="419"/>
      <point x="149" y="419" type="qcurve" smooth="yes"/>
      <point x="202" y="419"/>
      <point x="261" y="357"/>
      <point x="261" y="310" type="qcurve" smooth="yes"/>
      <point x="261" y="275"/>
      <point x="243" y="233" type="qcurve"/>
      <point x="197" y="149"/>
      <point x="197" y="110" type="qcurve" smooth="yes"/>
      <point x="197" y="65"/>
      <point x="244" y="65" type="qcurve" smooth="yes"/>
      <point x="354" y="65" type="line"/>
      <point x="283" y="128"/>
      <point x="283" y="245" type="qcurve" smooth="yes"/>
      <point x="283" y="325"/>
      <point x="358" y="419"/>
      <point x="428" y="419" type="qcurve" smooth="yes"/>
      <point x="515" y="417"/>
      <point x="539" y="359" type="qcurve"/>
      <point x="577" y="413"/>
      <point x="652" y="413" type="qcurve" smooth="yes"/>
      <point x="796" y="413"/>
      <point x="796" y="261" type="qcurve" smooth="yes"/>
    </contour>
    <contour>
      <point x="707" y="-879" type="qcurve" smooth="yes"/>
      <point x="396" y="-879" type="line" smooth="yes"/>
      <point x="211" y="-879"/>
      <point x="134" y="-784" type="qcurve" smooth="yes"/>
      <point x="80" y="-719"/>
      <point x="80" y="-634" type="qcurve" smooth="yes"/>
      <point x="80" y="-596"/>
      <point x="91" y="-553" type="qcurve" smooth="yes"/>
      <point x="126" y="-416"/>
      <point x="528" y="-263"/>
      <point x="717" y="-131"/>
      <point x="717" y="-16" type="qcurve" smooth="yes"/>
      <point x="717" y="15" type="line"/>
      <point x="796" y="15" type="line"/>
      <point x="796" y="-6" type="line"/>
      <point x="791" y="-181"/>
      <point x="566" y="-326"/>
      <point x="225" y="-452"/>
      <point x="188" y="-550" type="qcurve" smooth="yes"/>
      <point x="172" y="-593"/>
      <point x="172" y="-631" type="qcurve" smooth="yes"/>
      <point x="172" y="-682"/>
      <point x="200" y="-725" type="qcurve" smooth="yes"/>
      <point x="249" y="-800"/>
      <point x="404" y="-801" type="qcurve" smooth="yes"/>
      <point x="700" y="-801" type="line" smooth="yes"/>
      <point x="872" y="-801"/>
      <point x="872" y="-614" type="qcurve" smooth="yes"/>
      <point x="872" y="316" type="line" smooth="yes"/>
      <point x="871" y="415"/>
      <point x="823" y="522"/>
      <point x="787" y="524" type="qcurve" smooth="yes"/>
      <point x="784" y="524" type="line" smooth="yes"/>
      <point x="762" y="524"/>
      <point x="762" y="502" type="qcurve" smooth="yes"/>
      <point x="762" y="463"/>
      <point x="912" y="464"/>
      <point x="1012" y="595" type="qcurve"/>
      <point x="1054" y="565" type="line"/>
      <point x="956" y="414"/>
      <point x="785" y="390"/>
      <point x="689" y="455"/>
      <point x="689" y="513" type="qcurve" smooth="yes"/>
      <point x="689" y="550"/>
      <point x="738" y="597"/>
      <point x="782" y="597" type="qcurve" smooth="yes"/>
      <point x="796" y="597"/>
      <point x="812" y="593" type="qcurve" smooth="yes"/>
      <point x="947" y="564"/>
      <point x="947" y="287" type="qcurve" smooth="yes"/>
      <point x="947" y="263" type="line"/>
      <point x="947" y="-611" type="line"/>
      <point x="942" y="-879"/>
    </contour>
  </outline>
</glyph>
<glyph name="uni1B13" format="2">
  <advance width="937"/>
  <unicode hex="1B13"/>
  <anchor x="508" y="0" name="Anchor-4"/>
  <anchor x="476" y="490" name="Anchor-2"/>
  <outline>
    <contour>
      <point x="447" y="54" type="qcurve" smooth="yes"/>
      <point x="457" y="54"/>
      <point x="470" y="73"/>
      <point x="470" y="88" type="qcurve" smooth="yes"/>
      <point x="470" y="105"/>
      <point x="444" y="136"/>
      <point x="417" y="139" type="qcurve"/>
      <point x="417" y="100" type="line" smooth="yes"/>
      <point x="418" y="54"/>
    </contour>
    <contour>
      <point x="446" y="-1" type="qcurve" smooth="yes"/>
      <point x="431" y="-1"/>
      <point x="415" y="2" type="qcurve" smooth="yes"/>
      <point x="349" y="21"/>
      <point x="342" y="104" type="qcurve"/>
      <point x="342" y="141" type="line"/>
      <point x="288" y="141" type="line"/>
      <point x="288" y="194" type="line"/>
      <point x="342" y="194" type="line"/>
      <point x="342" y="234" type="line" smooth="yes"/>
      <point x="343" y="415"/>
      <point x="498" y="417" type="qcurve" smooth="yes"/>
      <point x="548" y="417" type="line" smooth="yes"/>
      <point x="638" y="416"/>
      <point x="676" y="359" type="qcurve"/>
      <point x="684" y="370" type="line" smooth="yes"/>
      <point x="718" y="415"/>
      <point x="774" y="415" type="qcurve" smooth="yes"/>
      <point x="885" y="415"/>
      <point x="887" y="288" type="qcurve" smooth="yes"/>
      <point x="887" y="0" type="line"/>
      <point x="808" y="0" type="line"/>
      <point x="808" y="293" type="line" smooth="yes"/>
      <point x="808" y="354"/>
      <point x="768" y="354" type="qcurve" smooth="yes"/>
      <point x="766" y="354" type="line" smooth="yes"/>
      <point x="723" y="352"/>
      <point x="704" y="304" type="qcurve"/>
      <point x="704" y="0" type="line"/>
      <point x="624" y="0" type="line"/>
      <point x="624" y="240" type="line" smooth="yes"/>
      <point x="621" y="350"/>
      <point x="540" y="353" type="qcurve" smooth="yes"/>
      <point x="501" y="353" type="line" smooth="yes"/>
      <point x="420" y="350"/>
      <point x="417" y="259" type="qcurve" smooth="yes"/>
      <point x="417" y="194" type="line"/>
      <point x="454" y="193"/>
      <point x="530" y="146"/>
      <point x="536" y="98" type="qcurve" smooth="yes"/>
      <point x="537" y="83" type="line" smooth="yes"/>
      <point x="537" y="47"/>
      <point x="488" y="-1"/>
    </contour>
    <contour>
      <point x="184" y="54" type="qcurve" smooth="yes"/>
      <point x="212" y="54"/>
      <point x="213" y="100" type="qcurve" smooth="yes"/>
      <point x="213" y="139" type="line"/>
      <point x="184" y="136"/>
      <point x="160" y="104"/>
      <point x="160" y="87" type="qcurve" smooth="yes"/>
      <point x="160" y="54"/>
    </contour>
    <contour>
      <point x="147" y="175" type="qcurve"/>
      <point x="172" y="190"/>
      <point x="213" y="194" type="qcurve"/>
      <point x="213" y="294" type="line" smooth="yes"/>
      <point x="213" y="350"/>
      <point x="163" y="350" type="qcurve" smooth="yes"/>
      <point x="137" y="350"/>
      <point x="102" y="308"/>
      <point x="102" y="266" type="qcurve" smooth="yes"/>
      <point x="106" y="209"/>
    </contour>
    <contour>
      <point x="184" y="-1" type="qcurve" smooth="yes"/>
      <point x="145" y="-1"/>
      <point x="93" y="43"/>
      <point x="93" y="82" type="qcurve" smooth="yes"/>
      <point x="94" y="98" type="line" smooth="yes"/>
      <point x="98" y="130"/>
      <point x="116" y="151" type="qcurve"/>
      <point x="72" y="172"/>
      <point x="30" y="248"/>
      <point x="30" y="290" type="qcurve" smooth="yes"/>
      <point x="30" y="326"/>
      <point x="49" y="360" type="qcurve" smooth="yes"/>
      <point x="80" y="419"/>
      <point x="164" y="419" type="qcurve" smooth="yes"/>
      <point x="286" y="419"/>
      <point x="288" y="293" type="qcurve" smooth="yes"/>
      <point x="288" y="104" type="line"/>
      <point x="280" y="21"/>
      <point x="215" y="2" type="qcurve" smooth="yes"/>
      <point x="198" y="-1"/>
    </contour>
  </outline>
</glyph>
<glyph name="uni1B14" format="2">
  <advance width="1096"/>
  <unicode hex="1B14"/>
  <anchor x="599" y="0" name="Anchor-4"/>
  <anchor x="380" y="490" name="Anchor-2"/>
  <outline>
    <contour>
      <point x="447" y="54" type="qcurve" smooth="yes"/>
      <point x="457" y="54"/>
      <point x="470" y="73"/>
      <point x="470" y="88" type="qcurve" smooth="yes"/>
      <point x="470" y="105"/>
      <point x="444" y="136"/>
      <point x="417" y="139" type="qcurve"/>
      <point x="417" y="100" type="line" smooth="yes"/>
      <point x="418" y="54"/>
    </contour>
    <contour>
      <point x="789" y="-3" type="qcurve" smooth="yes"/>
      <point x="715" y="-3"/>
      <point x="649" y="78"/>
      <point x="649" y="142" type="qcurve" smooth="yes"/>
      <point x="649" y="240" type="line"/>
      <point x="645" y="350"/>
      <point x="555" y="353" type="qcurve" smooth="yes"/>
      <point x="515" y="353" type="line" smooth="yes"/>
      <point x="420" y="350"/>
      <point x="417" y="259" type="qcurve" smooth="yes"/>
      <point x="417" y="194" type="line"/>
      <point x="454" y="193"/>
      <point x="530" y="146"/>
      <point x="536" y="98" type="qcurve" smooth="yes"/>
      <point x="537" y="83" type="line" smooth="yes"/>
      <point x="537" y="47"/>
      <point x="488" y="-1"/>
      <point x="446" y="-1" type="qcurve" smooth="yes"/>
      <point x="351" y="-1"/>
      <point x="342" y="104" type="qcurve"/>
      <point x="342" y="141" type="line"/>
      <point x="288" y="141" type="line"/>
      <point x="288" y="194" type="line"/>
      <point x="342" y="194" type="line"/>
      <point x="342" y="234" type="line" smooth="yes"/>
      <point x="343" y="415"/>
      <point x="513" y="417" type="qcurve" smooth="yes"/>
      <point x="557" y="417" type="line" smooth="yes"/>
      <point x="727" y="415"/>
      <point x="728" y="234" type="qcurve" smooth="yes"/>
      <point x="728" y="157" type="line" smooth="yes"/>
      <point x="728" y="65"/>
      <point x="799" y="65" type="qcurve" smooth="yes"/>
      <point x="892" y="70"/>
      <point x="1062" y="188" type="qcurve"/>
      <point x="1089" y="145" type="line"/>
      <point x="906" y="-2"/>
    </contour>
    <contour>
      <point x="184" y="54" type="qcurve" smooth="yes"/>
      <point x="212" y="54"/>
      <point x="213" y="100" type="qcurve" smooth="yes"/>
      <point x="213" y="139" type="line"/>
      <point x="184" y="136"/>
      <point x="160" y="104"/>
      <point x="160" y="87" type="qcurve" smooth="yes"/>
      <point x="160" y="54"/>
    </contour>
    <contour>
      <point x="147" y="175" type="qcurve"/>
      <point x="172" y="190"/>
      <point x="213" y="194" type="qcurve"/>
      <point x="213" y="294" type="line" smooth="yes"/>
      <point x="213" y="350"/>
      <point x="163" y="350" type="qcurve" smooth="yes"/>
      <point x="137" y="350"/>
      <point x="102" y="308"/>
      <point x="102" y="266" type="qcurve" smooth="yes"/>
      <point x="106" y="209"/>
    </contour>
    <contour>
      <point x="184" y="-1" type="qcurve" smooth="yes"/>
      <point x="145" y="-1"/>
      <point x="93" y="43"/>
      <point x="93" y="82" type="qcurve" smooth="yes"/>
      <point x="94" y="98" type="line" smooth="yes"/>
      <point x="98" y="130"/>
      <point x="116" y="151" type="qcurve"/>
      <point x="72" y="172"/>
      <point x="30" y="248"/>
      <point x="30" y="290" type="qcurve" smooth="yes"/>
      <point x="30" y="326"/>
      <point x="49" y="360" type="qcurve" smooth="yes"/>
      <point x="80" y="419"/>
      <point x="164" y="419" type="qcurve" smooth="yes"/>
      <point x="286" y="419"/>
      <point x="288" y="293" type="qcurve" smooth="yes"/>
      <point x="288" y="104" type="line"/>
      <point x="280" y="21"/>
      <point x="215" y="2" type="qcurve" smooth="yes"/>
      <point x="198" y="-1"/>
    </contour>
  </outline>
</glyph>
<glyph name="uni1B16" format="2">
  <advance width="1056"/>
  <unicode hex="1B16"/>
  <anchor x="588" y="0" name="Anchor-4"/>
  <anchor x="539" y="490" name="Anchor-2"/>
  <outline>
    <contour>
      <point x="616" y="52" type="qcurve"/>
      <point x="585" y="3"/>
      <point x="516" y="-2" type="qcurve"/>
      <point x="401" y="-2"/>
      <point x="398" y="121" type="qcurve" smooth="yes"/>
      <point x="398" y="302" type="line" smooth="yes"/>
      <point x="397" y="350"/>
      <point x="358" y="353" type="qcurve" smooth="yes"/>
      <point x="349" y="354" type="line" smooth="yes"/>
      <point x="324" y="354"/>
      <point x="293" y="321"/>
      <point x="293" y="301" type="qcurve" smooth="yes"/>
      <point x="293" y="0" type="line"/>
      <point x="213" y="0" type="line"/>
      <point x="213" y="294" type="line" smooth="yes"/>
      <point x="210" y="350"/>
      <point x="162" y="350" type="qcurve" smooth="yes"/>
      <point x="102" y="350"/>
      <point x="102" y="267" type="qcurve"/>
      <point x="106" y="209"/>
      <point x="138" y="179" type="qcurve"/>
      <point x="116" y="152" type="line"/>
      <point x="72" y="173"/>
      <point x="30" y="249"/>
      <point x="30" y="290" type="qcurve" smooth="yes"/>
      <point x="30" y="327"/>
      <point x="49" y="361" type="qcurve" smooth="yes"/>
      <point x="80" y="419"/>
      <point x="164" y="419" type="qcurve" smooth="yes"/>
      <point x="231" y="419"/>
      <point x="263" y="384" type="qcurve"/>
      <point x="303" y="416"/>
      <point x="356" y="416" type="qcurve" smooth="yes"/>
      <point x="476" y="416"/>
      <point x="478" y="303" type="qcurve" smooth="yes"/>
      <point x="478" y="116" type="line" smooth="yes"/>
      <point x="478" y="65"/>
      <point x="520" y="65" type="qcurve" smooth="yes"/>
      <point x="570" y="65"/>
      <point x="592" y="145" type="qcurve"/>
      <point x="646" y="145" type="line"/>
      <point x="670" y="65"/>
      <point x="723" y="65" type="qcurve" smooth="yes"/>
      <point x="795" y="69"/>
      <point x="797" y="161" type="qcurve" smooth="yes"/>
      <point x="795" y="334"/>
      <point x="676" y="373" type="qcurve"/>
      <point x="682" y="417" type="line"/>
      <point x="859" y="417" type="line" smooth="yes"/>
      <point x="1004" y="415"/>
      <point x="1006" y="269" type="qcurve" smooth="yes"/>
      <point x="1006" y="0" type="line"/>
      <point x="927" y="0" type="line"/>
      <point x="927" y="274" type="line" smooth="yes"/>
      <point x="924" y="350"/>
      <point x="857" y="353" type="qcurve" smooth="yes"/>
      <point x="807" y="353" type="line"/>
      <point x="864" y="292"/>
      <point x="869" y="189" type="qcurve"/>
      <point x="869" y="167" type="line" smooth="yes"/>
      <point x="869" y="83"/>
      <point x="798" y="3"/>
      <point x="731" y="0" type="qcurve" smooth="yes"/>
      <point x="647" y="0"/>
    </contour>
  </outline>
</glyph>
<glyph name="uni1B18" format="2">
  <advance width="755"/>
  <unicode hex="1B18"/>
  <anchor x="427" y="0" name="Anchor-4"/>
  <anchor x="347" y="490" name="Anchor-2"/>
  <outline>
    <contour>
      <point x="182" y="51" type="qcurve"/>
      <point x="186" y="52" type="line" smooth="yes"/>
      <point x="213" y="55"/>
      <point x="213" y="104" type="qcurve"/>
      <point x="192" y="104"/>
      <point x="165" y="83"/>
      <point x="165" y="69" type="qcurve" smooth="yes"/>
      <point x="165" y="51"/>
    </contour>
    <contour>
      <point x="375" y="373" type="qcurve"/>
      <point x="381" y="417" type="line"/>
      <point x="558" y="417" type="line" smooth="yes"/>
      <point x="703" y="415"/>
      <point x="705" y="269" type="qcurve" smooth="yes"/>
      <point x="705" y="0" type="line"/>
      <point x="626" y="0" type="line"/>
      <point x="626" y="274" type="line" smooth="yes"/>
      <point x="623" y="350"/>
      <point x="556" y="353" type="qcurve" smooth="yes"/>
      <point x="506" y="353" type="line"/>
      <point x="563" y="292"/>
      <point x="564" y="181" type="qcurve" smooth="yes"/>
      <point x="560" y="2"/>
      <point x="422" y="-1" type="qcurve" smooth="yes"/>
      <point x="347" y="0"/>
      <point x="280" y="65" type="qcurve"/>
      <point x="259" y="2"/>
      <point x="194" y="-4" type="qcurve"/>
      <point x="181" y="-4" type="line" smooth="yes"/>
      <point x="148" y="-4"/>
      <point x="107" y="33"/>
      <point x="106" y="67" type="qcurve" smooth="yes"/>
      <point x="106" y="106"/>
      <point x="162" y="160"/>
      <point x="213" y="161" type="qcurve"/>
      <point x="213" y="294" type="line" smooth="yes"/>
      <point x="210" y="350"/>
      <point x="162" y="350" type="qcurve" smooth="yes"/>
      <point x="102" y="350"/>
      <point x="102" y="267" type="qcurve"/>
      <point x="106" y="209"/>
      <point x="138" y="179" type="qcurve"/>
      <point x="116" y="152" type="line"/>
      <point x="72" y="173"/>
      <point x="30" y="249"/>
      <point x="30" y="290" type="qcurve" smooth="yes"/>
      <point x="30" y="327"/>
      <point x="49" y="361" type="qcurve" smooth="yes"/>
      <point x="80" y="419"/>
      <point x="164" y="419" type="qcurve" smooth="yes"/>
      <point x="291" y="419"/>
      <point x="293" y="294" type="qcurve" smooth="yes"/>
      <point x="293" y="133" type="line"/>
      <point x="367" y="66"/>
      <point x="414" y="66" type="qcurve" smooth="yes"/>
      <point x="419" y="66" type="line"/>
      <point x="485" y="70"/>
      <point x="489" y="188" type="qcurve"/>
      <point x="485" y="337"/>
    </contour>
  </outline>
</glyph>
<glyph name="uni1B19" format="2">
  <advance width="894"/>
  <unicode hex="1B19"/>
  <anchor x="477" y="0" name="Anchor-4"/>
  <anchor x="463" y="490" name="Anchor-2"/>
  <outline>
    <contour>
      <point x="844" y="0" type="line"/>
      <point x="765" y="0" type="line"/>
      <point x="765" y="288" type="line" smooth="yes"/>
      <point x="765" y="344"/>
      <point x="717" y="344" type="qcurve" smooth="yes"/>
      <point x="669" y="344"/>
      <point x="669" y="288" type="qcurve" smooth="yes"/>
      <point x="669" y="199" type="line"/>
      <point x="590" y="211" type="line"/>
      <point x="590" y="279" type="line" smooth="yes"/>
      <point x="590" y="417"/>
      <point x="717" y="417" type="qcurve" smooth="yes"/>
      <point x="844" y="417"/>
      <point x="844" y="279" type="qcurve" smooth="yes"/>
    </contour>
    <contour>
      <point x="210" y="-6" type="qcurve"/>
      <point x="121" y="-2"/>
      <point x="30" y="116"/>
      <point x="30" y="212" type="qcurve" smooth="yes"/>
      <point x="30" y="307"/>
      <point x="125" y="415"/>
      <point x="200" y="418" type="qcurve" smooth="yes"/>
      <point x="213" y="419" type="line"/>
      <point x="286" y="419"/>
      <point x="375" y="337"/>
      <point x="412" y="245" type="qcurve" smooth="yes"/>
      <point x="459" y="125"/>
      <point x="504" y="69"/>
      <point x="536" y="69" type="qcurve" smooth="yes"/>
      <point x="589" y="69"/>
      <point x="590" y="160" type="qcurve" smooth="yes"/>
      <point x="590" y="240" type="line"/>
      <point x="669" y="276" type="line"/>
      <point x="669" y="157" type="line" smooth="yes"/>
      <point x="669" y="68"/>
      <point x="589" y="-5"/>
      <point x="529" y="-5" type="qcurve" smooth="yes"/>
      <point x="467" y="-4"/>
      <point x="394" y="65"/>
      <point x="332" y="215"/>
      <point x="282" y="329"/>
      <point x="241" y="342" type="qcurve" smooth="yes"/>
      <point x="225" y="347"/>
      <point x="211" y="347" type="qcurve" smooth="yes"/>
      <point x="172" y="347"/>
      <point x="113" y="279"/>
      <point x="113" y="217" type="qcurve" smooth="yes"/>
      <point x="113" y="206" type="line" smooth="yes"/>
      <point x="116" y="140"/>
      <point x="173" y="64"/>
      <point x="221" y="64" type="qcurve"/>
      <point x="228" y="65" type="line" smooth="yes"/>
      <point x="281" y="72"/>
      <point x="296" y="160" type="qcurve"/>
      <point x="334" y="155" type="line"/>
      <point x="334" y="136" type="line" smooth="yes"/>
      <point x="334" y="-4"/>
    </contour>
  </outline>
</glyph>
<glyph name="uni1B1A" format="2">
  <advance width="732"/>
  <unicode hex="1B1A"/>
  <anchor x="456" y="0" name="Anchor-4"/>
  <anchor x="354" y="490" name="Anchor-2"/>
  <outline>
    <contour>
      <point x="645" y="-2" type="line"/>
      <point x="583" y="147"/>
      <point x="423" y="168" type="qcurve"/>
      <point x="416" y="219" type="line"/>
      <point x="575" y="277"/>
      <point x="575" y="324" type="qcurve" smooth="yes"/>
      <point x="575" y="359"/>
      <point x="514" y="359" type="qcurve" smooth="yes"/>
      <point x="434" y="359"/>
      <point x="357" y="282"/>
      <point x="357" y="222" type="qcurve" smooth="yes"/>
      <point x="357" y="174"/>
      <point x="417" y="75"/>
      <point x="475" y="43" type="qcurve"/>
      <point x="475" y="0" type="line"/>
      <point x="243" y="0" type="line" smooth="yes"/>
      <point x="152" y="0"/>
      <point x="123" y="67" type="qcurve" smooth="yes"/>
      <point x="115" y="89"/>
      <point x="115" y="111" type="qcurve" smooth="yes"/>
      <point x="115" y="146"/>
      <point x="133" y="182" type="qcurve" smooth="yes"/>
      <point x="177" y="274" type="line" smooth="yes"/>
      <point x="186" y="295"/>
      <point x="186" y="312" type="qcurve" smooth="yes"/>
      <point x="186" y="329"/>
      <point x="164" y="354"/>
      <point x="147" y="354" type="qcurve" smooth="yes"/>
      <point x="136" y="353" type="line"/>
      <point x="88" y="342"/>
      <point x="88" y="251" type="qcurve" smooth="yes"/>
      <point x="88" y="231" type="line"/>
      <point x="45" y="228" type="line"/>
      <point x="30" y="270"/>
      <point x="30" y="303" type="qcurve" smooth="yes"/>
      <point x="30" y="353"/>
      <point x="91" y="419"/>
      <point x="149" y="419" type="qcurve" smooth="yes"/>
      <point x="202" y="419"/>
      <point x="261" y="357"/>
      <point x="261" y="310" type="qcurve" smooth="yes"/>
      <point x="261" y="275"/>
      <point x="243" y="233" type="qcurve"/>
      <point x="196" y="146"/>
      <point x="196" y="109" type="qcurve" smooth="yes"/>
      <point x="196" y="65"/>
      <point x="254" y="65" type="qcurve" smooth="yes"/>
      <point x="365" y="65" type="line"/>
      <point x="285" y="115"/>
      <point x="285" y="222" type="qcurve" smooth="yes"/>
      <point x="285" y="297"/>
      <point x="333" y="352" type="qcurve" smooth="yes"/>
      <point x="388" y="417"/>
      <point x="512" y="417" type="qcurve" smooth="yes"/>
      <point x="654" y="417"/>
      <point x="654" y="331" type="qcurve" smooth="yes"/>
      <point x="654" y="239"/>
      <point x="488" y="199" type="qcurve"/>
      <point x="662" y="197"/>
      <point x="682" y="10" type="qcurve"/>
    </contour>
  </outline>
</glyph>
<glyph name="uni1B1C" format="2">
  <advance width="1247"/>
  <unicode hex="1B1C"/>
  <anchor x="623" y="0" name="Anchor-4"/>
  <anchor x="587" y="490" name="Anchor-2"/>
  <outline>
    <contour>
      <point x="1017" y="-6" type="qcurve"/>
      <point x="893" y="-4"/>
      <point x="893" y="136" type="qcurve" smooth="yes"/>
      <point x="893" y="155" type="line"/>
      <point x="921" y="160" type="line"/>
      <point x="936" y="72"/>
      <point x="989" y="65" type="qcurve"/>
      <point x="1007" y="64" type="line" smooth="yes"/>
      <point x="1052" y="64"/>
      <point x="1110" y="135"/>
      <point x="1113" y="206" type="qcurve" smooth="yes"/>
      <point x="1114" y="217" type="line"/>
      <point x="1114" y="274"/>
      <point x="1058" y="347"/>
      <point x="1014" y="347" type="qcurve" smooth="yes"/>
      <point x="962" y="347"/>
      <point x="876" y="252"/>
      <point x="763" y="0" type="qcurve"/>
      <point x="707" y="32" type="line"/>
      <point x="744" y="132"/>
      <point x="744" y="217" type="qcurve" smooth="yes"/>
      <point x="744" y="344"/>
      <point x="670" y="350" type="qcurve"/>
      <point x="666" y="350" type="line" smooth="yes"/>
      <point x="608" y="350"/>
      <point x="586" y="267" type="qcurve"/>
      <point x="526" y="267" type="line"/>
      <point x="504" y="350"/>
      <point x="441" y="350" type="qcurve" smooth="yes"/>
      <point x="436" y="350" type="line"/>
      <point x="369" y="346"/>
      <point x="365" y="233" type="qcurve"/>
      <point x="365" y="224" type="line" smooth="yes"/>
      <point x="365" y="118"/>
      <point x="456" y="53" type="qcurve"/>
      <point x="454" y="0" type="line"/>
      <point x="254" y="0" type="line"/>
      <point x="282" y="61" type="line"/>
      <point x="363" y="61" type="line"/>
      <point x="287" y="118"/>
      <point x="287" y="232" type="qcurve" smooth="yes"/>
      <point x="287" y="314"/>
      <point x="356" y="413"/>
      <point x="423" y="416" type="qcurve" smooth="yes"/>
      <point x="438" y="417" type="line"/>
      <point x="532" y="417"/>
      <point x="555" y="359" type="qcurve"/>
      <point x="556" y="358" type="line"/>
      <point x="556" y="359" type="line"/>
      <point x="579" y="417"/>
      <point x="669" y="417" type="qcurve"/>
      <point x="684" y="416" type="line" smooth="yes"/>
      <point x="740" y="414"/>
      <point x="808" y="339"/>
      <point x="811" y="268" type="qcurve"/>
      <point x="884" y="422"/>
      <point x="1015" y="422" type="qcurve"/>
      <point x="1034" y="421" type="line" smooth="yes"/>
      <point x="1102" y="415"/>
      <point x="1197" y="306"/>
      <point x="1197" y="211" type="qcurve" smooth="yes"/>
      <point x="1197" y="116"/>
      <point x="1106" y="-2"/>
    </contour>
    <contour>
      <point x="312" y="0" type="line"/>
      <point x="243" y="0" type="line" smooth="yes"/>
      <point x="152" y="0"/>
      <point x="123" y="67" type="qcurve" smooth="yes"/>
      <point x="115" y="89"/>
      <point x="115" y="111" type="qcurve" smooth="yes"/>
      <point x="115" y="146"/>
      <point x="133" y="182" type="qcurve" smooth="yes"/>
      <point x="177" y="274" type="line" smooth="yes"/>
      <point x="186" y="295"/>
      <point x="186" y="312" type="qcurve" smooth="yes"/>
      <point x="186" y="329"/>
      <point x="164" y="354"/>
      <point x="147" y="354" type="qcurve" smooth="yes"/>
      <point x="136" y="353" type="line"/>
      <point x="88" y="342"/>
      <point x="88" y="251" type="qcurve" smooth="yes"/>
      <point x="88" y="231" type="line"/>
      <point x="45" y="228" type="line"/>
      <point x="30" y="270"/>
      <point x="30" y="303" type="qcurve" smooth="yes"/>
      <point x="30" y="353"/>
      <point x="91" y="419"/>
      <point x="149" y="419" type="qcurve" smooth="yes"/>
      <point x="202" y="419"/>
      <point x="261" y="357"/>
      <point x="261" y="310" type="qcurve" smooth="yes"/>
      <point x="261" y="275"/>
      <point x="243" y="233" type="qcurve"/>
      <point x="196" y="146"/>
      <point x="196" y="109" type="qcurve" smooth="yes"/>
      <point x="196" y="88"/>
      <point x="226" y="65"/>
      <point x="254" y="65" type="qcurve" smooth="yes"/>
      <point x="408" y="65" type="line"/>
    </contour>
  </outline>
</glyph>
<glyph name="uni1B1E" format="2">
  <advance width="840"/>
  <unicode hex="1B1E"/>
  <anchor x="470" y="0" name="Anchor-4"/>
  <anchor x="440" y="490" name="Anchor-2"/>
  <outline>
    <contour>
      <point x="247" y="64" type="qcurve" smooth="yes"/>
      <point x="398" y="64" type="line"/>
      <point x="398" y="0" type="line"/>
      <point x="243" y="0" type="line" smooth="yes"/>
      <point x="152" y="0"/>
      <point x="123" y="67" type="qcurve" smooth="yes"/>
      <point x="115" y="89"/>
      <point x="115" y="111" type="qcurve" smooth="yes"/>
      <point x="115" y="146"/>
      <point x="161" y="241"/>
      <point x="177" y="274" type="qcurve" smooth="yes"/>
      <point x="186" y="295"/>
      <point x="186" y="312" type="qcurve" smooth="yes"/>
      <point x="186" y="329"/>
      <point x="164" y="354"/>
      <point x="147" y="354" type="qcurve" smooth="yes"/>
      <point x="136" y="353" type="line"/>
      <point x="88" y="342"/>
      <point x="88" y="251" type="qcurve" smooth="yes"/>
      <point x="88" y="231" type="line"/>
      <point x="45" y="228" type="line"/>
      <point x="30" y="270"/>
      <point x="30" y="303" type="qcurve" smooth="yes"/>
      <point x="30" y="353"/>
      <point x="91" y="419"/>
      <point x="149" y="419" type="qcurve" smooth="yes"/>
      <point x="202" y="419"/>
      <point x="261" y="357"/>
      <point x="261" y="310" type="qcurve" smooth="yes"/>
      <point x="261" y="275"/>
      <point x="243" y="233" type="qcurve"/>
      <point x="197" y="149"/>
      <point x="197" y="110" type="qcurve" smooth="yes"/>
      <point x="197" y="65"/>
    </contour>
    <contour>
      <point x="790" y="0" type="line"/>
      <point x="711" y="0" type="line"/>
      <point x="711" y="265" type="line" smooth="yes"/>
      <point x="711" y="346"/>
      <point x="640" y="346" type="qcurve" smooth="yes"/>
      <point x="577" y="346"/>
      <point x="558" y="267" type="qcurve"/>
      <point x="503" y="267" type="line"/>
      <point x="481" y="354"/>
      <point x="423" y="354" type="qcurve" smooth="yes"/>
      <point x="397" y="354"/>
      <point x="362" y="319"/>
      <point x="362" y="289" type="qcurve" smooth="yes"/>
      <point x="362" y="262"/>
      <point x="381" y="234" type="qcurve"/>
      <point x="357" y="215" type="line"/>
      <point x="301" y="255"/>
      <point x="301" y="313" type="qcurve" smooth="yes"/>
      <point x="301" y="361"/>
      <point x="368" y="419"/>
      <point x="422" y="419" type="qcurve" smooth="yes"/>
      <point x="509" y="417"/>
      <point x="533" y="359" type="qcurve"/>
      <point x="572" y="413"/>
      <point x="646" y="413" type="qcurve" smooth="yes"/>
      <point x="790" y="413"/>
      <point x="790" y="261" type="qcurve" smooth="yes"/>
    </contour>
  </outline>
</glyph>
<glyph name="uni1B1F" format="2">
  <advance width="795"/>
  <unicode hex="1B1F"/>
  <anchor x="427" y="0" name="Anchor-4"/>
  <anchor x="398" y="484" name="Anchor-2"/>
  <outline>
    <contour>
      <point x="745" y="0" type="line"/>
      <point x="666" y="0" type="line"/>
      <point x="666" y="288" type="line" smooth="yes"/>
      <point x="666" y="344"/>
      <point x="618" y="344" type="qcurve" smooth="yes"/>
      <point x="570" y="344"/>
      <point x="570" y="288" type="qcurve" smooth="yes"/>
      <point x="570" y="143" type="line" smooth="yes"/>
      <point x="567" y="0"/>
      <point x="453" y="0" type="qcurve" smooth="yes"/>
      <point x="369" y="0"/>
      <point x="339" y="52" type="qcurve"/>
      <point x="307" y="3"/>
      <point x="239" y="0" type="qcurve" smooth="yes"/>
      <point x="152" y="1"/>
      <point x="123" y="67" type="qcurve" smooth="yes"/>
      <point x="115" y="89"/>
      <point x="115" y="111" type="qcurve" smooth="yes"/>
      <point x="115" y="146"/>
      <point x="133" y="182" type="qcurve" smooth="yes"/>
      <point x="177" y="274" type="line" smooth="yes"/>
      <point x="186" y="295"/>
      <point x="186" y="312" type="qcurve" smooth="yes"/>
      <point x="186" y="329"/>
      <point x="164" y="354"/>
      <point x="147" y="354" type="qcurve" smooth="yes"/>
      <point x="136" y="353" type="line"/>
      <point x="88" y="342"/>
      <point x="88" y="251" type="qcurve" smooth="yes"/>
      <point x="88" y="231" type="line"/>
      <point x="45" y="228" type="line"/>
      <point x="30" y="270"/>
      <point x="30" y="303" type="qcurve" smooth="yes"/>
      <point x="30" y="353"/>
      <point x="91" y="419"/>
      <point x="149" y="419" type="qcurve" smooth="yes"/>
      <point x="202" y="419"/>
      <point x="261" y="357"/>
      <point x="261" y="310" type="qcurve" smooth="yes"/>
      <point x="261" y="275"/>
      <point x="243" y="233" type="qcurve"/>
      <point x="197" y="149"/>
      <point x="197" y="110" type="qcurve" smooth="yes"/>
      <point x="197" y="65"/>
      <point x="244" y="65" type="qcurve" smooth="yes"/>
      <point x="293" y="66"/>
      <point x="314" y="145" type="qcurve"/>
      <point x="369" y="145" type="line"/>
      <point x="392" y="67"/>
      <point x="444" y="65" type="qcurve" smooth="yes"/>
      <point x="489" y="67"/>
      <point x="490" y="133" type="qcurve" smooth="yes"/>
      <point x="490" y="279" type="line" smooth="yes"/>
      <point x="490" y="417"/>
      <point x="618" y="417" type="qcurve" smooth="yes"/>
      <point x="745" y="417"/>
      <point x="745" y="279" type="qcurve" smooth="yes"/>
    </contour>
  </outline>
</glyph>
<glyph name="uni1B20" format="2">
  <advance width="632"/>
  <unicode hex="1B20"/>
  <anchor x="346" y="0" name="Anchor-4"/>
  <anchor x="308" y="501" name="Anchor-2"/>
  <outline>
    <contour>
      <point x="339" y="52" type="line"/>
      <point x="307" y="3"/>
      <point x="239" y="0" type="qcurve" smooth="yes"/>
      <point x="152" y="1"/>
      <point x="123" y="67" type="qcurve" smooth="yes"/>
      <point x="115" y="89"/>
      <point x="115" y="111" type="qcurve" smooth="yes"/>
      <point x="115" y="146"/>
      <point x="133" y="182" type="qcurve" smooth="yes"/>
      <point x="177" y="274" type="line" smooth="yes"/>
      <point x="186" y="295"/>
      <point x="186" y="312" type="qcurve" smooth="yes"/>
      <point x="186" y="329"/>
      <point x="164" y="354"/>
      <point x="147" y="354" type="qcurve" smooth="yes"/>
      <point x="136" y="353" type="line"/>
      <point x="88" y="342"/>
      <point x="88" y="251" type="qcurve" smooth="yes"/>
      <point x="88" y="231" type="line"/>
      <point x="45" y="228" type="line"/>
      <point x="30" y="270"/>
      <point x="30" y="303" type="qcurve" smooth="yes"/>
      <point x="30" y="353"/>
      <point x="91" y="419"/>
      <point x="149" y="419" type="qcurve" smooth="yes"/>
      <point x="202" y="419"/>
      <point x="261" y="357"/>
      <point x="261" y="310" type="qcurve" smooth="yes"/>
      <point x="261" y="275"/>
      <point x="243" y="233" type="qcurve"/>
      <point x="197" y="149"/>
      <point x="197" y="110" type="qcurve" smooth="yes"/>
      <point x="197" y="65"/>
      <point x="244" y="65" type="qcurve" smooth="yes"/>
      <point x="293" y="66"/>
      <point x="314" y="145" type="qcurve"/>
      <point x="369" y="145" type="line"/>
    </contour>
    <contour>
      <point x="440" y="-4" type="line" smooth="yes"/>
      <point x="371" y="-4"/>
      <point x="339" y="52" type="qcurve"/>
      <point x="314" y="145" type="line"/>
      <point x="369" y="145" type="line"/>
      <point x="390" y="64"/>
      <point x="442" y="64" type="qcurve"/>
      <point x="449" y="65" type="line" smooth="yes"/>
      <point x="506" y="70"/>
      <point x="510" y="183" type="qcurve"/>
      <point x="509" y="306"/>
      <point x="400" y="399" type="qcurve"/>
      <point x="416" y="426" type="line"/>
      <point x="582" y="351"/>
      <point x="582" y="172" type="qcurve"/>
      <point x="581" y="141" type="line"/>
      <point x="572" y="72"/>
      <point x="504" y="-2"/>
      <point x="452" y="-4" type="qcurve" smooth="yes"/>
    </contour>
  </outline>
</glyph>
<glyph name="uni1B21" format="2">
  <advance width="854"/>
  <unicode hex="1B21"/>
  <anchor x="502" y="0" name="Anchor-3"/>
  <anchor x="717" y="0" name="Anchor-1"/>
  <anchor x="461" y="490" name="Anchor-0"/>
  <outline>
    <contour>
      <point x="804" y="0" type="line"/>
      <point x="725" y="0" type="line"/>
      <point x="725" y="293" type="line" smooth="yes"/>
      <point x="725" y="354"/>
      <point x="684" y="354" type="qcurve" smooth="yes"/>
      <point x="640" y="352"/>
      <point x="620" y="304" type="qcurve"/>
      <point x="620" y="0" type="line"/>
      <point x="540" y="0" type="line"/>
      <point x="540" y="275" type="line" smooth="yes"/>
      <point x="540" y="347"/>
      <point x="489" y="347" type="qcurve" smooth="yes"/>
      <point x="427" y="346"/>
      <point x="388" y="227" type="qcurve"/>
      <point x="333" y="227" type="line"/>
      <point x="298" y="339"/>
      <point x="252" y="339" type="qcurve" smooth="yes"/>
      <point x="248" y="339" type="line"/>
      <point x="201" y="334"/>
      <point x="183" y="206" type="qcurve"/>
      <point x="38" y="223"/>
      <point x="38" y="320" type="qcurve" smooth="yes"/>
      <point x="38" y="361"/>
      <point x="88" y="427" type="qcurve"/>
      <point x="123" y="415" type="line"/>
      <point x="107" y="368"/>
      <point x="107" y="330" type="qcurve" smooth="yes"/>
      <point x="111" y="286"/>
      <point x="139" y="271" type="qcurve"/>
      <point x="154" y="417"/>
      <point x="247" y="417" type="qcurve" smooth="yes"/>
      <point x="336" y="417"/>
      <point x="363" y="309" type="qcurve"/>
      <point x="395" y="417"/>
      <point x="493" y="417" type="qcurve" smooth="yes"/>
      <point x="561" y="417"/>
      <point x="596" y="363" type="qcurve"/>
      <point x="630" y="416"/>
      <point x="690" y="416" type="qcurve" smooth="yes"/>
      <point x="802" y="416"/>
      <point x="804" y="288" type="qcurve" smooth="yes"/>
    </contour>
  </outline>
</glyph>
<glyph name="uni1B22" format="2">
  <advance width="912"/>
  <unicode hex="1B22"/>
  <anchor x="536" y="0" name="Anchor-4"/>
  <anchor x="475" y="490" name="Anchor-2"/>
  <outline>
    <contour>
      <point x="862" y="0" type="line"/>
      <point x="783" y="0" type="line"/>
      <point x="783" y="293" type="line" smooth="yes"/>
      <point x="783" y="354"/>
      <point x="741" y="354" type="qcurve" smooth="yes"/>
      <point x="697" y="352"/>
      <point x="678" y="304" type="qcurve"/>
      <point x="678" y="0" type="line"/>
      <point x="598" y="0" type="line"/>
      <point x="598" y="255" type="line" smooth="yes"/>
      <point x="598" y="353"/>
      <point x="492" y="353" type="qcurve" smooth="yes"/>
      <point x="419" y="353"/>
      <point x="368" y="275" type="qcurve"/>
      <point x="538" y="248"/>
      <point x="538" y="119" type="qcurve" smooth="yes"/>
      <point x="538" y="61"/>
      <point x="472" y="2"/>
      <point x="406" y="0" type="qcurve" smooth="yes"/>
      <point x="343" y="0" type="line"/>
      <point x="347" y="65" type="line"/>
      <point x="408" y="65" type="line" smooth="yes"/>
      <point x="461" y="65"/>
      <point x="461" y="116" type="qcurve" smooth="yes"/>
      <point x="461" y="210"/>
      <point x="305" y="226" type="qcurve"/>
      <point x="283" y="264" type="line"/>
      <point x="341" y="410"/>
      <point x="485" y="417" type="qcurve"/>
      <point x="509" y="417" type="line"/>
      <point x="617" y="411"/>
      <point x="644" y="363" type="qcurve"/>
      <point x="688" y="416"/>
      <point x="748" y="416" type="qcurve" smooth="yes"/>
      <point x="860" y="416"/>
      <point x="862" y="288" type="qcurve" smooth="yes"/>
    </contour>
    <contour>
      <point x="361" y="0" type="line"/>
      <point x="288" y="0" type="line" smooth="yes"/>
      <point x="219" y="0"/>
      <point x="151" y="68"/>
      <point x="151" y="125" type="qcurve" smooth="yes"/>
      <point x="151" y="166"/>
      <point x="177" y="266" type="qcurve" smooth="yes"/>
      <point x="183" y="289"/>
      <point x="183" y="305" type="qcurve" smooth="yes"/>
      <point x="183" y="326"/>
      <point x="165" y="354"/>
      <point x="147" y="354" type="qcurve" smooth="yes"/>
      <point x="136" y="353" type="line"/>
      <point x="88" y="342"/>
      <point x="88" y="251" type="qcurve" smooth="yes"/>
      <point x="88" y="231" type="line"/>
      <point x="45" y="228" type="line"/>
      <point x="34" y="270"/>
      <point x="34" y="303" type="qcurve" smooth="yes"/>
      <point x="34" y="353"/>
      <point x="91" y="419"/>
      <point x="149" y="419" type="qcurve" smooth="yes"/>
      <point x="206" y="419"/>
      <point x="261" y="359"/>
      <point x="261" y="309" type="qcurve" smooth="yes"/>
      <point x="261" y="281"/>
      <point x="252" y="248" type="qcurve" smooth="yes"/>
      <point x="231" y="172"/>
      <point x="230" y="137" type="qcurve" smooth="yes"/>
      <point x="230" y="132" type="line" smooth="yes"/>
      <point x="230" y="101"/>
      <point x="265" y="65"/>
      <point x="298" y="65" type="qcurve" smooth="yes"/>
      <point x="360" y="65" type="line"/>
    </contour>
  </outline>
</glyph>
<glyph name="uni1B23" format="2">
  <advance width="725"/>
  <unicode hex="1B23"/>
  <anchor x="412" y="0" name="Anchor-4"/>
  <anchor x="362" y="490" name="Anchor-2"/>
  <outline>
    <contour>
      <point x="675" y="0" type="line"/>
      <point x="596" y="0" type="line"/>
      <point x="596" y="274" type="line" smooth="yes"/>
      <point x="593" y="350"/>
      <point x="526" y="353" type="qcurve" smooth="yes"/>
      <point x="476" y="353" type="line"/>
      <point x="533" y="292"/>
      <point x="538" y="189" type="qcurve"/>
      <point x="538" y="167" type="line" smooth="yes"/>
      <point x="538" y="83"/>
      <point x="467" y="3"/>
      <point x="411" y="0" type="qcurve" smooth="yes"/>
      <point x="243" y="0" type="line" smooth="yes"/>
      <point x="152" y="0"/>
      <point x="123" y="67" type="qcurve" smooth="yes"/>
      <point x="115" y="89"/>
      <point x="115" y="111" type="qcurve" smooth="yes"/>
      <point x="115" y="146"/>
      <point x="133" y="182" type="qcurve" smooth="yes"/>
      <point x="177" y="274" type="line" smooth="yes"/>
      <point x="186" y="295"/>
      <point x="186" y="312" type="qcurve" smooth="yes"/>
      <point x="186" y="329"/>
      <point x="164" y="354"/>
      <point x="147" y="354" type="qcurve" smooth="yes"/>
      <point x="136" y="353" type="line"/>
      <point x="88" y="342"/>
      <point x="88" y="251" type="qcurve" smooth="yes"/>
      <point x="88" y="231" type="line"/>
      <point x="45" y="228" type="line"/>
      <point x="30" y="270"/>
      <point x="30" y="303" type="qcurve" smooth="yes"/>
      <point x="30" y="353"/>
      <point x="91" y="419"/>
      <point x="149" y="419" type="qcurve" smooth="yes"/>
      <point x="202" y="419"/>
      <point x="261" y="357"/>
      <point x="261" y="310" type="qcurve" smooth="yes"/>
      <point x="261" y="275"/>
      <point x="243" y="233" type="qcurve"/>
      <point x="197" y="149"/>
      <point x="197" y="110" type="qcurve" smooth="yes"/>
      <point x="197" y="65"/>
      <point x="244" y="65" type="qcurve" smooth="yes"/>
      <point x="392" y="65" type="line"/>
      <point x="464" y="69"/>
      <point x="466" y="161" type="qcurve" smooth="yes"/>
      <point x="464" y="334"/>
      <point x="345" y="373" type="qcurve"/>
      <point x="351" y="417" type="line"/>
      <point x="528" y="417" type="line" smooth="yes"/>
      <point x="673" y="415"/>
      <point x="675" y="269" type="qcurve" smooth="yes"/>
    </contour>
    <contour>
      <point x="401" y="15" type="line"/>
      <point x="356" y="171"/>
      <point x="264" y="232" type="qcurve"/>
      <point x="314" y="295" type="line"/>
      <point x="426" y="223"/>
      <point x="426" y="34" type="qcurve" smooth="yes"/>
      <point x="426" y="20" type="line"/>
    </contour>
  </outline>
</glyph>
<glyph name="uni1B24" format="2">
  <advance width="741"/>
  <unicode hex="1B24"/>
  <anchor x="400" y="0" name="Anchor-4"/>
  <anchor x="370" y="490" name="Anchor-2"/>
  <outline>
    <contour>
      <point x="410" y="51" type="line"/>
      <point x="428" y="51"/>
      <point x="428" y="69" type="qcurve" smooth="yes"/>
      <point x="428" y="82"/>
      <point x="402" y="104"/>
      <point x="379" y="104" type="qcurve"/>
      <point x="379" y="55"/>
      <point x="406" y="52" type="qcurve" smooth="yes"/>
    </contour>
    <contour>
      <point x="132" y="-6" type="qcurve" smooth="yes"/>
      <point x="88" y="-6"/>
      <point x="37" y="44"/>
      <point x="37" y="89" type="qcurve" smooth="yes"/>
      <point x="37" y="132"/>
      <point x="89" y="200"/>
      <point x="148" y="250" type="qcurve" smooth="yes"/>
      <point x="188" y="285"/>
      <point x="188" y="314" type="qcurve" smooth="yes"/>
      <point x="188" y="329"/>
      <point x="167" y="354"/>
      <point x="148" y="354" type="qcurve" smooth="yes"/>
      <point x="119" y="354"/>
      <point x="88" y="302"/>
      <point x="88" y="251" type="qcurve" smooth="yes"/>
      <point x="88" y="231" type="line"/>
      <point x="45" y="228" type="line"/>
      <point x="30" y="270"/>
      <point x="30" y="303" type="qcurve" smooth="yes"/>
      <point x="30" y="353"/>
      <point x="91" y="419"/>
      <point x="149" y="419" type="qcurve" smooth="yes"/>
      <point x="202" y="419"/>
      <point x="260" y="360"/>
      <point x="260" y="321" type="qcurve" smooth="yes"/>
      <point x="260" y="287"/>
      <point x="222" y="229"/>
      <point x="184" y="198" type="qcurve" smooth="yes"/>
      <point x="109" y="138"/>
      <point x="109" y="93" type="qcurve" smooth="yes"/>
      <point x="109" y="62"/>
      <point x="140" y="62" type="qcurve" smooth="yes"/>
      <point x="166" y="62"/>
      <point x="200" y="90" type="qcurve" smooth="yes"/>
      <point x="267" y="147"/>
      <point x="304" y="154" type="qcurve"/>
      <point x="304" y="234" type="line" smooth="yes"/>
      <point x="306" y="415"/>
      <point x="475" y="417" type="qcurve" smooth="yes"/>
      <point x="520" y="417" type="line" smooth="yes"/>
      <point x="689" y="415"/>
      <point x="691" y="234" type="qcurve" smooth="yes"/>
      <point x="691" y="0" type="line"/>
      <point x="611" y="0" type="line"/>
      <point x="611" y="240" type="line" smooth="yes"/>
      <point x="608" y="350"/>
      <point x="517" y="353" type="qcurve" smooth="yes"/>
      <point x="478" y="353" type="line" smooth="yes"/>
      <point x="383" y="350"/>
      <point x="379" y="259" type="qcurve"/>
      <point x="379" y="161" type="line"/>
      <point x="426" y="160"/>
      <point x="487" y="105"/>
      <point x="487" y="65" type="qcurve" smooth="yes"/>
      <point x="486" y="34"/>
      <point x="450" y="-4"/>
      <point x="414" y="-4" type="qcurve" smooth="yes"/>
      <point x="404" y="-4" type="line" smooth="yes"/>
      <point x="364" y="-1"/>
      <point x="339" y="27" type="qcurve" smooth="yes"/>
      <point x="318" y="52"/>
      <point x="310" y="91" type="qcurve"/>
      <point x="291" y="83"/>
      <point x="278" y="71" type="qcurve" smooth="yes"/>
      <point x="229" y="25"/>
      <point x="167" y="-6"/>
    </contour>
  </outline>
</glyph>
<glyph name="uni1B25" format="2">
  <advance width="778"/>
  <unicode hex="1B25"/>
  <anchor x="419" y="0" name="Anchor-4"/>
  <anchor x="380" y="490" name="Anchor-2"/>
  <outline>
    <contour>
      <point x="728" y="0" type="line"/>
      <point x="649" y="0" type="line"/>
      <point x="649" y="274" type="line"/>
      <point x="645" y="350"/>
      <point x="579" y="353" type="qcurve" smooth="yes"/>
      <point x="530" y="353" type="line"/>
      <point x="587" y="292"/>
      <point x="592" y="189" type="qcurve"/>
      <point x="592" y="167" type="line" smooth="yes"/>
      <point x="592" y="83"/>
      <point x="521" y="3"/>
      <point x="454" y="0" type="qcurve" smooth="yes"/>
      <point x="370" y="0"/>
      <point x="339" y="52" type="qcurve"/>
      <point x="307" y="3"/>
      <point x="239" y="0" type="qcurve" smooth="yes"/>
      <point x="152" y="1"/>
      <point x="123" y="67" type="qcurve" smooth="yes"/>
      <point x="115" y="89"/>
      <point x="115" y="111" type="qcurve" smooth="yes"/>
      <point x="115" y="146"/>
      <point x="133" y="182" type="qcurve" smooth="yes"/>
      <point x="177" y="274" type="line" smooth="yes"/>
      <point x="186" y="295"/>
      <point x="186" y="312" type="qcurve" smooth="yes"/>
      <point x="186" y="329"/>
      <point x="164" y="354"/>
      <point x="147" y="354" type="qcurve" smooth="yes"/>
      <point x="136" y="353" type="line"/>
      <point x="88" y="342"/>
      <point x="88" y="251" type="qcurve" smooth="yes"/>
      <point x="88" y="231" type="line"/>
      <point x="45" y="228" type="line"/>
      <point x="30" y="270"/>
      <point x="30" y="303" type="qcurve" smooth="yes"/>
      <point x="30" y="353"/>
      <point x="91" y="419"/>
      <point x="149" y="419" type="qcurve" smooth="yes"/>
      <point x="202" y="419"/>
      <point x="261" y="357"/>
      <point x="261" y="310" type="qcurve" smooth="yes"/>
      <point x="261" y="275"/>
      <point x="243" y="233" type="qcurve"/>
      <point x="197" y="149"/>
      <point x="197" y="110" type="qcurve" smooth="yes"/>
      <point x="197" y="65"/>
      <point x="244" y="65" type="qcurve" smooth="yes"/>
      <point x="293" y="66"/>
      <point x="314" y="145" type="qcurve"/>
      <point x="369" y="145" type="line"/>
      <point x="392" y="65"/>
      <point x="446" y="65" type="qcurve" smooth="yes"/>
      <point x="518" y="69"/>
      <point x="520" y="161" type="qcurve" smooth="yes"/>
      <point x="518" y="334"/>
      <point x="399" y="373" type="qcurve"/>
      <point x="405" y="417" type="line"/>
      <point x="582" y="417" type="line" smooth="yes"/>
      <point x="727" y="415"/>
      <point x="728" y="269" type="qcurve" smooth="yes"/>
    </contour>
  </outline>
</glyph>
<glyph name="uni1B27" format="2">
  <advance width="684"/>
  <unicode hex="1B27"/>
  <anchor x="372" y="0" name="Anchor-4"/>
  <anchor x="336" y="490" name="Anchor-2"/>
  <outline>
    <contour>
      <point x="634" y="0" type="line"/>
      <point x="554" y="0" type="line"/>
      <point x="554" y="288" type="line" smooth="yes"/>
      <point x="554" y="344"/>
      <point x="506" y="344" type="qcurve" smooth="yes"/>
      <point x="458" y="344"/>
      <point x="458" y="288" type="qcurve" smooth="yes"/>
      <point x="458" y="102" type="line" smooth="yes"/>
      <point x="458" y="0"/>
      <point x="348" y="0" type="qcurve" smooth="yes"/>
      <point x="243" y="0" type="line" smooth="yes"/>
      <point x="152" y="0"/>
      <point x="123" y="67" type="qcurve" smooth="yes"/>
      <point x="115" y="89"/>
      <point x="115" y="111" type="qcurve" smooth="yes"/>
      <point x="115" y="146"/>
      <point x="133" y="182" type="qcurve" smooth="yes"/>
      <point x="177" y="274" type="line" smooth="yes"/>
      <point x="186" y="295"/>
      <point x="186" y="312" type="qcurve" smooth="yes"/>
      <point x="186" y="329"/>
      <point x="164" y="354"/>
      <point x="147" y="354" type="qcurve" smooth="yes"/>
      <point x="136" y="353" type="line"/>
      <point x="88" y="342"/>
      <point x="88" y="251" type="qcurve" smooth="yes"/>
      <point x="88" y="231" type="line"/>
      <point x="45" y="228" type="line"/>
      <point x="30" y="270"/>
      <point x="30" y="303" type="qcurve" smooth="yes"/>
      <point x="30" y="353"/>
      <point x="91" y="419"/>
      <point x="149" y="419" type="qcurve" smooth="yes"/>
      <point x="202" y="419"/>
      <point x="261" y="357"/>
      <point x="261" y="310" type="qcurve" smooth="yes"/>
      <point x="261" y="275"/>
      <point x="243" y="233" type="qcurve"/>
      <point x="197" y="149"/>
      <point x="197" y="110" type="qcurve" smooth="yes"/>
      <point x="197" y="65"/>
      <point x="244" y="65" type="qcurve" smooth="yes"/>
      <point x="337" y="65" type="line" smooth="yes"/>
      <point x="379" y="65"/>
      <point x="379" y="114" type="qcurve" smooth="yes"/>
      <point x="379" y="279" type="line" smooth="yes"/>
      <point x="379" y="417"/>
      <point x="506" y="417" type="qcurve" smooth="yes"/>
      <point x="634" y="417"/>
      <point x="634" y="279" type="qcurve" smooth="yes"/>
    </contour>
  </outline>
</glyph>
<glyph name="uni1B28" format="2">
  <advance width="636"/>
  <unicode hex="1B28"/>
  <anchor x="306" y="0" name="Anchor-3"/>
  <anchor x="686" y="0" name="Anchor-1"/>
  <anchor x="281" y="490" name="Anchor-0"/>
  <outline>
    <contour>
      <point x="447" y="0" type="qcurve" smooth="yes"/>
      <point x="370" y="0"/>
      <point x="339" y="52" type="qcurve"/>
      <point x="307" y="3"/>
      <point x="239" y="0" type="qcurve" smooth="yes"/>
      <point x="152" y="1"/>
      <point x="123" y="67" type="qcurve" smooth="yes"/>
      <point x="115" y="89"/>
      <point x="115" y="111" type="qcurve" smooth="yes"/>
      <point x="115" y="146"/>
      <point x="133" y="182" type="qcurve" smooth="yes"/>
      <point x="177" y="274" type="line" smooth="yes"/>
      <point x="186" y="295"/>
      <point x="186" y="312" type="qcurve" smooth="yes"/>
      <point x="186" y="329"/>
      <point x="164" y="354"/>
      <point x="147" y="354" type="qcurve" smooth="yes"/>
      <point x="136" y="353" type="line"/>
      <point x="88" y="342"/>
      <point x="88" y="251" type="qcurve" smooth="yes"/>
      <point x="88" y="231" type="line"/>
      <point x="45" y="228" type="line"/>
      <point x="30" y="270"/>
      <point x="30" y="303" type="qcurve" smooth="yes"/>
      <point x="30" y="353"/>
      <point x="91" y="419"/>
      <point x="149" y="419" type="qcurve" smooth="yes"/>
      <point x="202" y="419"/>
      <point x="261" y="357"/>
      <point x="261" y="310" type="qcurve" smooth="yes"/>
      <point x="261" y="275"/>
      <point x="243" y="233" type="qcurve"/>
      <point x="197" y="149"/>
      <point x="197" y="110" type="qcurve" smooth="yes"/>
      <point x="197" y="65"/>
      <point x="244" y="65" type="qcurve" smooth="yes"/>
      <point x="293" y="66"/>
      <point x="314" y="145" type="qcurve"/>
      <point x="369" y="145" type="line"/>
      <point x="378" y="68"/>
      <point x="449" y="67" type="qcurve" smooth="yes"/>
      <point x="485" y="68"/>
      <point x="531" y="146"/>
      <point x="531" y="211" type="qcurve" smooth="yes"/>
      <point x="530" y="232" type="line" smooth="yes"/>
      <point x="520" y="359"/>
      <point x="452" y="362" type="qcurve" smooth="yes"/>
      <point x="450" y="362" type="line" smooth="yes"/>
      <point x="427" y="362"/>
      <point x="427" y="340" type="qcurve" smooth="yes"/>
      <point x="428" y="334" type="line" smooth="yes"/>
      <point x="431" y="305"/>
      <point x="493" y="242" type="qcurve"/>
      <point x="485" y="227" type="line"/>
      <point x="419" y="251"/>
      <point x="354" y="314"/>
      <point x="354" y="361" type="qcurve" smooth="yes"/>
      <point x="354" y="397"/>
      <point x="402" y="435"/>
      <point x="437" y="435" type="qcurve" smooth="yes"/>
      <point x="470" y="435"/>
      <point x="501" y="421" type="qcurve" smooth="yes"/>
      <point x="603" y="376"/>
      <point x="606" y="214" type="qcurve" smooth="yes"/>
      <point x="606" y="207" type="line" smooth="yes"/>
      <point x="606" y="123"/>
      <point x="527" y="1"/>
    </contour>
  </outline>
</glyph>
<glyph name="uni1B29" format="2">
  <advance width="1030"/>
  <unicode hex="1B29"/>
  <anchor x="545" y="0" name="Anchor-4"/>
  <anchor x="513" y="490" name="Anchor-2"/>
  <outline>
    <contour>
      <point x="980" y="0" type="line"/>
      <point x="901" y="0" type="line"/>
      <point x="901" y="293" type="line" smooth="yes"/>
      <point x="901" y="354"/>
      <point x="861" y="354" type="qcurve" smooth="yes"/>
      <point x="859" y="354" type="line" smooth="yes"/>
      <point x="816" y="352"/>
      <point x="796" y="304" type="qcurve"/>
      <point x="796" y="0" type="line"/>
      <point x="717" y="0" type="line"/>
      <point x="717" y="271" type="line"/>
      <point x="772" y="363" type="line" smooth="yes"/>
      <point x="806" y="416"/>
      <point x="866" y="416" type="qcurve" smooth="yes"/>
      <point x="978" y="416"/>
      <point x="980" y="288" type="qcurve" smooth="yes"/>
    </contour>
    <contour>
      <point x="796" y="0" type="line"/>
      <point x="717" y="0" type="line"/>
      <point x="717" y="265" type="line" smooth="yes"/>
      <point x="717" y="346"/>
      <point x="646" y="346" type="qcurve" smooth="yes"/>
      <point x="583" y="346"/>
      <point x="564" y="267" type="qcurve"/>
      <point x="509" y="267" type="line"/>
      <point x="487" y="354"/>
      <point x="428" y="354" type="qcurve" smooth="yes"/>
      <point x="360" y="354"/>
      <point x="360" y="248" type="qcurve" smooth="yes"/>
      <point x="360" y="121"/>
      <point x="450" y="49" type="qcurve"/>
      <point x="445" y="0" type="line"/>
      <point x="243" y="0" type="line" smooth="yes"/>
      <point x="152" y="0"/>
      <point x="123" y="67" type="qcurve" smooth="yes"/>
      <point x="115" y="89"/>
      <point x="115" y="111" type="qcurve" smooth="yes"/>
      <point x="115" y="146"/>
      <point x="133" y="182" type="qcurve" smooth="yes"/>
      <point x="177" y="274" type="line" smooth="yes"/>
      <point x="186" y="295"/>
      <point x="186" y="312" type="qcurve" smooth="yes"/>
      <point x="186" y="329"/>
      <point x="164" y="354"/>
      <point x="147" y="354" type="qcurve" smooth="yes"/>
      <point x="136" y="353" type="line"/>
      <point x="88" y="342"/>
      <point x="88" y="251" type="qcurve" smooth="yes"/>
      <point x="88" y="231" type="line"/>
      <point x="45" y="228" type="line"/>
      <point x="30" y="270"/>
      <point x="30" y="303" type="qcurve" smooth="yes"/>
      <point x="30" y="353"/>
      <point x="91" y="419"/>
      <point x="149" y="419" type="qcurve" smooth="yes"/>
      <point x="202" y="419"/>
      <point x="261" y="357"/>
      <point x="261" y="310" type="qcurve" smooth="yes"/>
      <point x="261" y="275"/>
      <point x="243" y="233" type="qcurve"/>
      <point x="197" y="149"/>
      <point x="197" y="110" type="qcurve" smooth="yes"/>
      <point x="197" y="65"/>
      <point x="244" y="65" type="qcurve" smooth="yes"/>
      <point x="354" y="65" type="line"/>
      <point x="283" y="128"/>
      <point x="283" y="245" type="qcurve" smooth="yes"/>
      <point x="283" y="325"/>
      <point x="358" y="419"/>
      <point x="428" y="419" type="qcurve" smooth="yes"/>
      <point x="515" y="417"/>
      <point x="539" y="359" type="qcurve"/>
      <point x="577" y="413"/>
      <point x="652" y="413" type="qcurve" smooth="yes"/>
      <point x="796" y="413"/>
      <point x="796" y="261" type="qcurve" smooth="yes"/>
    </contour>
  </outline>
</glyph>
<glyph name="uni1B2A" format="2">
  <advance width="748"/>
  <unicode hex="1B2A"/>
  <anchor x="394" y="0" name="Anchor-4"/>
  <anchor x="372" y="490" name="Anchor-2"/>
  <outline>
    <contour>
      <point x="416" y="54" type="qcurve" smooth="yes"/>
      <point x="426" y="54"/>
      <point x="440" y="73"/>
      <point x="440" y="88" type="qcurve" smooth="yes"/>
      <point x="440" y="105"/>
      <point x="413" y="136"/>
      <point x="386" y="139" type="qcurve"/>
      <point x="386" y="100" type="line" smooth="yes"/>
      <point x="388" y="54"/>
    </contour>
    <contour>
      <point x="114" y="-5" type="qcurve" smooth="yes"/>
      <point x="75" y="-5"/>
      <point x="30" y="42"/>
      <point x="30" y="81" type="qcurve" smooth="yes"/>
      <point x="30" y="141"/>
      <point x="110" y="228"/>
      <point x="167" y="244" type="qcurve"/>
      <point x="182" y="216" type="line"/>
      <point x="137" y="183"/>
      <point x="101" y="123"/>
      <point x="101" y="91" type="qcurve" smooth="yes"/>
      <point x="101" y="66"/>
      <point x="120" y="63" type="qcurve" smooth="yes"/>
      <point x="128" y="63" type="line" smooth="yes"/>
      <point x="151" y="63"/>
      <point x="180" y="93" type="qcurve" smooth="yes"/>
      <point x="220" y="136"/>
      <point x="279" y="178"/>
      <point x="312" y="190" type="qcurve"/>
      <point x="312" y="234" type="line" smooth="yes"/>
      <point x="313" y="415"/>
      <point x="483" y="417" type="qcurve" smooth="yes"/>
      <point x="527" y="417" type="line" smooth="yes"/>
      <point x="697" y="415"/>
      <point x="698" y="234" type="qcurve" smooth="yes"/>
      <point x="698" y="0" type="line"/>
      <point x="618" y="0" type="line"/>
      <point x="618" y="240" type="line" smooth="yes"/>
      <point x="615" y="350"/>
      <point x="525" y="353" type="qcurve" smooth="yes"/>
      <point x="485" y="353" type="line" smooth="yes"/>
      <point x="390" y="350"/>
      <point x="386" y="259" type="qcurve"/>
      <point x="386" y="194" type="line"/>
      <point x="424" y="193"/>
      <point x="499" y="146"/>
      <point x="506" y="98" type="qcurve" smooth="yes"/>
      <point x="507" y="83" type="line" smooth="yes"/>
      <point x="507" y="47"/>
      <point x="457" y="-1"/>
      <point x="415" y="-1" type="qcurve" smooth="yes"/>
      <point x="401" y="-1"/>
      <point x="385" y="2" type="qcurve" smooth="yes"/>
      <point x="319" y="21"/>
      <point x="312" y="104" type="qcurve"/>
      <point x="312" y="123" type="line"/>
      <point x="281" y="116"/>
      <point x="236" y="62" type="qcurve" smooth="yes"/>
      <point x="179" y="-5"/>
    </contour>
    <contour>
      <point x="278" y="212" type="qcurve"/>
      <point x="256" y="199" type="line"/>
      <point x="159" y="326"/>
      <point x="55" y="363" type="qcurve"/>
      <point x="79" y="432" type="line"/>
      <point x="214" y="401"/>
    </contour>
  </outline>
</glyph>
<glyph name="uni1B2B" format="2">
  <advance width="718"/>
  <unicode hex="1B2B"/>
  <anchor x="389" y="0" name="Anchor-4"/>
  <anchor x="369" y="490" name="Anchor-2"/>
  <outline>
    <contour>
      <point x="668" y="0" type="line"/>
      <point x="589" y="0" type="line"/>
      <point x="589" y="288" type="line" smooth="yes"/>
      <point x="589" y="344"/>
      <point x="541" y="344" type="qcurve" smooth="yes"/>
      <point x="493" y="344"/>
      <point x="493" y="288" type="qcurve" smooth="yes"/>
      <point x="493" y="131" type="line" smooth="yes"/>
      <point x="493" y="0"/>
      <point x="353" y="0" type="qcurve" smooth="yes"/>
      <point x="262" y="0" type="line" smooth="yes"/>
      <point x="142" y="2"/>
      <point x="131" y="105" type="qcurve"/>
      <point x="133" y="188"/>
      <point x="226" y="209" type="qcurve"/>
      <point x="194" y="214"/>
      <point x="142" y="258"/>
      <point x="141" y="295" type="qcurve" smooth="yes"/>
      <point x="141" y="300" type="line" smooth="yes"/>
      <point x="141" y="334"/>
      <point x="159" y="359" type="qcurve"/>
      <point x="159" y="360" type="line"/>
      <point x="159" y="359" type="line"/>
      <point x="108" y="356"/>
      <point x="67" y="268"/>
      <point x="66" y="223" type="qcurve"/>
      <point x="39" y="218" type="line"/>
      <point x="30" y="258"/>
      <point x="30" y="291" type="qcurve" smooth="yes"/>
      <point x="30" y="419"/>
      <point x="175" y="419" type="qcurve" smooth="yes"/>
      <point x="356" y="419" type="line"/>
      <point x="356" y="358" type="line"/>
      <point x="273" y="358" type="line" smooth="yes"/>
      <point x="215" y="357"/>
      <point x="215" y="304" type="qcurve" smooth="yes"/>
      <point x="215" y="277"/>
      <point x="260" y="239"/>
      <point x="305" y="239" type="qcurve"/>
      <point x="305" y="181" type="line"/>
      <point x="208" y="169"/>
      <point x="207" y="112" type="qcurve"/>
      <point x="211" y="68"/>
      <point x="266" y="61" type="qcurve"/>
      <point x="352" y="61" type="line" smooth="yes"/>
      <point x="413" y="61"/>
      <point x="413" y="124" type="qcurve" smooth="yes"/>
      <point x="413" y="279" type="line" smooth="yes"/>
      <point x="413" y="417"/>
      <point x="541" y="417" type="qcurve" smooth="yes"/>
      <point x="668" y="417"/>
      <point x="668" y="279" type="qcurve" smooth="yes"/>
    </contour>
  </outline>
</glyph>
<glyph name="uni1B2C" format="2">
  <advance width="887"/>
  <unicode hex="1B2C"/>
  <anchor x="503" y="0" name="Anchor-4"/>
  <anchor x="442" y="490" name="Anchor-2"/>
  <outline>
    <contour>
      <point x="837" y="0" type="line"/>
      <point x="757" y="0" type="line"/>
      <point x="757" y="288" type="line" smooth="yes"/>
      <point x="757" y="344"/>
      <point x="709" y="344" type="qcurve" smooth="yes"/>
      <point x="661" y="344"/>
      <point x="661" y="288" type="qcurve" smooth="yes"/>
      <point x="661" y="137" type="line" smooth="yes"/>
      <point x="661" y="0"/>
      <point x="536" y="0" type="qcurve" smooth="yes"/>
      <point x="419" y="0"/>
      <point x="399" y="152" type="qcurve"/>
      <point x="392" y="86"/>
      <point x="317" y="0"/>
      <point x="247" y="0" type="qcurve" smooth="yes"/>
      <point x="242" y="0" type="line" smooth="yes"/>
      <point x="151" y="2"/>
      <point x="123" y="67" type="qcurve" smooth="yes"/>
      <point x="115" y="89"/>
      <point x="115" y="111" type="qcurve" smooth="yes"/>
      <point x="115" y="146"/>
      <point x="133" y="182" type="qcurve" smooth="yes"/>
      <point x="177" y="274" type="line" smooth="yes"/>
      <point x="186" y="295"/>
      <point x="186" y="312" type="qcurve" smooth="yes"/>
      <point x="186" y="329"/>
      <point x="164" y="354"/>
      <point x="147" y="354" type="qcurve" smooth="yes"/>
      <point x="136" y="353" type="line"/>
      <point x="88" y="342"/>
      <point x="88" y="251" type="qcurve" smooth="yes"/>
      <point x="88" y="231" type="line"/>
      <point x="45" y="228" type="line"/>
      <point x="30" y="270"/>
      <point x="30" y="303" type="qcurve" smooth="yes"/>
      <point x="30" y="353"/>
      <point x="91" y="419"/>
      <point x="149" y="419" type="qcurve" smooth="yes"/>
      <point x="202" y="419"/>
      <point x="261" y="357"/>
      <point x="261" y="310" type="qcurve" smooth="yes"/>
      <point x="261" y="275"/>
      <point x="243" y="233" type="qcurve"/>
      <point x="200" y="154"/>
      <point x="200" y="125" type="qcurve" smooth="yes"/>
      <point x="200" y="74"/>
      <point x="251" y="74" type="qcurve"/>
      <point x="260" y="75" type="line" smooth="yes"/>
      <point x="320" y="79"/>
      <point x="364" y="268"/>
      <point x="365" y="421" type="qcurve"/>
      <point x="432" y="421" type="line"/>
      <point x="435" y="70"/>
      <point x="532" y="70" type="qcurve" smooth="yes"/>
      <point x="581" y="72"/>
      <point x="582" y="130" type="qcurve" smooth="yes"/>
      <point x="582" y="279" type="line" smooth="yes"/>
      <point x="582" y="417"/>
      <point x="709" y="417" type="qcurve" smooth="yes"/>
      <point x="837" y="417"/>
      <point x="837" y="279" type="qcurve" smooth="yes"/>
    </contour>
  </outline>
</glyph>
<glyph name="uni1B2D" format="2">
  <advance width="638"/>
  <unicode hex="1B2D"/>
  <anchor x="349" y="0" name="Anchor-4"/>
  <anchor x="333" y="490" name="Anchor-2"/>
  <outline>
    <contour>
      <point x="83" y="0" type="qcurve"/>
      <point x="69" y="61" type="line"/>
      <point x="170" y="75"/>
      <point x="244" y="157"/>
      <point x="244" y="211" type="qcurve" smooth="yes"/>
      <point x="243" y="285"/>
      <point x="190" y="354"/>
      <point x="147" y="354" type="qcurve" smooth="yes"/>
      <point x="136" y="353" type="line"/>
      <point x="88" y="342"/>
      <point x="88" y="251" type="qcurve" smooth="yes"/>
      <point x="88" y="231" type="line"/>
      <point x="45" y="228" type="line"/>
      <point x="30" y="270"/>
      <point x="30" y="303" type="qcurve" smooth="yes"/>
      <point x="30" y="353"/>
      <point x="91" y="419"/>
      <point x="149" y="419" type="qcurve" smooth="yes"/>
      <point x="219" y="419"/>
      <point x="317" y="318"/>
      <point x="319" y="217" type="qcurve" smooth="yes"/>
      <point x="319" y="122"/>
      <point x="204" y="9"/>
    </contour>
    <contour>
      <point x="246" y="297" type="line"/>
      <point x="308" y="415"/>
      <point x="417" y="417" type="qcurve" smooth="yes"/>
      <point x="587" y="415"/>
      <point x="588" y="234" type="qcurve" smooth="yes"/>
      <point x="588" y="0" type="line"/>
      <point x="509" y="0" type="line"/>
      <point x="509" y="240" type="line" smooth="yes"/>
      <point x="506" y="350"/>
      <point x="415" y="353" type="qcurve"/>
      <point x="335" y="350"/>
      <point x="282" y="259" type="qcurve"/>
    </contour>
  </outline>
</glyph>
<glyph name="uni1B2E" format="2">
  <advance width="908"/>
  <unicode hex="1B2E"/>
  <anchor x="524" y="0" name="Anchor-4"/>
  <anchor x="462" y="490" name="Anchor-2"/>
  <outline>
    <contour>
      <point x="517" y="65" type="qcurve" smooth="yes"/>
      <point x="562" y="65" type="line" smooth="yes"/>
      <point x="603" y="65"/>
      <point x="603" y="114" type="qcurve" smooth="yes"/>
      <point x="603" y="279" type="line" smooth="yes"/>
      <point x="603" y="417"/>
      <point x="731" y="417" type="qcurve" smooth="yes"/>
      <point x="858" y="417"/>
      <point x="858" y="279" type="qcurve" smooth="yes"/>
      <point x="858" y="0" type="line"/>
      <point x="779" y="0" type="line"/>
      <point x="779" y="288" type="line" smooth="yes"/>
      <point x="779" y="344"/>
      <point x="731" y="344" type="qcurve" smooth="yes"/>
      <point x="683" y="344"/>
      <point x="683" y="288" type="qcurve" smooth="yes"/>
      <point x="683" y="126" type="line" smooth="yes"/>
      <point x="683" y="0"/>
      <point x="563" y="0" type="qcurve" smooth="yes"/>
      <point x="516" y="0" type="line" smooth="yes"/>
      <point x="401" y="0"/>
      <point x="398" y="121" type="qcurve" smooth="yes"/>
      <point x="398" y="302" type="line" smooth="yes"/>
      <point x="397" y="350"/>
      <point x="358" y="353" type="qcurve" smooth="yes"/>
      <point x="349" y="354" type="line" smooth="yes"/>
      <point x="324" y="354"/>
      <point x="293" y="321"/>
      <point x="293" y="301" type="qcurve" smooth="yes"/>
      <point x="293" y="0" type="line"/>
      <point x="213" y="0" type="line"/>
      <point x="213" y="294" type="line" smooth="yes"/>
      <point x="210" y="350"/>
      <point x="162" y="350" type="qcurve" smooth="yes"/>
      <point x="102" y="350"/>
      <point x="102" y="267" type="qcurve"/>
      <point x="106" y="209"/>
      <point x="138" y="179" type="qcurve"/>
      <point x="116" y="152" type="line"/>
      <point x="72" y="173"/>
      <point x="30" y="249"/>
      <point x="30" y="290" type="qcurve" smooth="yes"/>
      <point x="30" y="327"/>
      <point x="49" y="361" type="qcurve" smooth="yes"/>
      <point x="80" y="419"/>
      <point x="164" y="419" type="qcurve" smooth="yes"/>
      <point x="231" y="419"/>
      <point x="263" y="384" type="qcurve"/>
      <point x="303" y="416"/>
      <point x="356" y="416" type="qcurve" smooth="yes"/>
      <point x="476" y="416"/>
      <point x="478" y="303" type="qcurve" smooth="yes"/>
      <point x="478" y="116" type="line" smooth="yes"/>
      <point x="478" y="67"/>
    </contour>
  </outline>
</glyph>
<glyph name="uni1B2F" format="2">
  <advance width="676"/>
  <unicode hex="1B2F"/>
  <anchor x="368" y="0" name="Anchor-4"/>
  <anchor x="332" y="490" name="Anchor-2"/>
  <outline>
    <contour>
      <point x="626" y="0" type="line"/>
      <point x="547" y="0" type="line"/>
      <point x="547" y="274" type="line" smooth="yes"/>
      <point x="544" y="350"/>
      <point x="477" y="353" type="qcurve" smooth="yes"/>
      <point x="427" y="353" type="line"/>
      <point x="484" y="292"/>
      <point x="489" y="189" type="qcurve"/>
      <point x="489" y="167" type="line" smooth="yes"/>
      <point x="489" y="83"/>
      <point x="418" y="3"/>
      <point x="362" y="0" type="qcurve" smooth="yes"/>
      <point x="243" y="0" type="line" smooth="yes"/>
      <point x="152" y="0"/>
      <point x="123" y="67" type="qcurve" smooth="yes"/>
      <point x="115" y="89"/>
      <point x="115" y="111" type="qcurve" smooth="yes"/>
      <point x="115" y="146"/>
      <point x="133" y="182" type="qcurve" smooth="yes"/>
      <point x="177" y="274" type="line" smooth="yes"/>
      <point x="186" y="295"/>
      <point x="186" y="312" type="qcurve" smooth="yes"/>
      <point x="186" y="329"/>
      <point x="164" y="354"/>
      <point x="147" y="354" type="qcurve" smooth="yes"/>
      <point x="136" y="353" type="line"/>
      <point x="88" y="342"/>
      <point x="88" y="251" type="qcurve" smooth="yes"/>
      <point x="88" y="231" type="line"/>
      <point x="45" y="228" type="line"/>
      <point x="30" y="270"/>
      <point x="30" y="303" type="qcurve" smooth="yes"/>
      <point x="30" y="353"/>
      <point x="91" y="419"/>
      <point x="149" y="419" type="qcurve" smooth="yes"/>
      <point x="202" y="419"/>
      <point x="261" y="357"/>
      <point x="261" y="310" type="qcurve" smooth="yes"/>
      <point x="261" y="275"/>
      <point x="243" y="233" type="qcurve"/>
      <point x="197" y="149"/>
      <point x="197" y="110" type="qcurve" smooth="yes"/>
      <point x="197" y="65"/>
      <point x="244" y="65" type="qcurve" smooth="yes"/>
      <point x="343" y="65" type="line"/>
      <point x="415" y="69"/>
      <point x="417" y="161" type="qcurve" smooth="yes"/>
      <point x="415" y="334"/>
      <point x="296" y="373" type="qcurve"/>
      <point x="302" y="417" type="line"/>
      <point x="479" y="417" type="line" smooth="yes"/>
      <point x="624" y="415"/>
      <point x="626" y="269" type="qcurve" smooth="yes"/>
    </contour>
  </outline>
</glyph>
<glyph name="uni1B30" format="2">
  <advance width="824"/>
  <unicode hex="1B30"/>
  <anchor x="472" y="0" name="Anchor-4"/>
  <anchor x="424" y="490" name="Anchor-2"/>
  <outline>
    <contour>
      <point x="441" y="15" type="line"/>
      <point x="396" y="171"/>
      <point x="304" y="232" type="qcurve"/>
      <point x="354" y="295" type="line"/>
      <point x="466" y="223"/>
      <point x="466" y="34" type="qcurve" smooth="yes"/>
      <point x="466" y="20" type="line"/>
    </contour>
    <contour>
      <point x="774" y="0" type="line"/>
      <point x="695" y="0" type="line"/>
      <point x="695" y="288" type="line" smooth="yes"/>
      <point x="695" y="349"/>
      <point x="655" y="349" type="qcurve" smooth="yes"/>
      <point x="653" y="349" type="line" smooth="yes"/>
      <point x="610" y="347"/>
      <point x="590" y="299" type="qcurve"/>
      <point x="590" y="0" type="line"/>
      <point x="510" y="0" type="line"/>
      <point x="510" y="252" type="line" smooth="yes"/>
      <point x="509" y="343"/>
      <point x="406" y="345" type="qcurve" smooth="yes"/>
      <point x="351" y="345"/>
      <point x="255" y="287"/>
      <point x="242" y="271" type="qcurve"/>
      <point x="233" y="201"/>
      <point x="233" y="148" type="qcurve" smooth="yes"/>
      <point x="233" y="65"/>
      <point x="301" y="64" type="qcurve" smooth="yes"/>
      <point x="364" y="64" type="line"/>
      <point x="364" y="0" type="line"/>
      <point x="292" y="0" type="line" smooth="yes"/>
      <point x="150" y="0"/>
      <point x="150" y="128" type="qcurve" smooth="yes"/>
      <point x="151" y="167"/>
      <point x="161" y="276"/>
      <point x="161" y="297" type="qcurve" smooth="yes"/>
      <point x="161" y="354"/>
      <point x="132" y="354" type="qcurve" smooth="yes"/>
      <point x="122" y="353" type="line"/>
      <point x="88" y="342"/>
      <point x="88" y="251" type="qcurve" smooth="yes"/>
      <point x="88" y="231" type="line"/>
      <point x="45" y="228" type="line"/>
      <point x="30" y="270"/>
      <point x="30" y="303" type="qcurve" smooth="yes"/>
      <point x="30" y="353"/>
      <point x="91" y="419"/>
      <point x="134" y="419" type="qcurve" smooth="yes"/>
      <point x="214" y="419"/>
      <point x="234" y="349" type="qcurve"/>
      <point x="306" y="415"/>
      <point x="408" y="417" type="qcurve" smooth="yes"/>
      <point x="506" y="417"/>
      <point x="556" y="356" type="qcurve"/>
      <point x="606" y="415"/>
      <point x="665" y="415" type="qcurve" smooth="yes"/>
      <point x="772" y="415"/>
      <point x="774" y="288" type="qcurve" smooth="yes"/>
    </contour>
  </outline>
</glyph>
<glyph name="uni1B31" format="2">
  <advance width="757"/>
  <unicode hex="1B31"/>
  <anchor x="408" y="0" name="Anchor-4"/>
  <anchor x="363" y="490" name="Anchor-2"/>
  <outline>
    <contour>
      <point x="707" y="0" type="line"/>
      <point x="627" y="0" type="line"/>
      <point x="627" y="288" type="line" smooth="yes"/>
      <point x="627" y="344"/>
      <point x="579" y="344" type="qcurve" smooth="yes"/>
      <point x="531" y="344"/>
      <point x="531" y="288" type="qcurve" smooth="yes"/>
      <point x="531" y="102" type="line" smooth="yes"/>
      <point x="531" y="0"/>
      <point x="421" y="0" type="qcurve" smooth="yes"/>
      <point x="243" y="0" type="line" smooth="yes"/>
      <point x="152" y="0"/>
      <point x="123" y="67" type="qcurve" smooth="yes"/>
      <point x="115" y="89"/>
      <point x="115" y="111" type="qcurve" smooth="yes"/>
      <point x="115" y="146"/>
      <point x="133" y="182" type="qcurve" smooth="yes"/>
      <point x="177" y="274" type="line" smooth="yes"/>
      <point x="186" y="295"/>
      <point x="186" y="312" type="qcurve" smooth="yes"/>
      <point x="186" y="329"/>
      <point x="164" y="354"/>
      <point x="147" y="354" type="qcurve" smooth="yes"/>
      <point x="136" y="353" type="line"/>
      <point x="88" y="342"/>
      <point x="88" y="251" type="qcurve" smooth="yes"/>
      <point x="88" y="231" type="line"/>
      <point x="45" y="228" type="line"/>
      <point x="30" y="270"/>
      <point x="30" y="303" type="qcurve" smooth="yes"/>
      <point x="30" y="353"/>
      <point x="91" y="419"/>
      <point x="149" y="419" type="qcurve" smooth="yes"/>
      <point x="202" y="419"/>
      <point x="261" y="357"/>
      <point x="261" y="310" type="qcurve" smooth="yes"/>
      <point x="261" y="275"/>
      <point x="243" y="233" type="qcurve"/>
      <point x="197" y="149"/>
      <point x="197" y="120" type="qcurve" smooth="yes"/>
      <point x="197" y="75"/>
      <point x="244" y="75" type="qcurve" smooth="yes"/>
      <point x="410" y="75" type="line" smooth="yes"/>
      <point x="452" y="75"/>
      <point x="452" y="124" type="qcurve" smooth="yes"/>
      <point x="452" y="279" type="line" smooth="yes"/>
      <point x="452" y="417"/>
      <point x="579" y="417" type="qcurve" smooth="yes"/>
      <point x="707" y="417"/>
      <point x="707" y="279" type="qcurve" smooth="yes"/>
    </contour>
    <contour>
      <point x="401" y="15" type="line"/>
      <point x="356" y="171"/>
      <point x="264" y="232" type="qcurve"/>
      <point x="314" y="295" type="line"/>
      <point x="426" y="223"/>
      <point x="426" y="34" type="qcurve" smooth="yes"/>
      <point x="426" y="20" type="line"/>
    </contour>
  </outline>
</glyph>
<glyph name="uni1B32" format="2">
  <advance width="786"/>
  <unicode hex="1B32"/>
  <anchor x="443" y="0" name="Anchor-4"/>
  <anchor x="393" y="490" name="Anchor-2"/>
  <outline>
    <contour>
      <point x="182" y="51" type="qcurve"/>
      <point x="186" y="52" type="line" smooth="yes"/>
      <point x="213" y="55"/>
      <point x="213" y="104" type="qcurve"/>
      <point x="192" y="104"/>
      <point x="165" y="83"/>
      <point x="165" y="69" type="qcurve" smooth="yes"/>
      <point x="165" y="51"/>
    </contour>
    <contour>
      <point x="481" y="172" type="qcurve" smooth="yes"/>
      <point x="481" y="279" type="line" smooth="yes"/>
      <point x="481" y="417"/>
      <point x="609" y="417" type="qcurve" smooth="yes"/>
      <point x="736" y="417"/>
      <point x="736" y="279" type="qcurve" smooth="yes"/>
      <point x="736" y="0" type="line"/>
      <point x="656" y="0" type="line"/>
      <point x="656" y="288" type="line" smooth="yes"/>
      <point x="656" y="344"/>
      <point x="609" y="344" type="qcurve" smooth="yes"/>
      <point x="561" y="344"/>
      <point x="561" y="288" type="qcurve" smooth="yes"/>
      <point x="561" y="170" type="line"/>
      <point x="557" y="2"/>
      <point x="412" y="-1" type="qcurve" smooth="yes"/>
      <point x="347" y="0"/>
      <point x="280" y="65" type="qcurve"/>
      <point x="259" y="2"/>
      <point x="194" y="-4" type="qcurve"/>
      <point x="181" y="-4" type="line" smooth="yes"/>
      <point x="148" y="-4"/>
      <point x="107" y="33"/>
      <point x="106" y="67" type="qcurve" smooth="yes"/>
      <point x="106" y="106"/>
      <point x="162" y="160"/>
      <point x="213" y="161" type="qcurve"/>
      <point x="213" y="294" type="line" smooth="yes"/>
      <point x="210" y="350"/>
      <point x="162" y="350" type="qcurve" smooth="yes"/>
      <point x="102" y="350"/>
      <point x="102" y="267" type="qcurve"/>
      <point x="106" y="209"/>
      <point x="138" y="179" type="qcurve"/>
      <point x="116" y="152" type="line"/>
      <point x="72" y="173"/>
      <point x="30" y="249"/>
      <point x="30" y="290" type="qcurve" smooth="yes"/>
      <point x="30" y="327"/>
      <point x="49" y="361" type="qcurve" smooth="yes"/>
      <point x="80" y="419"/>
      <point x="164" y="419" type="qcurve" smooth="yes"/>
      <point x="291" y="419"/>
      <point x="293" y="294" type="qcurve" smooth="yes"/>
      <point x="293" y="133" type="line"/>
      <point x="367" y="66"/>
      <point x="414" y="66" type="qcurve" smooth="yes"/>
      <point x="419" y="66" type="line"/>
      <point x="481" y="70"/>
    </contour>
  </outline>
</glyph>
<glyph name="uni1B33" format="2">
  <advance width="867"/>
  <unicode hex="1B33"/>
  <anchor x="483" y="0" name="Anchor-4"/>
  <anchor x="438" y="490" name="Anchor-2"/>
  <outline>
    <contour>
      <point x="379" y="109" type="line"/>
      <point x="379" y="279" type="line" smooth="yes"/>
      <point x="379" y="417"/>
      <point x="508" y="417" type="qcurve" smooth="yes"/>
      <point x="585" y="417"/>
      <point x="614" y="370" type="qcurve"/>
      <point x="648" y="410"/>
      <point x="703" y="415" type="qcurve"/>
      <point x="817" y="415"/>
      <point x="817" y="303" type="qcurve" smooth="yes"/>
      <point x="817" y="0" type="line"/>
      <point x="738" y="0" type="line"/>
      <point x="738" y="293" type="line" smooth="yes"/>
      <point x="738" y="349"/>
      <point x="693" y="349" type="qcurve" smooth="yes"/>
      <point x="653" y="347"/>
      <point x="634" y="309" type="qcurve"/>
      <point x="634" y="0" type="line"/>
      <point x="554" y="0" type="line"/>
      <point x="554" y="288" type="line" smooth="yes"/>
      <point x="554" y="344"/>
      <point x="506" y="344" type="qcurve" smooth="yes"/>
      <point x="458" y="344"/>
      <point x="458" y="286" type="qcurve" smooth="yes"/>
      <point x="458" y="97" type="line"/>
    </contour>
    <contour>
      <point x="458" y="288" type="line"/>
      <point x="458" y="102" type="line" smooth="yes"/>
      <point x="458" y="0"/>
      <point x="348" y="0" type="qcurve" smooth="yes"/>
      <point x="243" y="0" type="line" smooth="yes"/>
      <point x="152" y="0"/>
      <point x="123" y="67" type="qcurve" smooth="yes"/>
      <point x="115" y="89"/>
      <point x="115" y="111" type="qcurve" smooth="yes"/>
      <point x="115" y="146"/>
      <point x="133" y="182" type="qcurve" smooth="yes"/>
      <point x="177" y="274" type="line" smooth="yes"/>
      <point x="186" y="295"/>
      <point x="186" y="312" type="qcurve" smooth="yes"/>
      <point x="186" y="329"/>
      <point x="164" y="354"/>
      <point x="147" y="354" type="qcurve" smooth="yes"/>
      <point x="136" y="353" type="line"/>
      <point x="88" y="342"/>
      <point x="88" y="251" type="qcurve" smooth="yes"/>
      <point x="88" y="231" type="line"/>
      <point x="45" y="228" type="line"/>
      <point x="30" y="270"/>
      <point x="30" y="303" type="qcurve" smooth="yes"/>
      <point x="30" y="353"/>
      <point x="91" y="419"/>
      <point x="149" y="419" type="qcurve" smooth="yes"/>
      <point x="202" y="419"/>
      <point x="261" y="357"/>
      <point x="261" y="310" type="qcurve" smooth="yes"/>
      <point x="261" y="275"/>
      <point x="243" y="233" type="qcurve"/>
      <point x="197" y="149"/>
      <point x="197" y="110" type="qcurve" smooth="yes"/>
      <point x="197" y="65"/>
      <point x="244" y="65" type="qcurve" smooth="yes"/>
      <point x="337" y="65" type="line" smooth="yes"/>
      <point x="379" y="65"/>
      <point x="379" y="114" type="qcurve" smooth="yes"/>
      <point x="379" y="279" type="line"/>
    </contour>
  </outline>
</glyph>
<glyph name="uni1B34" format="2">
  <advance width="0"/>
  <unicode hex="1B34"/>
  <anchor x="-341" y="530" name="_Anchor-2"/>
  <outline>
    <contour>
      <point x="-298" y="698"/>
      <point x="-298" y="681" type="qcurve" smooth="yes"/>
      <point x="-298" y="664"/>
      <point x="-322" y="640"/>
      <point x="-339" y="640" type="qcurve" smooth="yes"/>
      <point x="-356" y="640"/>
      <point x="-380" y="664"/>
      <point x="-380" y="681" type="qcurve" smooth="yes"/>
      <point x="-380" y="698"/>
      <point x="-356" y="721"/>
      <point x="-339" y="721" type="qcurve" smooth="yes"/>
      <point x="-322" y="721"/>
    </contour>
    <contour>
      <point x="-363" y="584"/>
      <point x="-363" y="568" type="qcurve" smooth="yes"/>
      <point x="-363" y="550"/>
      <point x="-387" y="527"/>
      <point x="-404" y="527" type="qcurve" smooth="yes"/>
      <point x="-421" y="527"/>
      <point x="-445" y="550"/>
      <point x="-445" y="568" type="qcurve" smooth="yes"/>
      <point x="-445" y="584"/>
      <point x="-421" y="608"/>
      <point x="-404" y="608" type="qcurve" smooth="yes"/>
      <point x="-387" y="608"/>
    </contour>
    <contour>
      <point x="-232" y="584"/>
      <point x="-232" y="568" type="qcurve" smooth="yes"/>
      <point x="-232" y="550"/>
      <point x="-257" y="527"/>
      <point x="-273" y="527" type="qcurve" smooth="yes"/>
      <point x="-291" y="527"/>
      <point x="-314" y="550"/>
      <point x="-314" y="568" type="qcurve" smooth="yes"/>
      <point x="-314" y="584"/>
      <point x="-291" y="608"/>
      <point x="-273" y="608" type="qcurve" smooth="yes"/>
      <point x="-257" y="608"/>
    </contour>
  </outline>
</glyph>
<glyph name="uni1B35" format="2">
  <advance width="427"/>
  <unicode hex="1B35"/>
  <outline>
    <contour>
      <point x="219" y="-6" type="qcurve"/>
      <point x="95" y="-4"/>
      <point x="95" y="136" type="qcurve" smooth="yes"/>
      <point x="95" y="155" type="line"/>
      <point x="133" y="160" type="line"/>
      <point x="148" y="72"/>
      <point x="191" y="65" type="qcurve"/>
      <point x="208" y="64" type="line" smooth="yes"/>
      <point x="254" y="64"/>
      <point x="312" y="135"/>
      <point x="315" y="206" type="qcurve" smooth="yes"/>
      <point x="316" y="217" type="line"/>
      <point x="316" y="282"/>
      <point x="247" y="354"/>
      <point x="185" y="354" type="qcurve" smooth="yes"/>
      <point x="169" y="353" type="line" smooth="yes"/>
      <point x="96" y="348"/>
      <point x="39" y="279" type="qcurve"/>
      <point x="10" y="308" type="line"/>
      <point x="82" y="417"/>
      <point x="190" y="417" type="qcurve" smooth="yes"/>
      <point x="399" y="414"/>
      <point x="399" y="211" type="qcurve" smooth="yes"/>
      <point x="399" y="116"/>
      <point x="308" y="-2"/>
    </contour>
  </outline>
</glyph>
<glyph name="uni1B36" format="2">
  <advance width="0"/>
  <unicode hex="1B36"/>
  <anchor x="-360" y="512" name="_Anchor-2"/>
  <outline>
    <contour>
      <point x="-409" y="500" type="line"/>
      <point x="-595" y="607" type="line"/>
      <point x="-559" y="662" type="line"/>
      <point x="-474" y="612" type="line"/>
      <point x="-484" y="632"/>
      <point x="-484" y="656" type="qcurve" smooth="yes"/>
      <point x="-484" y="702"/>
      <point x="-457" y="743" type="qcurve" smooth="yes"/>
      <point x="-415" y="806"/>
      <point x="-323" y="806" type="qcurve" smooth="yes"/>
      <point x="-281" y="806"/>
      <point x="-241" y="788" type="qcurve" smooth="yes"/>
      <point x="-164" y="752"/>
      <point x="-164" y="653" type="qcurve" smooth="yes"/>
      <point x="-164" y="606"/>
      <point x="-221" y="526"/>
      <point x="-263" y="501" type="qcurve"/>
      <point x="-280" y="518" type="line"/>
      <point x="-231" y="571"/>
      <point x="-231" y="635" type="qcurve" smooth="yes"/>
      <point x="-231" y="687"/>
      <point x="-286" y="737"/>
      <point x="-328" y="737" type="qcurve" smooth="yes"/>
      <point x="-367" y="737"/>
      <point x="-425" y="683"/>
      <point x="-425" y="632" type="qcurve" smooth="yes"/>
      <point x="-425" y="594"/>
      <point x="-401" y="571" type="qcurve"/>
      <point x="-374" y="554" type="line"/>
    </contour>
  </outline>
</glyph>
<glyph name="uni1B38" format="2">
  <advance width="0"/>
  <unicode hex="1B38"/>
  <anchor x="-59" y="0" name="_Anchor-5"/>
  <outline>
    <contour>
      <point x="-129" y="-145" type="line"/>
      <point x="-261" y="-452"/>
      <point x="-261" y="-635" type="qcurve" smooth="yes"/>
      <point x="-259" y="-708"/>
      <point x="-226" y="-776"/>
      <point x="-191" y="-776" type="qcurve" smooth="yes"/>
      <point x="-175" y="-776"/>
      <point x="-160" y="-765" type="qcurve" smooth="yes"/>
      <point x="-129" y="-742"/>
      <point x="-129" y="-688" type="qcurve" smooth="yes"/>
    </contour>
    <contour>
      <point x="-129" y="0" type="qcurve"/>
      <point x="-50" y="0" type="line"/>
      <point x="-50" y="-674" type="line" smooth="yes"/>
      <point x="-50" y="-801"/>
      <point x="-129" y="-839" type="qcurve" smooth="yes"/>
      <point x="-164" y="-856"/>
      <point x="-197" y="-856" type="qcurve" smooth="yes"/>
      <point x="-238" y="-856"/>
      <point x="-276" y="-829" type="qcurve" smooth="yes"/>
      <point x="-345" y="-779"/>
      <point x="-345" y="-642" type="qcurve" smooth="yes"/>
      <point x="-345" y="-502"/>
      <point x="-288" y="-352" type="qcurve" smooth="yes"/>
      <point x="-233" y="-209"/>
    </contour>
  </outline>
</glyph>
<glyph name="uni1B39" format="2">
  <advance width="0"/>
  <unicode hex="1B39"/>
  <anchor x="-59" y="0" name="_Anchor-5"/>
  <outline>
    <contour>
      <point x="-305" y="-860" type="qcurve" smooth="yes"/>
      <point x="-313" y="-860" type="line" smooth="yes"/>
      <point x="-431" y="-860"/>
      <point x="-490" y="-729" type="qcurve"/>
      <point x="-461" y="-710" type="line"/>
      <point x="-388" y="-786"/>
      <point x="-321" y="-786" type="qcurve" smooth="yes"/>
      <point x="-316" y="-786" type="line" smooth="yes"/>
      <point x="-256" y="-785"/>
      <point x="-204" y="-709"/>
      <point x="-204" y="-651" type="qcurve" smooth="yes"/>
      <point x="-204" y="-561"/>
      <point x="-369" y="-323"/>
      <point x="-374" y="-263" type="qcurve"/>
      <point x="-374" y="-256" type="line" smooth="yes"/>
      <point x="-374" y="-161"/>
      <point x="-264" y="-66" type="qcurve"/>
      <point x="-235" y="-89" type="line"/>
      <point x="-305" y="-174"/>
      <point x="-305" y="-226" type="qcurve" smooth="yes"/>
      <point x="-305" y="-275"/>
      <point x="-123" y="-530"/>
      <point x="-113" y="-651" type="qcurve"/>
      <point x="-113" y="-744"/>
      <point x="-217" y="-858"/>
    </contour>
  </outline>
</glyph>
<glyph name="uni1B3A" format="2">
  <advance width="0"/>
  <unicode hex="1B3A"/>
  <anchor x="-59" y="0" name="_Anchor-5"/>
  <outline>
    <contour>
      <point x="-382" y="-886" type="qcurve" smooth="yes"/>
      <point x="-556" y="-886"/>
      <point x="-767" y="-673"/>
      <point x="-768" y="-479" type="qcurve" smooth="yes"/>
      <point x="-768" y="-459" type="line"/>
      <point x="-758" y="-272"/>
      <point x="-646" y="-99" type="qcurve"/>
      <point x="-608" y="-115" type="line"/>
      <point x="-682" y="-296"/>
      <point x="-692" y="-460" type="qcurve"/>
      <point x="-692" y="-476" type="line"/>
      <point x="-686" y="-617"/>
      <point x="-523" y="-796"/>
      <point x="-377" y="-796" type="qcurve" smooth="yes"/>
      <point x="-293" y="-794"/>
      <point x="-142" y="-712"/>
      <point x="-70" y="-535"/>
      <point x="-70" y="-411" type="qcurve" smooth="yes"/>
      <point x="-70" y="-385" type="line"/>
      <point x="-75" y="-244"/>
      <point x="-133" y="-39" type="qcurve"/>
      <point x="-84" y="-25" type="line"/>
      <point x="4" y="-249"/>
      <point x="9" y="-409" type="qcurve"/>
      <point x="9" y="-439" type="line" smooth="yes"/>
      <point x="9" y="-719"/>
      <point x="-155" y="-822" type="qcurve" smooth="yes"/>
      <point x="-259" y="-886"/>
    </contour>
    <contour>
      <point x="-362" y="-824" type="qcurve"/>
      <point x="-389" y="-834" type="line"/>
      <point x="-495" y="-631"/>
      <point x="-628" y="-495" type="qcurve"/>
      <point x="-575" y="-433" type="line"/>
      <point x="-440" y="-540"/>
    </contour>
  </outline>
</glyph>
<glyph name="uni1B3E" format="2">
  <advance width="484"/>
  <unicode hex="1B3E"/>
  <outline>
    <contour>
      <point x="373" y="-600" type="line"/>
      <point x="266" y="-486"/>
      <point x="266" y="-279" type="qcurve" smooth="yes"/>
      <point x="266" y="-167"/>
      <point x="298" y="-27" type="qcurve" smooth="yes"/>
      <point x="338" y="154" type="line" smooth="yes"/>
      <point x="354" y="227"/>
      <point x="354" y="254" type="qcurve" smooth="yes"/>
      <point x="354" y="345"/>
      <point x="272" y="345" type="qcurve" smooth="yes"/>
      <point x="266" y="345" type="line" smooth="yes"/>
      <point x="228" y="344"/>
      <point x="170" y="269"/>
      <point x="156" y="200" type="qcurve"/>
      <point x="145" y="198" type="line"/>
      <point x="30" y="377" type="line"/>
      <point x="82" y="412" type="line"/>
      <point x="143" y="323" type="line"/>
      <point x="188" y="423"/>
      <point x="292" y="423" type="qcurve" smooth="yes"/>
      <point x="350" y="423"/>
      <point x="434" y="347"/>
      <point x="434" y="274" type="qcurve" smooth="yes"/>
      <point x="434" y="226"/>
      <point x="417" y="160" type="qcurve" smooth="yes"/>
      <point x="379" y="-25" type="line" smooth="yes"/>
      <point x="343" y="-198"/>
      <point x="343" y="-332" type="qcurve" smooth="yes"/>
      <point x="343" y="-484"/>
      <point x="395" y="-585" type="qcurve"/>
    </contour>
  </outline>
</glyph>
<glyph name="uni1B42" format="2">
  <advance width="0"/>
  <unicode hex="1B42"/>
  <anchor x="-316" y="504" name="_Anchor-2"/>
  <outline>
    <contour>
      <point x="-507" y="500" type="qcurve"/>
      <point x="-692" y="607" type="line"/>
      <point x="-657" y="662" type="line"/>
      <point x="-527" y="587" type="line"/>
      <point x="-459" y="840"/>
      <point x="-211" y="840" type="qcurve" smooth="yes"/>
      <point x="-67" y="840"/>
      <point x="13" y="720" type="qcurve"/>
      <point x="7" y="682" type="line"/>
      <point x="-425" y="501" type="line"/>
      <point x="-446" y="545" type="line"/>
      <point x="-92" y="717" type="line"/>
      <point x="-135" y="770"/>
      <point x="-216" y="772" type="qcurve"/>
      <point x="-345" y="766"/>
      <point x="-475" y="607"/>
    </contour>
  </outline>
</glyph>
<glyph name="uni1B44" format="2">
  <advance width="223"/>
  <unicode hex="1B44"/>
  <outline>
    <contour>
      <point x="87" y="-893" type="line"/>
      <point x="-39" y="-785"/>
      <point x="-39" y="-489" type="qcurve" smooth="yes"/>
      <point x="-39" y="-214"/>
      <point x="70" y="225" type="qcurve"/>
      <point x="108" y="401"/>
      <point x="108" y="475" type="qcurve" smooth="yes"/>
      <point x="108" y="608"/>
      <point x="-8" y="608" type="qcurve" smooth="yes"/>
      <point x="-15" y="608" type="line"/>
      <point x="-128" y="604"/>
      <point x="-134" y="449" type="qcurve"/>
      <point x="-172" y="449" type="line"/>
      <point x="-176" y="479"/>
      <point x="-176" y="504" type="qcurve" smooth="yes"/>
      <point x="-176" y="587"/>
      <point x="-78" y="692"/>
      <point x="9" y="692" type="qcurve" smooth="yes"/>
      <point x="196" y="692"/>
      <point x="196" y="479" type="qcurve" smooth="yes"/>
      <point x="196" y="391"/>
      <point x="148" y="199" type="qcurve" smooth="yes"/>
      <point x="40" y="-264"/>
      <point x="40" y="-547" type="qcurve" smooth="yes"/>
      <point x="40" y="-756"/>
      <point x="114" y="-868" type="qcurve"/>
    </contour>
  </outline>
</glyph>
<glyph name="uni1B4B" format="2">
  <advance width="1424"/>
  <unicode hex="1B4B"/>
  <anchor x="712" y="0" name="Anchor-4"/>
  <anchor x="716" y="490" name="Anchor-2"/>
  <outline>
    <contour>
      <point x="182" y="51" type="qcurve"/>
      <point x="186" y="52" type="line" smooth="yes"/>
      <point x="213" y="55"/>
      <point x="213" y="104" type="qcurve"/>
      <point x="192" y="104"/>
      <point x="165" y="83"/>
      <point x="165" y="69" type="qcurve" smooth="yes"/>
      <point x="165" y="51"/>
    </contour>
    <contour>
      <point x="181" y="-4" type="line" smooth="yes"/>
      <point x="148" y="-4"/>
      <point x="107" y="33"/>
      <point x="106" y="67" type="qcurve" smooth="yes"/>
      <point x="106" y="106"/>
      <point x="162" y="160"/>
      <point x="213" y="161" type="qcurve"/>
      <point x="213" y="294" type="line" smooth="yes"/>
      <point x="210" y="350"/>
      <point x="162" y="350" type="qcurve" smooth="yes"/>
      <point x="102" y="350"/>
      <point x="102" y="267" type="qcurve"/>
      <point x="106" y="209"/>
      <point x="138" y="179" type="qcurve"/>
      <point x="116" y="152" type="line"/>
      <point x="72" y="173"/>
      <point x="30" y="249"/>
      <point x="30" y="290" type="qcurve" smooth="yes"/>
      <point x="30" y="327"/>
      <point x="49" y="361" type="qcurve" smooth="yes"/>
      <point x="80" y="419"/>
      <point x="164" y="419" type="qcurve" smooth="yes"/>
      <point x="291" y="419"/>
      <point x="293" y="294" type="qcurve" smooth="yes"/>
      <point x="293" y="133" type="line"/>
      <point x="367" y="66"/>
      <point x="414" y="66" type="qcurve" smooth="yes"/>
      <point x="419" y="66" type="line"/>
      <point x="481" y="70"/>
      <point x="481" y="172" type="qcurve" smooth="yes"/>
      <point x="481" y="279" type="line" smooth="yes"/>
      <point x="481" y="417"/>
      <point x="609" y="417" type="qcurve" smooth="yes"/>
      <point x="736" y="417"/>
      <point x="736" y="279" type="qcurve" smooth="yes"/>
      <point x="736" y="125" type="line" smooth="yes"/>
      <point x="738" y="74"/>
      <point x="788" y="74" type="qcurve"/>
      <point x="798" y="75" type="line" smooth="yes"/>
      <point x="857" y="79"/>
      <point x="901" y="268"/>
      <point x="902" y="421" type="qcurve"/>
      <point x="969" y="421" type="line"/>
      <point x="972" y="70"/>
      <point x="1069" y="70" type="qcurve" smooth="yes"/>
      <point x="1118" y="72"/>
      <point x="1119" y="130" type="qcurve" smooth="yes"/>
      <point x="1119" y="279" type="line" smooth="yes"/>
      <point x="1119" y="417"/>
      <point x="1246" y="417" type="qcurve" smooth="yes"/>
      <point x="1374" y="417"/>
      <point x="1374" y="279" type="qcurve" smooth="yes"/>
      <point x="1374" y="0" type="line"/>
      <point x="1294" y="0" type="line"/>
      <point x="1294" y="288" type="line" smooth="yes"/>
      <point x="1294" y="344"/>
      <point x="1246" y="344" type="qcurve" smooth="yes"/>
      <point x="1198" y="344"/>
      <point x="1198" y="288" type="qcurve" smooth="yes"/>
      <point x="1198" y="137" type="line" smooth="yes"/>
      <point x="1198" y="0"/>
      <point x="1073" y="0" type="qcurve" smooth="yes"/>
      <point x="956" y="0"/>
      <point x="936" y="152" type="qcurve"/>
      <point x="929" y="86"/>
      <point x="854" y="0"/>
      <point x="784" y="0" type="qcurve" smooth="yes"/>
      <point x="779" y="0" type="line" smooth="yes"/>
      <point x="658" y="2"/>
      <point x="656" y="121" type="qcurve" smooth="yes"/>
      <point x="656" y="288" type="line" smooth="yes"/>
      <point x="656" y="344"/>
      <point x="609" y="344" type="qcurve" smooth="yes"/>
      <point x="561" y="344"/>
      <point x="561" y="288" type="qcurve" smooth="yes"/>
      <point x="561" y="170" type="line"/>
      <point x="557" y="2"/>
      <point x="412" y="-1" type="qcurve" smooth="yes"/>
      <point x="347" y="0"/>
      <point x="280" y="65" type="qcurve"/>
      <point x="259" y="2"/>
      <point x="194" y="-4" type="qcurve"/>
    </contour>
  </outline>
</glyph>
<glyph name="uni1B50" format="2">
  <advance width="441"/>
  <unicode hex="1B50"/>
  <outline>
    <contour>
      <point x="227" y="-2" type="qcurve" smooth="yes"/>
      <point x="138" y="-2"/>
      <point x="40" y="116"/>
      <point x="40" y="208" type="qcurve" smooth="yes"/>
      <point x="40" y="299"/>
      <point x="138" y="417"/>
      <point x="227" y="417" type="qcurve" smooth="yes"/>
      <point x="316" y="417"/>
      <point x="414" y="299"/>
      <point x="414" y="208" type="qcurve" smooth="yes"/>
      <point x="414" y="116"/>
      <point x="316" y="-2"/>
    </contour>
    <contour>
      <point x="336" y="133"/>
      <point x="336" y="209" type="qcurve" smooth="yes"/>
      <point x="336" y="285"/>
      <point x="275" y="353"/>
      <point x="228" y="353" type="qcurve" smooth="yes"/>
      <point x="182" y="353"/>
      <point x="120" y="285"/>
      <point x="120" y="209" type="qcurve" smooth="yes"/>
      <point x="120" y="133"/>
      <point x="182" y="65"/>
      <point x="228" y="65" type="qcurve" smooth="yes"/>
      <point x="275" y="65"/>
    </contour>
  </outline>
</glyph>
<glyph name="uni1B51" format="2">
  <advance width="1028"/>
  <unicode hex="1B51"/>
  <outline>
    <contour>
      <point x="642" y="43" type="line"/>
      <point x="714" y="117"/>
      <point x="714" y="222" type="qcurve" smooth="yes"/>
      <point x="714" y="233" type="line"/>
      <point x="791" y="271" type="line"/>
      <point x="793" y="234" type="line"/>
      <point x="793" y="144"/>
      <point x="746" y="85" type="qcurve"/>
      <point x="798" y="104"/>
      <point x="889" y="246"/>
      <point x="889" y="347" type="qcurve" smooth="yes"/>
      <point x="888" y="449"/>
      <point x="829" y="544"/>
      <point x="804" y="544" type="qcurve" smooth="yes"/>
      <point x="782" y="544"/>
      <point x="782" y="521" type="qcurve" smooth="yes"/>
      <point x="782" y="515" type="line"/>
      <point x="786" y="486"/>
      <point x="848" y="423" type="qcurve"/>
      <point x="840" y="407" type="line"/>
      <point x="709" y="451"/>
      <point x="709" y="539" type="qcurve" smooth="yes"/>
      <point x="709" y="575"/>
      <point x="761" y="620"/>
      <point x="798" y="620" type="qcurve" smooth="yes"/>
      <point x="870" y="620"/>
      <point x="961" y="460"/>
      <point x="961" y="333" type="qcurve" smooth="yes"/>
      <point x="961" y="195"/>
      <point x="812" y="8"/>
      <point x="665" y="-2" type="qcurve"/>
    </contour>
    <contour>
      <point x="564" y="267" type="line"/>
      <point x="509" y="267" type="line"/>
      <point x="487" y="354"/>
      <point x="428" y="354" type="qcurve" smooth="yes"/>
      <point x="360" y="354"/>
      <point x="360" y="248" type="qcurve" smooth="yes"/>
      <point x="360" y="121"/>
      <point x="450" y="49" type="qcurve"/>
      <point x="445" y="0" type="line"/>
      <point x="243" y="0" type="line" smooth="yes"/>
      <point x="152" y="0"/>
      <point x="123" y="67" type="qcurve" smooth="yes"/>
      <point x="115" y="89"/>
      <point x="115" y="111" type="qcurve" smooth="yes"/>
      <point x="115" y="146"/>
      <point x="133" y="182" type="qcurve" smooth="yes"/>
      <point x="177" y="274" type="line" smooth="yes"/>
      <point x="186" y="295"/>
      <point x="186" y="312" type="qcurve" smooth="yes"/>
      <point x="186" y="329"/>
      <point x="164" y="354"/>
      <point x="147" y="354" type="qcurve" smooth="yes"/>
      <point x="136" y="353" type="line"/>
      <point x="88" y="342"/>
      <point x="88" y="251" type="qcurve" smooth="yes"/>
      <point x="88" y="231" type="line"/>
      <point x="45" y="228" type="line"/>
      <point x="30" y="270"/>
      <point x="30" y="303" type="qcurve" smooth="yes"/>
      <point x="30" y="353"/>
      <point x="91" y="419"/>
      <point x="149" y="419" type="qcurve" smooth="yes"/>
      <point x="202" y="419"/>
      <point x="261" y="357"/>
      <point x="261" y="310" type="qcurve" smooth="yes"/>
      <point x="261" y="275"/>
      <point x="243" y="233" type="qcurve"/>
      <point x="197" y="149"/>
      <point x="197" y="110" type="qcurve" smooth="yes"/>
      <point x="197" y="65"/>
      <point x="244" y="65" type="qcurve" smooth="yes"/>
      <point x="354" y="65" type="line"/>
      <point x="283" y="128"/>
      <point x="283" y="245" type="qcurve" smooth="yes"/>
      <point x="283" y="325"/>
      <point x="358" y="419"/>
      <point x="428" y="419" type="qcurve" smooth="yes"/>
      <point x="515" y="417"/>
      <point x="539" y="359" type="qcurve"/>
    </contour>
    <contour>
      <point x="714" y="221" type="line"/>
      <point x="714" y="233" type="line"/>
      <point x="710" y="345"/>
      <point x="645" y="346" type="qcurve" smooth="yes"/>
      <point x="583" y="346"/>
      <point x="564" y="267" type="qcurve"/>
      <point x="509" y="267" type="line"/>
      <point x="539" y="359" type="line"/>
      <point x="577" y="417"/>
      <point x="650" y="417" type="qcurve" smooth="yes"/>
      <point x="721" y="416"/>
      <point x="793" y="316"/>
      <point x="793" y="232" type="qcurve"/>
    </contour>
  </outline>
</glyph>
<glyph name="uni1B54" format="2">
  <advance width="470"/>
  <unicode hex="1B54"/>
  <outline>
    <contour>
      <point x="187" y="533" type="line"/>
      <point x="115" y="373"/>
      <point x="109" y="267" type="qcurve" smooth="yes"/>
      <point x="108" y="239" type="line" smooth="yes"/>
      <point x="108" y="159"/>
      <point x="189" y="64"/>
      <point x="256" y="64" type="qcurve" smooth="yes"/>
      <point x="264" y="64" type="line" smooth="yes"/>
      <point x="344" y="67"/>
      <point x="344" y="118" type="qcurve" smooth="yes"/>
      <point x="343" y="168"/>
      <point x="243" y="176" type="qcurve"/>
      <point x="243" y="235" type="line"/>
      <point x="293" y="241"/>
      <point x="338" y="280"/>
      <point x="338" y="305" type="qcurve" smooth="yes"/>
      <point x="338" y="360"/>
      <point x="278" y="360" type="qcurve" smooth="yes"/>
      <point x="236" y="359"/>
      <point x="190" y="326" type="qcurve"/>
      <point x="173" y="350" type="line"/>
      <point x="216" y="418"/>
      <point x="292" y="420" type="qcurve" smooth="yes"/>
      <point x="295" y="420" type="line" smooth="yes"/>
      <point x="355" y="420"/>
      <point x="416" y="357"/>
      <point x="416" y="316" type="qcurve" smooth="yes"/>
      <point x="416" y="233"/>
      <point x="324" y="208" type="qcurve"/>
      <point x="418" y="190"/>
      <point x="420" y="107" type="qcurve"/>
      <point x="415" y="4"/>
      <point x="275" y="-4" type="qcurve"/>
      <point x="261" y="-4" type="line" smooth="yes"/>
      <point x="153" y="-4"/>
      <point x="35" y="125"/>
      <point x="35" y="227" type="qcurve" smooth="yes"/>
      <point x="35" y="377"/>
      <point x="145" y="554" type="qcurve"/>
    </contour>
  </outline>
</glyph>
<glyph name="uni1B55" format="2">
  <advance width="607"/>
  <unicode hex="1B55"/>
  <outline>
    <contour>
      <point x="518" y="-887" type="line"/>
      <point x="400" y="-762"/>
      <point x="400" y="-467" type="qcurve" smooth="yes"/>
      <point x="400" y="-279"/>
      <point x="441" y="-40" type="qcurve" smooth="yes"/>
      <point x="474" y="150"/>
      <point x="474" y="265" type="qcurve" smooth="yes"/>
      <point x="474" y="476"/>
      <point x="308" y="487" type="qcurve"/>
      <point x="301" y="487" type="line" smooth="yes"/>
      <point x="222" y="487"/>
      <point x="115" y="373"/>
      <point x="109" y="276" type="qcurve" smooth="yes"/>
      <point x="108" y="249" type="line" smooth="yes"/>
      <point x="108" y="169"/>
      <point x="180" y="64"/>
      <point x="245" y="64" type="qcurve" smooth="yes"/>
      <point x="264" y="64" type="line" smooth="yes"/>
      <point x="344" y="67"/>
      <point x="344" y="118" type="qcurve" smooth="yes"/>
      <point x="343" y="168"/>
      <point x="243" y="176" type="qcurve"/>
      <point x="243" y="235" type="line"/>
      <point x="338" y="246"/>
      <point x="338" y="305" type="qcurve" smooth="yes"/>
      <point x="338" y="360"/>
      <point x="278" y="360" type="qcurve" smooth="yes"/>
      <point x="236" y="359"/>
      <point x="190" y="326" type="qcurve"/>
      <point x="173" y="350" type="line"/>
      <point x="216" y="418"/>
      <point x="294" y="420" type="qcurve" smooth="yes"/>
      <point x="355" y="420"/>
      <point x="416" y="357"/>
      <point x="416" y="316" type="qcurve" smooth="yes"/>
      <point x="416" y="233"/>
      <point x="324" y="208" type="qcurve"/>
      <point x="418" y="190"/>
      <point x="420" y="107" type="qcurve"/>
      <point x="415" y="4"/>
      <point x="275" y="-4" type="qcurve"/>
      <point x="262" y="-4" type="line" smooth="yes"/>
      <point x="155" y="-4"/>
      <point x="35" y="129"/>
      <point x="35" y="242" type="qcurve" smooth="yes"/>
      <point x="35" y="377"/>
      <point x="180" y="556"/>
      <point x="305" y="559" type="qcurve" smooth="yes"/>
      <point x="311" y="559" type="line" smooth="yes"/>
      <point x="442" y="559"/>
      <point x="515" y="451" type="qcurve" smooth="yes"/>
      <point x="557" y="389"/>
      <point x="557" y="250" type="qcurve" smooth="yes"/>
      <point x="557" y="143"/>
      <point x="531" y="-10" type="qcurve" smooth="yes"/>
      <point x="474" y="-361"/>
      <point x="472" y="-548" type="qcurve" smooth="yes"/>
      <point x="472" y="-721"/>
      <point x="555" y="-852" type="qcurve"/>
    </contour>
  </outline>
</glyph>
<glyph name="uni1B56" format="2">
  <advance width="661"/>
  <unicode hex="1B56"/>
  <outline>
    <contour>
      <point x="152" y="-8" type="qcurve"/>
      <point x="99" y="-4"/>
      <point x="38" y="60"/>
      <point x="38" y="111" type="qcurve" smooth="yes"/>
      <point x="38" y="214"/>
      <point x="122" y="303" type="qcurve" smooth="yes"/>
      <point x="242" y="430"/>
      <point x="466" y="430" type="qcurve" smooth="yes"/>
      <point x="527" y="430"/>
      <point x="596" y="421" type="qcurve"/>
      <point x="591" y="375" type="line"/>
      <point x="585" y="375" type="line" smooth="yes"/>
      <point x="333" y="375"/>
      <point x="125" y="212"/>
      <point x="125" y="125" type="qcurve" smooth="yes"/>
      <point x="125" y="75"/>
      <point x="171" y="75" type="qcurve" smooth="yes"/>
      <point x="218" y="75"/>
      <point x="273" y="125" type="qcurve" smooth="yes"/>
      <point x="388" y="233"/>
      <point x="471" y="233" type="qcurve" smooth="yes"/>
      <point x="635" y="233"/>
      <point x="635" y="39" type="qcurve"/>
      <point x="634" y="3" type="line"/>
      <point x="588" y="-1" type="line"/>
      <point x="573" y="90"/>
      <point x="525" y="154"/>
      <point x="480" y="154" type="qcurve" smooth="yes"/>
      <point x="469" y="154" type="line"/>
      <point x="414" y="150"/>
      <point x="327" y="65" type="qcurve" smooth="yes"/>
      <point x="248" y="-8"/>
    </contour>
  </outline>
</glyph>
<glyph name="uni1B57" format="2">
  <advance width="775"/>
  <unicode hex="1B57"/>
  <outline>
    <contour>
      <point x="539" y="-4" type="qcurve" smooth="yes"/>
      <point x="479" y="-4"/>
      <point x="402" y="74"/>
      <point x="398" y="152" type="qcurve"/>
      <point x="398" y="255" type="line"/>
      <point x="478" y="245" type="line"/>
      <point x="478" y="160" type="line" smooth="yes"/>
      <point x="480" y="70"/>
      <point x="546" y="70" type="qcurve" smooth="yes"/>
      <point x="645" y="70"/>
      <point x="645" y="259" type="qcurve" smooth="yes"/>
      <point x="645" y="401"/>
      <point x="594" y="482" type="qcurve" smooth="yes"/>
      <point x="555" y="544"/>
      <point x="524" y="544" type="qcurve" smooth="yes"/>
      <point x="502" y="544"/>
      <point x="502" y="521" type="qcurve" smooth="yes"/>
      <point x="502" y="515" type="line"/>
      <point x="506" y="486"/>
      <point x="568" y="423" type="qcurve"/>
      <point x="560" y="407" type="line"/>
      <point x="429" y="451"/>
      <point x="429" y="542" type="qcurve" smooth="yes"/>
      <point x="429" y="616"/>
      <point x="516" y="616" type="qcurve" smooth="yes"/>
      <point x="625" y="616"/>
      <point x="683" y="479" type="qcurve" smooth="yes"/>
      <point x="724" y="381"/>
      <point x="724" y="254" type="qcurve" smooth="yes"/>
      <point x="724" y="134"/>
      <point x="626" y="-4"/>
    </contour>
    <contour>
      <point x="398" y="219" type="line"/>
      <point x="398" y="302" type="line" smooth="yes"/>
      <point x="397" y="350"/>
      <point x="358" y="353" type="qcurve" smooth="yes"/>
      <point x="349" y="354" type="line" smooth="yes"/>
      <point x="324" y="354"/>
      <point x="293" y="321"/>
      <point x="293" y="301" type="qcurve" smooth="yes"/>
      <point x="293" y="0" type="line"/>
      <point x="213" y="0" type="line"/>
      <point x="213" y="294" type="line" smooth="yes"/>
      <point x="210" y="350"/>
      <point x="162" y="350" type="qcurve" smooth="yes"/>
      <point x="102" y="350"/>
      <point x="102" y="267" type="qcurve"/>
      <point x="106" y="209"/>
      <point x="138" y="179" type="qcurve"/>
      <point x="116" y="152" type="line"/>
      <point x="72" y="173"/>
      <point x="30" y="249"/>
      <point x="30" y="290" type="qcurve" smooth="yes"/>
      <point x="30" y="327"/>
      <point x="49" y="361" type="qcurve" smooth="yes"/>
      <point x="80" y="419"/>
      <point x="164" y="419" type="qcurve" smooth="yes"/>
      <point x="231" y="419"/>
      <point x="263" y="384" type="qcurve"/>
      <point x="303" y="416"/>
      <point x="356" y="416" type="qcurve" smooth="yes"/>
      <point x="476" y="416"/>
      <point x="478" y="303" type="qcurve" smooth="yes"/>
      <point x="478" y="213" type="line"/>
    </contour>
  </outline>
</glyph>
<glyph name="uni1B58" format="2">
  <advance width="511"/>
  <unicode hex="1B58"/>
  <outline>
    <contour>
      <point x="251" y="0" type="qcurve" smooth="yes"/>
      <point x="115" y="3"/>
      <point x="115" y="111" type="qcurve" smooth="yes"/>
      <point x="115" y="146"/>
      <point x="133" y="182" type="qcurve" smooth="yes"/>
      <point x="177" y="274" type="line" smooth="yes"/>
      <point x="186" y="295"/>
      <point x="186" y="312" type="qcurve" smooth="yes"/>
      <point x="186" y="354"/>
      <point x="147" y="354" type="qcurve" smooth="yes"/>
      <point x="136" y="353" type="line"/>
      <point x="88" y="342"/>
      <point x="88" y="251" type="qcurve" smooth="yes"/>
      <point x="88" y="231" type="line"/>
      <point x="45" y="228" type="line"/>
      <point x="30" y="270"/>
      <point x="30" y="303" type="qcurve" smooth="yes"/>
      <point x="30" y="353"/>
      <point x="91" y="419"/>
      <point x="149" y="419" type="qcurve" smooth="yes"/>
      <point x="202" y="419"/>
      <point x="261" y="357"/>
      <point x="261" y="310" type="qcurve" smooth="yes"/>
      <point x="261" y="275"/>
      <point x="243" y="233" type="qcurve"/>
      <point x="199" y="153"/>
      <point x="199" y="120" type="qcurve" smooth="yes"/>
      <point x="199" y="70"/>
      <point x="268" y="70" type="qcurve" smooth="yes"/>
      <point x="367" y="70"/>
      <point x="367" y="259" type="qcurve" smooth="yes"/>
      <point x="367" y="389"/>
      <point x="283" y="544"/>
      <point x="246" y="544" type="qcurve" smooth="yes"/>
      <point x="224" y="544"/>
      <point x="224" y="521" type="qcurve" smooth="yes"/>
      <point x="224" y="515" type="line"/>
      <point x="228" y="486"/>
      <point x="290" y="423" type="qcurve"/>
      <point x="282" y="407" type="line"/>
      <point x="151" y="451"/>
      <point x="151" y="542" type="qcurve" smooth="yes"/>
      <point x="151" y="616"/>
      <point x="238" y="616" type="qcurve" smooth="yes"/>
      <point x="330" y="616"/>
      <point x="446" y="413"/>
      <point x="446" y="254" type="qcurve" smooth="yes"/>
      <point x="446" y="134"/>
      <point x="351" y="0"/>
    </contour>
  </outline>
</glyph>
<glyph name="uni1B59" format="2">
  <advance width="761"/>
  <unicode hex="1B59"/>
  <outline>
    <contour>
      <point x="579" y="482" type="qcurve" smooth="yes"/>
      <point x="540" y="544"/>
      <point x="509" y="544" type="qcurve" smooth="yes"/>
      <point x="487" y="544"/>
      <point x="487" y="521" type="qcurve" smooth="yes"/>
      <point x="487" y="515" type="line"/>
      <point x="491" y="486"/>
      <point x="553" y="423" type="qcurve"/>
      <point x="545" y="407" type="line"/>
      <point x="414" y="451"/>
      <point x="414" y="542" type="qcurve" smooth="yes"/>
      <point x="414" y="616"/>
      <point x="501" y="616" type="qcurve" smooth="yes"/>
      <point x="610" y="616"/>
      <point x="668" y="479" type="qcurve" smooth="yes"/>
      <point x="709" y="382"/>
      <point x="709" y="259" type="qcurve" smooth="yes"/>
      <point x="709" y="170"/>
      <point x="677" y="95" type="qcurve"/>
      <point x="630" y="4"/>
      <point x="546" y="0" type="qcurve"/>
      <point x="543" y="0" type="line" smooth="yes"/>
      <point x="485" y="0"/>
      <point x="408" y="81"/>
      <point x="399" y="152" type="qcurve"/>
      <point x="392" y="86"/>
      <point x="317" y="0"/>
      <point x="247" y="0" type="qcurve" smooth="yes"/>
      <point x="242" y="0" type="line" smooth="yes"/>
      <point x="151" y="2"/>
      <point x="123" y="67" type="qcurve" smooth="yes"/>
      <point x="115" y="89"/>
      <point x="115" y="111" type="qcurve" smooth="yes"/>
      <point x="115" y="146"/>
      <point x="133" y="182" type="qcurve" smooth="yes"/>
      <point x="177" y="274" type="line" smooth="yes"/>
      <point x="186" y="295"/>
      <point x="186" y="312" type="qcurve" smooth="yes"/>
      <point x="186" y="329"/>
      <point x="164" y="354"/>
      <point x="147" y="354" type="qcurve" smooth="yes"/>
      <point x="136" y="353" type="line"/>
      <point x="88" y="342"/>
      <point x="88" y="251" type="qcurve" smooth="yes"/>
      <point x="88" y="231" type="line"/>
      <point x="45" y="228" type="line"/>
      <point x="30" y="270"/>
      <point x="30" y="303" type="qcurve" smooth="yes"/>
      <point x="30" y="353"/>
      <point x="91" y="419"/>
      <point x="149" y="419" type="qcurve" smooth="yes"/>
      <point x="202" y="419"/>
      <point x="261" y="357"/>
      <point x="261" y="310" type="qcurve" smooth="yes"/>
      <point x="261" y="275"/>
      <point x="243" y="233" type="qcurve"/>
      <point x="200" y="154"/>
      <point x="200" y="125" type="qcurve" smooth="yes"/>
      <point x="200" y="74"/>
      <point x="251" y="74" type="qcurve"/>
      <point x="260" y="75" type="line" smooth="yes"/>
      <point x="320" y="79"/>
      <point x="364" y="268"/>
      <point x="365" y="421" type="qcurve"/>
      <point x="432" y="421" type="line"/>
      <point x="433" y="272"/>
      <point x="475" y="79"/>
      <point x="533" y="76" type="qcurve" smooth="yes"/>
      <point x="538" y="76" type="line" smooth="yes"/>
      <point x="584" y="76"/>
      <point x="630" y="172"/>
      <point x="630" y="258" type="qcurve" smooth="yes"/>
      <point x="630" y="401"/>
    </contour>
  </outline>
</glyph>
<glyph name="uni1B5A" format="2">
  <advance width="694"/>
  <unicode hex="1B5A"/>
  <outline>
    <contour>
      <point x="743" y="-321" type="qcurve"/>
      <point x="739" y="-355" type="line"/>
      <point x="514" y="-344"/>
      <point x="514" y="-89" type="qcurve" smooth="yes"/>
      <point x="514" y="191" type="line"/>
      <point x="594" y="190" type="line"/>
      <point x="594" y="-91" type="line" smooth="yes"/>
      <point x="594" y="-223"/>
      <point x="680" y="-314"/>
    </contour>
    <contour>
      <point x="136" y="-2" type="qcurve" smooth="yes"/>
      <point x="132" y="-2" type="line" smooth="yes"/>
      <point x="39" y="-2"/>
      <point x="39" y="116" type="qcurve" smooth="yes"/>
      <point x="39" y="122" type="line"/>
      <point x="64" y="126" type="line"/>
      <point x="79" y="63"/>
      <point x="115" y="63" type="qcurve" smooth="yes"/>
      <point x="118" y="63" type="line" smooth="yes"/>
      <point x="155" y="65"/>
      <point x="155" y="148" type="qcurve" smooth="yes"/>
      <point x="155" y="279" type="line" smooth="yes"/>
      <point x="155" y="417"/>
      <point x="285" y="417" type="qcurve" smooth="yes"/>
      <point x="361" y="417"/>
      <point x="391" y="370" type="qcurve"/>
      <point x="424" y="410"/>
      <point x="480" y="415" type="qcurve"/>
      <point x="594" y="415"/>
      <point x="594" y="303" type="qcurve" smooth="yes"/>
      <point x="594" y="0" type="line"/>
      <point x="514" y="0" type="line"/>
      <point x="514" y="293" type="line" smooth="yes"/>
      <point x="514" y="349"/>
      <point x="470" y="349" type="qcurve" smooth="yes"/>
      <point x="430" y="347"/>
      <point x="410" y="309" type="qcurve"/>
      <point x="410" y="0" type="line"/>
      <point x="331" y="0" type="line"/>
      <point x="331" y="288" type="line" smooth="yes"/>
      <point x="331" y="344"/>
      <point x="283" y="344" type="qcurve" smooth="yes"/>
      <point x="235" y="344"/>
      <point x="235" y="286" type="qcurve" smooth="yes"/>
      <point x="235" y="136" type="line" smooth="yes"/>
      <point x="235" y="0"/>
    </contour>
  </outline>
</glyph>
<glyph name="uni1B5B" format="2">
  <advance width="1183"/>
  <unicode hex="1B5B"/>
  <outline>
    <contour>
      <point x="1317" y="-685" type="line"/>
      <point x="1216" y="-509"/>
      <point x="927" y="-224"/>
      <point x="814" y="-197" type="qcurve" smooth="yes"/>
      <point x="754" y="-183"/>
      <point x="713" y="-183" type="qcurve" smooth="yes"/>
      <point x="663" y="-183"/>
      <point x="608" y="-229"/>
      <point x="607" y="-273" type="qcurve" smooth="yes"/>
      <point x="607" y="-278" type="line" smooth="yes"/>
      <point x="607" y="-330"/>
      <point x="643" y="-365" type="qcurve"/>
      <point x="631" y="-395" type="line"/>
      <point x="283" y="-387"/>
      <point x="283" y="-160" type="qcurve" smooth="yes"/>
      <point x="283" y="-158" type="line"/>
      <point x="315" y="-147" type="line"/>
      <point x="357" y="-284"/>
      <point x="562" y="-331" type="qcurve"/>
      <point x="541" y="-294"/>
      <point x="541" y="-257" type="qcurve" smooth="yes"/>
      <point x="541" y="-192"/>
      <point x="636" y="-114"/>
      <point x="725" y="-114" type="qcurve" smooth="yes"/>
      <point x="908" y="-114"/>
      <point x="1065" y="-259" type="qcurve" smooth="yes"/>
      <point x="1258" y="-438"/>
      <point x="1336" y="-677" type="qcurve"/>
    </contour>
    <contour>
      <point x="1117" y="-899" type="line"/>
      <point x="1044" y="-840"/>
      <point x="1044" y="-672" type="qcurve" smooth="yes"/>
      <point x="1044" y="293" type="line" smooth="yes"/>
      <point x="1044" y="345"/>
      <point x="1003" y="345" type="qcurve" smooth="yes"/>
      <point x="963" y="345"/>
      <point x="963" y="293" type="qcurve" smooth="yes"/>
      <point x="963" y="-16" type="line"/>
      <point x="888" y="-17" type="line"/>
      <point x="888" y="289" type="line" smooth="yes"/>
      <point x="888" y="418"/>
      <point x="1006" y="418" type="qcurve" smooth="yes"/>
      <point x="1123" y="418"/>
      <point x="1123" y="288" type="qcurve" smooth="yes"/>
      <point x="1123" y="-669" type="line" smooth="yes"/>
      <point x="1124" y="-796"/>
      <point x="1145" y="-881" type="qcurve"/>
    </contour>
    <contour>
      <point x="797" y="0" type="line"/>
      <point x="717" y="0" type="line"/>
      <point x="717" y="265" type="line" smooth="yes"/>
      <point x="717" y="346"/>
      <point x="646" y="346" type="qcurve" smooth="yes"/>
      <point x="584" y="346"/>
      <point x="564" y="267" type="qcurve"/>
      <point x="509" y="267" type="line"/>
      <point x="487" y="354"/>
      <point x="429" y="354" type="qcurve" smooth="yes"/>
      <point x="360" y="354"/>
      <point x="360" y="248" type="qcurve" smooth="yes"/>
      <point x="360" y="121"/>
      <point x="451" y="49" type="qcurve"/>
      <point x="445" y="0" type="line"/>
      <point x="243" y="0" type="line" smooth="yes"/>
      <point x="153" y="0"/>
      <point x="123" y="67" type="qcurve" smooth="yes"/>
      <point x="116" y="89"/>
      <point x="116" y="111" type="qcurve" smooth="yes"/>
      <point x="116" y="146"/>
      <point x="133" y="182" type="qcurve" smooth="yes"/>
      <point x="177" y="274" type="line" smooth="yes"/>
      <point x="186" y="295"/>
      <point x="186" y="312" type="qcurve" smooth="yes"/>
      <point x="186" y="329"/>
      <point x="164" y="354"/>
      <point x="147" y="354" type="qcurve" smooth="yes"/>
      <point x="137" y="353" type="line"/>
      <point x="88" y="342"/>
      <point x="88" y="251" type="qcurve"/>
      <point x="89" y="231" type="line"/>
      <point x="46" y="228" type="line"/>
      <point x="30" y="270"/>
      <point x="30" y="303" type="qcurve" smooth="yes"/>
      <point x="30" y="353"/>
      <point x="91" y="419"/>
      <point x="150" y="419" type="qcurve" smooth="yes"/>
      <point x="203" y="419"/>
      <point x="262" y="357"/>
      <point x="262" y="310" type="qcurve" smooth="yes"/>
      <point x="262" y="275"/>
      <point x="244" y="233" type="qcurve"/>
      <point x="198" y="149"/>
      <point x="198" y="110" type="qcurve" smooth="yes"/>
      <point x="198" y="65"/>
      <point x="244" y="65" type="qcurve" smooth="yes"/>
      <point x="354" y="65" type="line"/>
      <point x="284" y="128"/>
      <point x="284" y="245" type="qcurve" smooth="yes"/>
      <point x="284" y="325"/>
      <point x="359" y="419"/>
      <point x="428" y="419" type="qcurve" smooth="yes"/>
      <point x="516" y="417"/>
      <point x="539" y="359" type="qcurve"/>
      <point x="578" y="413"/>
      <point x="653" y="413" type="qcurve" smooth="yes"/>
      <point x="797" y="413"/>
      <point x="797" y="261" type="qcurve" smooth="yes"/>
    </contour>
    <contour>
      <point x="229" y="-880" type="qcurve" smooth="yes"/>
      <point x="207" y="-880" type="line"/>
      <point x="78" y="-876"/>
      <point x="-87" y="-697"/>
      <point x="-91" y="-521" type="qcurve"/>
      <point x="-91" y="-509" type="line" smooth="yes"/>
      <point x="-91" y="-335"/>
      <point x="16" y="-44" type="qcurve"/>
      <point x="57" y="-54" type="line"/>
      <point x="-8" y="-343"/>
      <point x="-11" y="-488" type="qcurve" smooth="yes"/>
      <point x="-11" y="-500" type="line" smooth="yes"/>
      <point x="-11" y="-639"/>
      <point x="106" y="-790"/>
      <point x="220" y="-797" type="qcurve" smooth="yes"/>
      <point x="239" y="-798" type="line"/>
      <point x="342" y="-798"/>
      <point x="416" y="-725" type="qcurve" smooth="yes"/>
      <point x="519" y="-624"/>
      <point x="568" y="-597"/>
      <point x="597" y="-597" type="qcurve" smooth="yes"/>
      <point x="605" y="-597" type="line" smooth="yes"/>
      <point x="653" y="-599"/>
      <point x="716" y="-725"/>
      <point x="754" y="-787"/>
      <point x="782" y="-793" type="qcurve" smooth="yes"/>
      <point x="793" y="-796"/>
      <point x="803" y="-796" type="qcurve" smooth="yes"/>
      <point x="885" y="-796"/>
      <point x="888" y="-673" type="qcurve" smooth="yes"/>
      <point x="888" y="196" type="line"/>
      <point x="963" y="188" type="line"/>
      <point x="963" y="-680" type="line" smooth="yes"/>
      <point x="961" y="-742"/>
      <point x="920" y="-830"/>
      <point x="844" y="-877"/>
      <point x="802" y="-877" type="qcurve" smooth="yes"/>
      <point x="739" y="-877"/>
      <point x="659" y="-806"/>
      <point x="621" y="-724" type="qcurve" smooth="yes"/>
      <point x="605" y="-690"/>
      <point x="582" y="-690" type="qcurve" smooth="yes"/>
      <point x="559" y="-690"/>
      <point x="530" y="-724" type="qcurve" smooth="yes"/>
      <point x="472" y="-790"/>
      <point x="342" y="-880"/>
    </contour>
  </outline>
</glyph>
<glyph name="uni1B5D" format="2">
  <advance width="232"/>
  <unicode hex="1B5D"/>
  <outline>
    <contour>
      <point x="202" y="20" type="qcurve"/>
      <point x="178" y="11" type="line"/>
      <point x="128" y="106"/>
      <point x="50" y="153" type="qcurve"/>
      <point x="90" y="207" type="line"/>
      <point x="187" y="152"/>
    </contour>
    <contour>
      <point x="202" y="230" type="qcurve"/>
      <point x="178" y="221" type="line"/>
      <point x="128" y="316"/>
      <point x="50" y="363" type="qcurve"/>
      <point x="90" y="417" type="line"/>
      <point x="187" y="362"/>
    </contour>
  </outline>
</glyph>
<glyph name="uni1B5E" format="2">
  <advance width="315"/>
  <unicode hex="1B5E"/>
  <outline>
    <contour>
      <point x="349" y="-565" type="qcurve"/>
      <point x="315" y="-571" type="line"/>
      <point x="222" y="128"/>
      <point x="52" y="372" type="qcurve"/>
      <point x="119" y="421" type="line"/>
      <point x="308" y="185"/>
    </contour>
  </outline>
</glyph>
<glyph name="uni1B60" format="2">
  <advance width="359"/>
  <unicode hex="1B60"/>
  <outline>
    <contour>
      <point x="192" y="-4" type="qcurve"/>
      <point x="184" y="-4" type="line" smooth="yes"/>
      <point x="85" y="-4"/>
      <point x="46" y="98" type="qcurve"/>
      <point x="75" y="117" type="line"/>
      <point x="119" y="60"/>
      <point x="175" y="60" type="qcurve" smooth="yes"/>
      <point x="181" y="60" type="line" smooth="yes"/>
      <point x="241" y="62"/>
      <point x="244" y="111" type="qcurve"/>
      <point x="241" y="168"/>
      <point x="141" y="176" type="qcurve"/>
      <point x="141" y="235" type="line"/>
      <point x="190" y="241"/>
      <point x="235" y="280"/>
      <point x="235" y="305" type="qcurve" smooth="yes"/>
      <point x="235" y="329"/>
      <point x="205" y="360"/>
      <point x="175" y="360" type="qcurve" smooth="yes"/>
      <point x="133" y="359"/>
      <point x="87" y="326" type="qcurve"/>
      <point x="70" y="350" type="line"/>
      <point x="113" y="418"/>
      <point x="189" y="420" type="qcurve" smooth="yes"/>
      <point x="192" y="420" type="line" smooth="yes"/>
      <point x="252" y="420"/>
      <point x="313" y="357"/>
      <point x="313" y="316" type="qcurve" smooth="yes"/>
      <point x="313" y="279"/>
      <point x="268" y="221"/>
      <point x="221" y="208" type="qcurve"/>
      <point x="315" y="190"/>
      <point x="317" y="107" type="qcurve"/>
      <point x="312" y="4"/>
    </contour>
  </outline>
</glyph>
<glyph name="uni1B61" format="2">
  <advance width="586"/>
  <unicode hex="1B61"/>
  <anchor x="258" y="610" name="Anchor-1"/>
  <anchor x="322" y="0" name="Anchor-0"/>
  <outline>
    <contour>
      <point x="307" y="-6" type="qcurve"/>
      <point x="183" y="-4"/>
      <point x="183" y="136" type="qcurve" smooth="yes"/>
      <point x="183" y="155" type="line"/>
      <point x="211" y="160" type="line"/>
      <point x="226" y="72"/>
      <point x="279" y="65" type="qcurve" smooth="yes"/>
      <point x="296" y="64" type="line" smooth="yes"/>
      <point x="342" y="64"/>
      <point x="400" y="135"/>
      <point x="403" y="206" type="qcurve" smooth="yes"/>
      <point x="404" y="217" type="line"/>
      <point x="404" y="282"/>
      <point x="335" y="354"/>
      <point x="273" y="354" type="qcurve" smooth="yes"/>
      <point x="257" y="353" type="line" smooth="yes"/>
      <point x="184" y="348"/>
      <point x="121" y="288" type="qcurve"/>
      <point x="98" y="308" type="line"/>
      <point x="169" y="417"/>
      <point x="278" y="417" type="qcurve" smooth="yes"/>
      <point x="487" y="414"/>
      <point x="487" y="211" type="qcurve" smooth="yes"/>
      <point x="487" y="116"/>
      <point x="396" y="-2"/>
    </contour>
  </outline>
</glyph>
<glyph name="uni1B63" format="2">
  <advance width="586"/>
  <unicode hex="1B63"/>
  <anchor x="354" y="630" name="Anchor-1"/>
  <anchor x="288" y="-837" name="Anchor-0"/>
  <outline>
    <contour>
      <point x="365" y="240" type="line"/>
      <point x="301" y="72"/>
      <point x="273" y="-52" type="qcurve" smooth="yes"/>
      <point x="233" y="-224"/>
      <point x="233" y="-362" type="qcurve" smooth="yes"/>
      <point x="235" y="-435"/>
      <point x="269" y="-502"/>
      <point x="303" y="-502" type="qcurve" smooth="yes"/>
      <point x="319" y="-502"/>
      <point x="334" y="-491" type="qcurve" smooth="yes"/>
      <point x="365" y="-469"/>
      <point x="365" y="-415" type="qcurve" smooth="yes"/>
    </contour>
    <contour>
      <point x="365" y="378" type="qcurve" smooth="yes"/>
      <point x="385" y="420" type="line"/>
      <point x="444" y="420" type="line"/>
      <point x="444" y="-400" type="line" smooth="yes"/>
      <point x="444" y="-527"/>
      <point x="365" y="-566" type="qcurve" smooth="yes"/>
      <point x="330" y="-583"/>
      <point x="297" y="-583" type="qcurve" smooth="yes"/>
      <point x="256" y="-583"/>
      <point x="218" y="-555" type="qcurve" smooth="yes"/>
      <point x="149" y="-505"/>
      <point x="149" y="-369" type="qcurve" smooth="yes"/>
      <point x="149" y="-234"/>
      <point x="202" y="-42" type="qcurve" smooth="yes"/>
      <point x="252" y="143"/>
    </contour>
  </outline>
</glyph>
<glyph name="uni1B64" format="2">
  <advance width="586"/>
  <unicode hex="1B64"/>
  <anchor x="285" y="610" name="Anchor-1"/>
  <anchor x="325" y="-200" name="Anchor-0"/>
  <outline>
    <contour>
      <point x="399" y="1" type="qcurve"/>
      <point x="371" y="-4" type="line"/>
      <point x="302" y="214"/>
      <point x="192" y="350" type="qcurve"/>
      <point x="258" y="424" type="line"/>
      <point x="372" y="295"/>
    </contour>
  </outline>
</glyph>
<glyph name="uni1B65" format="2">
  <advance width="586"/>
  <unicode hex="1B65"/>
  <anchor x="313" y="620" name="Anchor-1"/>
  <anchor x="287" y="-200" name="Anchor-0"/>
  <outline>
    <contour>
      <point x="468" y="-3" type="qcurve" smooth="yes"/>
      <point x="338" y="-3"/>
      <point x="237" y="42" type="qcurve" smooth="yes"/>
      <point x="101" y="103"/>
      <point x="101" y="253" type="qcurve" smooth="yes"/>
      <point x="101" y="336"/>
      <point x="148" y="430" type="qcurve"/>
      <point x="181" y="420" type="line"/>
      <point x="172" y="374"/>
      <point x="172" y="333" type="qcurve" smooth="yes"/>
      <point x="172" y="175"/>
      <point x="357" y="54"/>
      <point x="516" y="33" type="qcurve"/>
      <point x="515" y="-1" type="line"/>
      <point x="491" y="-3"/>
    </contour>
  </outline>
</glyph>
<glyph name="uni1B66" format="2">
  <advance width="586"/>
  <unicode hex="1B66"/>
  <anchor x="344" y="610" name="Anchor-1"/>
  <anchor x="343" y="0" name="Anchor-0"/>
  <outline>
    <contour>
      <point x="420" y="-7" type="qcurve"/>
      <point x="404" y="10" type="line"/>
      <point x="485" y="99"/>
      <point x="485" y="196" type="qcurve" smooth="yes"/>
      <point x="485" y="262"/>
      <point x="411" y="345"/>
      <point x="343" y="345" type="qcurve" smooth="yes"/>
      <point x="271" y="345"/>
      <point x="193" y="269"/>
      <point x="191" y="208" type="qcurve" smooth="yes"/>
      <point x="191" y="120"/>
      <point x="261" y="56" type="qcurve"/>
      <point x="226" y="2" type="line"/>
      <point x="7" y="128" type="line"/>
      <point x="43" y="183" type="line"/>
      <point x="161" y="114" type="line"/>
      <point x="137" y="164"/>
      <point x="137" y="214" type="qcurve" smooth="yes"/>
      <point x="137" y="274"/>
      <point x="168" y="328" type="qcurve" smooth="yes"/>
      <point x="222" y="418"/>
      <point x="348" y="418" type="qcurve" smooth="yes"/>
      <point x="436" y="418"/>
      <point x="550" y="307"/>
      <point x="550" y="218" type="qcurve" smooth="yes"/>
      <point x="550" y="85"/>
    </contour>
  </outline>
</glyph>
<glyph name="uni1B67" format="2">
  <advance width="586"/>
  <unicode hex="1B67"/>
  <anchor x="398" y="610" name="Anchor-1"/>
  <anchor x="456" y="0" name="Anchor-0"/>
  <outline>
    <contour>
      <point x="275" y="-5" type="line"/>
      <point x="247" y="26" type="line"/>
      <point x="508" y="359" type="line"/>
      <point x="470" y="360" type="line"/>
      <point x="216" y="360"/>
      <point x="216" y="154" type="qcurve" smooth="yes"/>
      <point x="216" y="100"/>
      <point x="233" y="32" type="qcurve"/>
      <point x="212" y="-3" type="line"/>
      <point x="25" y="110" type="line"/>
      <point x="61" y="165" type="line"/>
      <point x="181" y="87" type="line"/>
      <point x="169" y="142"/>
      <point x="169" y="188" type="qcurve" smooth="yes"/>
      <point x="169" y="425"/>
      <point x="481" y="425" type="qcurve" smooth="yes"/>
      <point x="528" y="425"/>
      <point x="581" y="420" type="qcurve"/>
      <point x="605" y="390" type="line"/>
    </contour>
  </outline>
</glyph>
<glyph name="uni1B68" format="2">
  <advance width="586"/>
  <unicode hex="1B68"/>
  <anchor x="314" y="610" name="Anchor-1"/>
  <anchor x="328" y="-787" name="Anchor-0"/>
  <outline>
    <contour>
      <point x="487" y="-341" type="qcurve"/>
      <point x="487" y="-444"/>
      <point x="393" y="-558"/>
      <point x="305" y="-560" type="qcurve" smooth="yes"/>
      <point x="297" y="-560" type="line" smooth="yes"/>
      <point x="169" y="-560"/>
      <point x="110" y="-429" type="qcurve"/>
      <point x="142" y="-403" type="line"/>
      <point x="195" y="-486"/>
      <point x="289" y="-486" type="qcurve" smooth="yes"/>
      <point x="294" y="-486" type="line" smooth="yes"/>
      <point x="354" y="-485"/>
      <point x="416" y="-409"/>
      <point x="416" y="-351" type="qcurve" smooth="yes"/>
      <point x="416" y="-261"/>
      <point x="187" y="45"/>
      <point x="187" y="139" type="qcurve" smooth="yes"/>
      <point x="187" y="272"/>
      <point x="354" y="420" type="qcurve"/>
      <point x="380" y="393" type="line"/>
      <point x="258" y="269"/>
      <point x="258" y="160" type="qcurve" smooth="yes"/>
      <point x="258" y="86"/>
      <point x="477" y="-210"/>
    </contour>
  </outline>
</glyph>
<glyph name="uni1B69" format="2">
  <advance width="1172"/>
  <unicode hex="1B69"/>
  <anchor x="597" y="610" name="Anchor-1"/>
  <anchor x="692" y="-473" name="Anchor-0"/>
  <outline>
    <contour>
      <point x="857" y="-590" type="qcurve" smooth="yes"/>
      <point x="817" y="-590"/>
      <point x="731" y="-531"/>
      <point x="638" y="-412"/>
      <point x="586" y="-412" type="qcurve" smooth="yes"/>
      <point x="540" y="-412"/>
      <point x="431" y="-502"/>
      <point x="383" y="-588" type="qcurve"/>
      <point x="276" y="-583"/>
      <point x="166" y="-484"/>
      <point x="166" y="-405" type="qcurve" smooth="yes"/>
      <point x="166" y="-397" type="line" smooth="yes"/>
      <point x="169" y="-319"/>
      <point x="264" y="-217"/>
      <point x="528" y="-110"/>
      <point x="726" y="-14"/>
      <point x="726" y="82" type="qcurve" smooth="yes"/>
      <point x="726" y="223" type="line"/>
      <point x="805" y="222" type="line"/>
      <point x="805" y="91" type="line"/>
      <point x="800" y="-64"/>
      <point x="561" y="-175"/>
      <point x="321" y="-272"/>
      <point x="252" y="-349"/>
      <point x="252" y="-400" type="qcurve" smooth="yes"/>
      <point x="252" y="-488"/>
      <point x="348" y="-500" type="qcurve"/>
      <point x="399" y="-423"/>
      <point x="533" y="-333"/>
      <point x="600" y="-333" type="qcurve" smooth="yes"/>
      <point x="645" y="-333"/>
      <point x="677" y="-353" type="qcurve" smooth="yes"/>
      <point x="717" y="-379"/>
      <point x="815" y="-513"/>
      <point x="848" y="-513" type="qcurve" smooth="yes"/>
      <point x="881" y="-513"/>
      <point x="882" y="-453" type="qcurve" smooth="yes"/>
      <point x="882" y="1" type="line"/>
      <point x="957" y="-30" type="line"/>
      <point x="957" y="-470" type="line" smooth="yes"/>
      <point x="956" y="-530"/>
      <point x="899" y="-590"/>
    </contour>
    <contour>
      <point x="805" y="98" type="line"/>
      <point x="726" y="98" type="line"/>
      <point x="726" y="265" type="line" smooth="yes"/>
      <point x="726" y="346"/>
      <point x="655" y="346" type="qcurve" smooth="yes"/>
      <point x="592" y="346"/>
      <point x="573" y="267" type="qcurve"/>
      <point x="518" y="267" type="line"/>
      <point x="496" y="354"/>
      <point x="438" y="354" type="qcurve" smooth="yes"/>
      <point x="369" y="354"/>
      <point x="369" y="248" type="qcurve" smooth="yes"/>
      <point x="369" y="121"/>
      <point x="459" y="49" type="qcurve"/>
      <point x="454" y="0" type="line"/>
      <point x="252" y="0" type="line" smooth="yes"/>
      <point x="161" y="0"/>
      <point x="132" y="67" type="qcurve" smooth="yes"/>
      <point x="125" y="89"/>
      <point x="125" y="111" type="qcurve" smooth="yes"/>
      <point x="125" y="146"/>
      <point x="142" y="182" type="qcurve" smooth="yes"/>
      <point x="186" y="274" type="line" smooth="yes"/>
      <point x="195" y="295"/>
      <point x="195" y="312" type="qcurve" smooth="yes"/>
      <point x="195" y="329"/>
      <point x="173" y="354"/>
      <point x="156" y="354" type="qcurve" smooth="yes"/>
      <point x="146" y="353" type="line"/>
      <point x="97" y="342"/>
      <point x="97" y="251" type="qcurve" smooth="yes"/>
      <point x="97" y="231" type="line"/>
      <point x="54" y="228" type="line"/>
      <point x="39" y="270"/>
      <point x="39" y="303" type="qcurve" smooth="yes"/>
      <point x="39" y="353"/>
      <point x="100" y="419"/>
      <point x="158" y="419" type="qcurve" smooth="yes"/>
      <point x="211" y="419"/>
      <point x="271" y="357"/>
      <point x="271" y="310" type="qcurve" smooth="yes"/>
      <point x="271" y="275"/>
      <point x="252" y="233" type="qcurve" smooth="yes"/>
      <point x="207" y="149"/>
      <point x="207" y="110" type="qcurve" smooth="yes"/>
      <point x="207" y="65"/>
      <point x="253" y="65" type="qcurve" smooth="yes"/>
      <point x="363" y="65" type="line"/>
      <point x="292" y="128"/>
      <point x="292" y="245" type="qcurve" smooth="yes"/>
      <point x="292" y="325"/>
      <point x="367" y="419"/>
      <point x="437" y="419" type="qcurve" smooth="yes"/>
      <point x="524" y="417"/>
      <point x="548" y="359" type="qcurve"/>
      <point x="586" y="413"/>
      <point x="661" y="413" type="qcurve" smooth="yes"/>
      <point x="805" y="413"/>
      <point x="805" y="261" type="qcurve" smooth="yes"/>
    </contour>
    <contour>
      <point x="1117" y="-376" type="line" smooth="yes"/>
      <point x="1118" y="-503"/>
      <point x="1139" y="-588" type="qcurve"/>
      <point x="1111" y="-606" type="line"/>
      <point x="1038" y="-547"/>
      <point x="1038" y="-379" type="qcurve" smooth="yes"/>
      <point x="1038" y="293" type="line" smooth="yes"/>
      <point x="1038" y="345"/>
      <point x="997" y="345" type="qcurve" smooth="yes"/>
      <point x="957" y="345"/>
      <point x="957" y="293" type="qcurve" smooth="yes"/>
      <point x="957" y="-318" type="line"/>
      <point x="882" y="-321" type="line"/>
      <point x="882" y="289" type="line" smooth="yes"/>
      <point x="882" y="418"/>
      <point x="1000" y="418" type="qcurve" smooth="yes"/>
      <point x="1117" y="418"/>
      <point x="1117" y="288" type="qcurve" smooth="yes"/>
    </contour>
  </outline>
</glyph>
<glyph name="uni1B6A" format="2">
  <advance width="586"/>
  <unicode hex="1B6A"/>
  <anchor x="304" y="630" name="Anchor-1"/>
  <anchor x="328" y="-787" name="Anchor-0"/>
  <outline>
    <contour>
      <point x="378" y="-589" type="line"/>
      <point x="243" y="-493"/>
      <point x="243" y="-355" type="qcurve" smooth="yes"/>
      <point x="243" y="-304"/>
      <point x="261" y="-248" type="qcurve" smooth="yes"/>
      <point x="329" y="-39"/>
      <point x="330" y="-20" type="qcurve" smooth="yes"/>
      <point x="330" y="86"/>
      <point x="183" y="159" type="qcurve"/>
      <point x="185" y="213" type="line"/>
      <point x="334" y="218"/>
      <point x="339" y="301" type="qcurve" smooth="yes"/>
      <point x="339" y="357"/>
      <point x="280" y="357" type="qcurve" smooth="yes"/>
      <point x="222" y="357"/>
      <point x="200" y="275" type="qcurve"/>
      <point x="160" y="285" type="line"/>
      <point x="173" y="418"/>
      <point x="293" y="422" type="qcurve" smooth="yes"/>
      <point x="351" y="420"/>
      <point x="417" y="359"/>
      <point x="417" y="309" type="qcurve" smooth="yes"/>
      <point x="417" y="205"/>
      <point x="288" y="176" type="qcurve"/>
      <point x="414" y="96"/>
      <point x="414" y="3" type="qcurve" smooth="yes"/>
      <point x="414" y="-55"/>
      <point x="344" y="-249" type="qcurve" smooth="yes"/>
      <point x="320" y="-316"/>
      <point x="320" y="-373" type="qcurve" smooth="yes"/>
      <point x="320" y="-482"/>
      <point x="407" y="-554" type="qcurve"/>
    </contour>
  </outline>
</glyph>
<glyph name="uni1B6B" format="2">
  <advance width="0"/>
  <unicode hex="1B6B"/>
  <anchor x="-215" y="620" name="_Anchor-1"/>
  <outline>
    <contour>
      <point x="-198" y="462" type="qcurve" smooth="yes"/>
      <point x="-217" y="462"/>
      <point x="-238" y="467" type="qcurve"/>
      <point x="-239" y="503" type="line"/>
      <point x="-190" y="509"/>
      <point x="-145" y="548"/>
      <point x="-145" y="574" type="qcurve" smooth="yes"/>
      <point x="-145" y="597"/>
      <point x="-175" y="628"/>
      <point x="-205" y="628" type="qcurve" smooth="yes"/>
      <point x="-247" y="627"/>
      <point x="-293" y="594" type="qcurve"/>
      <point x="-310" y="619" type="line"/>
      <point x="-267" y="687"/>
      <point x="-191" y="688" type="qcurve" smooth="yes"/>
      <point x="-187" y="688" type="line" smooth="yes"/>
      <point x="-125" y="688"/>
      <point x="-65" y="625"/>
      <point x="-65" y="582" type="qcurve" smooth="yes"/>
      <point x="-65" y="532"/>
      <point x="-139" y="462"/>
    </contour>
  </outline>
</glyph>
<glyph name="uni1B6C" format="2">
  <advance width="0"/>
  <unicode hex="1B6C"/>
  <anchor x="-230" y="-49" name="_Anchor-0"/>
  <outline>
    <contour>
      <point x="-198" y="-319" type="qcurve" smooth="yes"/>
      <point x="-217" y="-319"/>
      <point x="-238" y="-314" type="qcurve"/>
      <point x="-239" y="-278" type="line"/>
      <point x="-190" y="-272"/>
      <point x="-145" y="-233"/>
      <point x="-145" y="-208" type="qcurve" smooth="yes"/>
      <point x="-145" y="-184"/>
      <point x="-175" y="-153"/>
      <point x="-205" y="-153" type="qcurve" smooth="yes"/>
      <point x="-247" y="-154"/>
      <point x="-293" y="-187" type="qcurve"/>
      <point x="-310" y="-163" type="line"/>
      <point x="-267" y="-94"/>
      <point x="-191" y="-93" type="qcurve" smooth="yes"/>
      <point x="-187" y="-93" type="line" smooth="yes"/>
      <point x="-125" y="-93"/>
      <point x="-65" y="-156"/>
      <point x="-65" y="-199" type="qcurve" smooth="yes"/>
      <point x="-65" y="-250"/>
      <point x="-139" y="-319"/>
    </contour>
  </outline>
</glyph>
<glyph name="uni1B6D" format="2">
  <advance width="0"/>
  <unicode hex="1B6D"/>
  <anchor x="-308" y="620" name="_Anchor-1"/>
  <outline>
    <contour>
      <point x="-245" y="674" type="line"/>
      <point x="-102" y="674" type="line"/>
      <point x="-102" y="624" type="line"/>
      <point x="-245" y="624" type="line"/>
      <point x="-245" y="476" type="line"/>
      <point x="-305" y="476" type="line"/>
      <point x="-305" y="624" type="line"/>
      <point x="-453" y="624" type="line"/>
      <point x="-453" y="674" type="line"/>
      <point x="-305" y="674" type="line"/>
      <point x="-305" y="817" type="line"/>
      <point x="-245" y="817" type="line"/>
    </contour>
  </outline>
</glyph>
<glyph name="uni1B6E" format="2">
  <advance width="0"/>
  <unicode hex="1B6E"/>
  <anchor x="-308" y="708" name="_Anchor-1"/>
  <outline>
    <contour>
      <point x="-102" y="674" type="line"/>
      <point x="-102" y="624" type="line"/>
      <point x="-404" y="624" type="line"/>
      <point x="-404" y="674" type="line"/>
    </contour>
  </outline>
</glyph>
<glyph name="uni1B6F" format="2">
  <advance width="0"/>
  <unicode hex="1B6F"/>
  <anchor x="-323" y="620" name="_Anchor-1"/>
  <outline>
    <contour>
      <point x="-275" y="674" type="line"/>
      <point x="-369" y="487" type="line"/>
      <point x="-423" y="509" type="line"/>
      <point x="-292" y="770" type="line"/>
      <point x="-256" y="770" type="line"/>
      <point x="-125" y="509" type="line"/>
      <point x="-179" y="487" type="line"/>
      <point x="-273" y="674" type="line"/>
    </contour>
  </outline>
</glyph>
<glyph name="uni1B70" format="2">
  <advance width="0"/>
  <unicode hex="1B70"/>
  <anchor x="-323" y="620" name="_Anchor-1"/>
  <outline>
    <contour>
      <point x="-301" y="626" type="line"/>
      <point x="-403" y="487" type="line"/>
      <point x="-442" y="519" type="line"/>
      <point x="-326" y="673" type="line"/>
      <point x="-444" y="673" type="line"/>
      <point x="-444" y="718" type="line"/>
      <point x="-301" y="718" type="line"/>
      <point x="-301" y="817" type="line"/>
      <point x="-251" y="817" type="line"/>
      <point x="-251" y="718" type="line"/>
      <point x="-107" y="718" type="line"/>
      <point x="-107" y="673" type="line"/>
      <point x="-226" y="673" type="line"/>
      <point x="-109" y="519" type="line"/>
      <point x="-149" y="487" type="line"/>
      <point x="-251" y="626" type="line"/>
      <point x="-251" y="476" type="line"/>
      <point x="-301" y="476" type="line"/>
    </contour>
  </outline>
</glyph>
<glyph name="uni1B71" format="2">
  <advance width="0"/>
  <unicode hex="1B71"/>
  <anchor x="-323" y="620" name="_Anchor-1"/>
  <outline>
    <contour>
      <point x="-96" y="723" type="line"/>
      <point x="-96" y="673" type="line"/>
      <point x="-447" y="673" type="line"/>
      <point x="-447" y="723" type="line"/>
    </contour>
    <contour>
      <point x="-227" y="673" type="line"/>
      <point x="-110" y="519" type="line"/>
      <point x="-154" y="487" type="line"/>
      <point x="-271" y="644" type="line"/>
      <point x="-388" y="487" type="line"/>
      <point x="-433" y="519" type="line"/>
      <point x="-316" y="673" type="line"/>
    </contour>
  </outline>
</glyph>
<glyph name="uni1B72" format="2">
  <advance width="0"/>
  <unicode hex="1B72"/>
  <anchor x="-323" y="620" name="_Anchor-1"/>
  <outline>
    <contour>
      <point x="-272" y="583" type="line"/>
      <point x="-179" y="770" type="line"/>
      <point x="-125" y="748" type="line"/>
      <point x="-256" y="487" type="line"/>
      <point x="-292" y="487" type="line"/>
      <point x="-423" y="748" type="line"/>
      <point x="-369" y="770" type="line"/>
      <point x="-274" y="583" type="line"/>
    </contour>
  </outline>
</glyph>
<glyph name="uni1B73" format="2">
  <advance width="0"/>
  <unicode hex="1B73"/>
  <anchor x="-254" y="620" name="_Anchor-1"/>
  <outline>
    <contour>
      <point x="-250" y="488" type="qcurve" smooth="yes"/>
      <point x="-303" y="488"/>
      <point x="-368" y="559"/>
      <point x="-368" y="609" type="qcurve" smooth="yes"/>
      <point x="-368" y="659"/>
      <point x="-303" y="730"/>
      <point x="-250" y="730" type="qcurve" smooth="yes"/>
      <point x="-198" y="730"/>
      <point x="-133" y="659"/>
      <point x="-133" y="609" type="qcurve" smooth="yes"/>
      <point x="-133" y="559"/>
      <point x="-198" y="488"/>
    </contour>
    <contour>
      <point x="-193" y="581"/>
      <point x="-193" y="609" type="qcurve" smooth="yes"/>
      <point x="-193" y="638"/>
      <point x="-225" y="678"/>
      <point x="-250" y="678" type="qcurve" smooth="yes"/>
      <point x="-276" y="678"/>
      <point x="-308" y="638"/>
      <point x="-308" y="609" type="qcurve" smooth="yes"/>
      <point x="-308" y="581"/>
      <point x="-276" y="541"/>
      <point x="-250" y="541" type="qcurve" smooth="yes"/>
      <point x="-225" y="541"/>
    </contour>
  </outline>
</glyph>
<glyph name="uni1B74" format="2">
  <advance width="586"/>
  <unicode hex="1B74"/>
  <anchor x="258" y="610" name="Anchor-1"/>
  <anchor x="322" y="0" name="Anchor-0"/>
  <outline>
    <contour>
      <point x="294" y="294" type="line"/>
      <point x="163" y="0" type="line"/>
      <point x="83" y="0" type="line"/>
      <point x="279" y="417" type="line"/>
      <point x="314" y="417" type="line"/>
      <point x="510" y="0" type="line"/>
      <point x="425" y="0" type="line"/>
    </contour>
  </outline>
</glyph>
<glyph name="uni1B75" format="2">
  <advance width="585"/>
  <unicode hex="1B75"/>
  <anchor x="296" y="610" name="Anchor-1"/>
  <anchor x="300" y="0" name="Anchor-0"/>
  <outline>
    <contour>
      <point x="292" y="-2" type="qcurve" smooth="yes"/>
      <point x="202" y="-2"/>
      <point x="104" y="116"/>
      <point x="104" y="208" type="qcurve" smooth="yes"/>
      <point x="104" y="299"/>
      <point x="202" y="417"/>
      <point x="292" y="417" type="qcurve" smooth="yes"/>
      <point x="381" y="417"/>
      <point x="479" y="299"/>
      <point x="479" y="208" type="qcurve" smooth="yes"/>
      <point x="479" y="116"/>
      <point x="381" y="-2"/>
    </contour>
    <contour>
      <point x="401" y="133"/>
      <point x="401" y="209" type="qcurve" smooth="yes"/>
      <point x="401" y="285"/>
      <point x="339" y="353"/>
      <point x="292" y="353" type="qcurve" smooth="yes"/>
      <point x="246" y="353"/>
      <point x="185" y="285"/>
      <point x="185" y="209" type="qcurve" smooth="yes"/>
      <point x="185" y="133"/>
      <point x="246" y="65"/>
      <point x="292" y="65" type="qcurve" smooth="yes"/>
      <point x="339" y="65"/>
    </contour>
  </outline>
</glyph>
<glyph name="uni1B76" format="2">
  <advance width="586"/>
  <unicode hex="1B76"/>
  <anchor x="258" y="610" name="Anchor-1"/>
  <anchor x="322" y="0" name="Anchor-0"/>
  <outline>
    <contour>
      <point x="294" y="294" type="line"/>
      <point x="158" y="0" type="line"/>
      <point x="83" y="0" type="line"/>
      <point x="279" y="417" type="line"/>
      <point x="314" y="417" type="line"/>
      <point x="510" y="0" type="line"/>
      <point x="435" y="0" type="line"/>
    </contour>
    <contour>
      <point x="265" y="40" type="line"/>
      <point x="80" y="340" type="line"/>
      <point x="119" y="363" type="line"/>
      <point x="307" y="60" type="line"/>
    </contour>
  </outline>
</glyph>
<glyph name="uni1B77" format="2">
  <advance width="585"/>
  <unicode hex="1B77"/>
  <anchor x="285" y="610" name="Anchor-1"/>
  <anchor x="290" y="0" name="Anchor-0"/>
  <outline>
    <contour>
      <point x="270" y="138" type="line"/>
      <point x="84" y="438" type="line"/>
      <point x="124" y="461" type="line"/>
      <point x="312" y="157" type="line"/>
    </contour>
    <contour>
      <point x="292" y="-2" type="qcurve" smooth="yes"/>
      <point x="202" y="-2"/>
      <point x="104" y="116"/>
      <point x="104" y="208" type="qcurve" smooth="yes"/>
      <point x="104" y="299"/>
      <point x="202" y="417"/>
      <point x="292" y="417" type="qcurve" smooth="yes"/>
      <point x="381" y="417"/>
      <point x="479" y="299"/>
      <point x="479" y="208" type="qcurve" smooth="yes"/>
      <point x="479" y="116"/>
      <point x="381" y="-2"/>
    </contour>
    <contour>
      <point x="401" y="133"/>
      <point x="401" y="209" type="qcurve" smooth="yes"/>
      <point x="401" y="285"/>
      <point x="339" y="353"/>
      <point x="292" y="353" type="qcurve" smooth="yes"/>
      <point x="246" y="353"/>
      <point x="185" y="285"/>
      <point x="185" y="209" type="qcurve" smooth="yes"/>
      <point x="185" y="133"/>
      <point x="246" y="65"/>
      <point x="292" y="65" type="qcurve" smooth="yes"/>
      <point x="339" y="65"/>
    </contour>
  </outline>
</glyph>
<glyph name="uni1B78" format="2">
  <advance width="586"/>
  <unicode hex="1B78"/>
  <anchor x="296" y="610" name="Anchor-1"/>
  <anchor x="300" y="0" name="Anchor-0"/>
  <outline>
    <contour>
      <point x="112" y="262" type="line"/>
      <point x="476" y="262" type="line"/>
      <point x="476" y="198" type="line"/>
      <point x="112" y="198" type="line"/>
    </contour>
  </outline>
</glyph>
<glyph name="uni1B79" format="2">
  <advance width="586"/>
  <unicode hex="1B79"/>
  <anchor x="258" y="610" name="Anchor-1"/>
  <anchor x="322" y="0" name="Anchor-0"/>
  <outline>
    <contour>
      <point x="118" y="0" type="line"/>
      <point x="316" y="415" type="line"/>
      <point x="391" y="415" type="line"/>
      <point x="227" y="59" type="line"/>
      <point x="476" y="59" type="line"/>
      <point x="476" y="0" type="line"/>
    </contour>
  </outline>
</glyph>
<glyph name="uni1B7A" format="2">
  <advance width="586"/>
  <unicode hex="1B7A"/>
  <anchor x="258" y="610" name="Anchor-1"/>
  <anchor x="322" y="0" name="Anchor-0"/>
  <outline>
    <contour>
      <point x="112" y="262" type="line"/>
      <point x="476" y="262" type="line"/>
      <point x="476" y="198" type="line"/>
      <point x="112" y="198" type="line"/>
    </contour>
    <contour>
      <point x="373" y="69" type="line"/>
      <point x="187" y="370" type="line"/>
      <point x="226" y="393" type="line"/>
      <point x="414" y="89" type="line"/>
    </contour>
  </outline>
</glyph>
<glyph name="uni1B7B" format="2">
  <advance width="586"/>
  <unicode hex="1B7B"/>
  <anchor x="258" y="610" name="Anchor-1"/>
  <anchor x="322" y="0" name="Anchor-0"/>
  <outline>
    <contour>
      <point x="304" y="89" type="line"/>
      <point x="119" y="389" type="line"/>
      <point x="158" y="412" type="line"/>
      <point x="346" y="108" type="line"/>
    </contour>
    <contour>
      <point x="118" y="0" type="line"/>
      <point x="316" y="415" type="line"/>
      <point x="386" y="415" type="line"/>
      <point x="217" y="59" type="line"/>
      <point x="476" y="59" type="line"/>
      <point x="476" y="0" type="line"/>
    </contour>
  </outline>
</glyph>
<glyph name="uni1B7C" format="2">
  <advance width="586"/>
  <unicode hex="1B7C"/>
  <anchor x="188" y="610" name="Anchor-1"/>
  <anchor x="214" y="0" name="Anchor-0"/>
  <outline>
    <contour>
      <point x="298" y="150" type="qcurve" smooth="yes"/>
      <point x="276" y="150"/>
      <point x="244" y="182"/>
      <point x="244" y="204" type="qcurve" smooth="yes"/>
      <point x="244" y="226"/>
      <point x="276" y="258"/>
      <point x="298" y="258" type="qcurve" smooth="yes"/>
      <point x="321" y="258"/>
      <point x="352" y="226"/>
      <point x="352" y="204" type="qcurve" smooth="yes"/>
      <point x="352" y="182"/>
      <point x="321" y="150"/>
    </contour>
  </outline>
</glyph>
<glyph name="cereg1" format="2">
  <advance width="0"/>
  <outline>
    <contour>
      <point x="332" y="-547" type="qcurve"/>
      <point x="307" y="-518" type="line"/>
      <point x="401" y="-418"/>
      <point x="450" y="-354"/>
      <point x="450" y="-332" type="qcurve" smooth="yes"/>
      <point x="450" y="-305"/>
      <point x="349" y="-254"/>
      <point x="302" y="-203"/>
      <point x="302" y="-169" type="qcurve" smooth="yes"/>
      <point x="302" y="-123"/>
      <point x="372" y="-71"/>
      <point x="428" y="-71" type="qcurve" smooth="yes"/>
      <point x="454" y="-71"/>
      <point x="478" y="-78" type="qcurve"/>
      <point x="479" y="-111" type="line"/>
      <point x="460" y="-111" type="line" smooth="yes"/>
      <point x="375" y="-111"/>
      <point x="375" y="-154" type="qcurve" smooth="yes"/>
      <point x="375" y="-177"/>
      <point x="417" y="-207"/>
      <point x="507" y="-256"/>
      <point x="523" y="-292" type="qcurve" smooth="yes"/>
      <point x="528" y="-304"/>
      <point x="528" y="-318" type="qcurve" smooth="yes"/>
      <point x="528" y="-344"/>
      <point x="509" y="-376" type="qcurve" smooth="yes"/>
      <point x="480" y="-425"/>
    </contour>
  </outline>
</glyph>
<glyph name="cereg2" format="2">
  <advance width="0"/>
  <outline>
    <contour>
      <point x="185" y="478" type="qcurve"/>
      <point x="160" y="507" type="line"/>
      <point x="253" y="607"/>
      <point x="302" y="671"/>
      <point x="302" y="693" type="qcurve" smooth="yes"/>
      <point x="302" y="721"/>
      <point x="202" y="771"/>
      <point x="155" y="823"/>
      <point x="155" y="856" type="qcurve" smooth="yes"/>
      <point x="155" y="902"/>
      <point x="225" y="954"/>
      <point x="280" y="954" type="qcurve" smooth="yes"/>
      <point x="306" y="954"/>
      <point x="331" y="947" type="qcurve"/>
      <point x="331" y="914" type="line"/>
      <point x="313" y="915" type="line"/>
      <point x="228" y="915"/>
      <point x="228" y="871" type="qcurve" smooth="yes"/>
      <point x="228" y="848"/>
      <point x="270" y="819"/>
      <point x="360" y="770"/>
      <point x="375" y="734" type="qcurve" smooth="yes"/>
      <point x="381" y="722"/>
      <point x="381" y="708" type="qcurve" smooth="yes"/>
      <point x="381" y="681"/>
      <point x="362" y="649" type="qcurve" smooth="yes"/>
      <point x="332" y="600"/>
    </contour>
  </outline>
</glyph>
<glyph name="cereg3" format="2">
  <advance width="0"/>
  <outline>
    <contour>
      <point x="332" y="-547" type="qcurve"/>
      <point x="302" y="-530" type="line"/>
      <point x="354" y="-442"/>
      <point x="360" y="-374" type="qcurve" smooth="yes"/>
      <point x="361" y="-364" type="line"/>
      <point x="361" y="-303"/>
      <point x="291" y="-263" type="qcurve" smooth="yes"/>
      <point x="216" y="-221"/>
      <point x="212" y="-162" type="qcurve" smooth="yes"/>
      <point x="211" y="-154" type="line"/>
      <point x="211" y="-101"/>
      <point x="263" y="-66" type="qcurve"/>
      <point x="292" y="-83" type="line"/>
      <point x="274" y="-108"/>
      <point x="274" y="-131" type="qcurve" smooth="yes"/>
      <point x="274" y="-166"/>
      <point x="358" y="-208" type="qcurve" smooth="yes"/>
      <point x="432" y="-244"/>
      <point x="432" y="-328" type="qcurve"/>
      <point x="431" y="-339" type="line" smooth="yes"/>
      <point x="426" y="-432"/>
    </contour>
  </outline>
</glyph>
<glyph name="cereg4" format="2">
  <advance width="0"/>
  <outline>
    <contour>
      <point x="435" y="-276" type="qcurve" smooth="yes"/>
      <point x="363" y="-276"/>
      <point x="334" y="-210" type="qcurve" smooth="yes"/>
      <point x="320" y="-180"/>
      <point x="320" y="-145" type="qcurve" smooth="yes"/>
      <point x="320" y="-41"/>
      <point x="431" y="24" type="qcurve"/>
      <point x="449" y="16" type="line"/>
      <point x="381" y="-53"/>
      <point x="381" y="-131" type="qcurve" smooth="yes"/>
      <point x="381" y="-181"/>
      <point x="430" y="-233"/>
      <point x="468" y="-233" type="qcurve" smooth="yes"/>
      <point x="499" y="-233"/>
      <point x="539" y="-216" type="qcurve"/>
      <point x="547" y="-233" type="line"/>
      <point x="496" y="-276"/>
    </contour>
  </outline>
</glyph>
<glyph name="cereg5" format="2">
  <advance width="0"/>
  <outline>
    <contour>
      <point x="435" y="-813" type="qcurve" smooth="yes"/>
      <point x="362" y="-813"/>
      <point x="333" y="-746" type="qcurve" smooth="yes"/>
      <point x="320" y="-716"/>
      <point x="320" y="-682" type="qcurve" smooth="yes"/>
      <point x="320" y="-578"/>
      <point x="431" y="-513" type="qcurve"/>
      <point x="449" y="-521" type="line"/>
      <point x="381" y="-590"/>
      <point x="381" y="-668" type="qcurve" smooth="yes"/>
      <point x="381" y="-718"/>
      <point x="430" y="-770"/>
      <point x="468" y="-770" type="qcurve" smooth="yes"/>
      <point x="499" y="-770"/>
      <point x="539" y="-753" type="qcurve"/>
      <point x="547" y="-770" type="line"/>
      <point x="496" y="-813"/>
    </contour>
  </outline>
</glyph>
<glyph name="uni1B03.2" format="2">
  <advance width="0"/>
  <outline>
    <contour>
      <point x="-35" y="495" type="line"/>
      <point x="-154" y="527"/>
      <point x="-307" y="657"/>
      <point x="-307" y="753" type="qcurve" smooth="yes"/>
      <point x="-307" y="820"/>
      <point x="-273" y="882" type="qcurve"/>
      <point x="-237" y="870" type="line"/>
      <point x="-246" y="828"/>
      <point x="-246" y="792" type="qcurve" smooth="yes"/>
      <point x="-246" y="718"/>
      <point x="-212" y="668" type="qcurve" smooth="yes"/>
      <point x="-164" y="593"/>
      <point x="-20" y="528" type="qcurve"/>
    </contour>
  </outline>
</glyph>
<glyph name="uni1B0B.conj" format="2">
  <advance width="647"/>
  <anchor x="686" y="0" name="Anchor-1"/>
  <anchor x="292" y="490" name="Anchor-0"/>
  <outline>
    <contour>
      <point x="259" y="-7" type="qcurve"/>
      <point x="247" y="-6" type="line" smooth="yes"/>
      <point x="136" y="0"/>
      <point x="30" y="143" type="qcurve"/>
      <point x="57" y="171" type="line"/>
      <point x="125" y="109"/>
      <point x="215" y="68"/>
      <point x="257" y="68" type="qcurve" smooth="yes"/>
      <point x="295" y="68"/>
      <point x="342" y="101"/>
      <point x="342" y="142" type="qcurve" smooth="yes"/>
      <point x="342" y="279" type="line" smooth="yes"/>
      <point x="342" y="417"/>
      <point x="470" y="417" type="qcurve" smooth="yes"/>
      <point x="597" y="417"/>
      <point x="597" y="279" type="qcurve" smooth="yes"/>
      <point x="597" y="0" type="line"/>
      <point x="518" y="0" type="line"/>
      <point x="518" y="288" type="line" smooth="yes"/>
      <point x="518" y="344"/>
      <point x="470" y="344" type="qcurve" smooth="yes"/>
      <point x="422" y="344"/>
      <point x="422" y="288" type="qcurve" smooth="yes"/>
      <point x="422" y="149" type="line"/>
      <point x="417" y="-7"/>
    </contour>
    <contour>
      <point x="222" y="-547" type="qcurve"/>
      <point x="197" y="-518" type="line"/>
      <point x="291" y="-418"/>
      <point x="340" y="-354"/>
      <point x="340" y="-332" type="qcurve" smooth="yes"/>
      <point x="340" y="-305"/>
      <point x="239" y="-254"/>
      <point x="192" y="-203"/>
      <point x="192" y="-169" type="qcurve" smooth="yes"/>
      <point x="192" y="-123"/>
      <point x="262" y="-71"/>
      <point x="318" y="-71" type="qcurve" smooth="yes"/>
      <point x="344" y="-71"/>
      <point x="368" y="-78" type="qcurve"/>
      <point x="369" y="-111" type="line"/>
      <point x="350" y="-111" type="line" smooth="yes"/>
      <point x="265" y="-111"/>
      <point x="265" y="-154" type="qcurve" smooth="yes"/>
      <point x="265" y="-177"/>
      <point x="307" y="-207"/>
      <point x="397" y="-256"/>
      <point x="413" y="-292" type="qcurve" smooth="yes"/>
      <point x="418" y="-304"/>
      <point x="418" y="-318" type="qcurve" smooth="yes"/>
      <point x="418" y="-344"/>
      <point x="399" y="-376" type="qcurve" smooth="yes"/>
      <point x="370" y="-425"/>
    </contour>
  </outline>
</glyph>
<glyph name="uni1B0D.conj" format="2">
  <advance width="0"/>
  <outline>
    <contour>
      <point x="-50" y="-537" type="line"/>
      <point x="-129" y="-537" type="line"/>
      <point x="-129" y="-272" type="line" smooth="yes"/>
      <point x="-129" y="-191"/>
      <point x="-200" y="-191" type="qcurve" smooth="yes"/>
      <point x="-262" y="-191"/>
      <point x="-282" y="-270" type="qcurve"/>
      <point x="-337" y="-270" type="line"/>
      <point x="-359" y="-183"/>
      <point x="-417" y="-183" type="qcurve" smooth="yes"/>
      <point x="-486" y="-183"/>
      <point x="-486" y="-290" type="qcurve" smooth="yes"/>
      <point x="-486" y="-416"/>
      <point x="-395" y="-488" type="qcurve"/>
      <point x="-401" y="-537" type="line"/>
      <point x="-603" y="-537" type="line" smooth="yes"/>
      <point x="-694" y="-537"/>
      <point x="-723" y="-470" type="qcurve" smooth="yes"/>
      <point x="-730" y="-448"/>
      <point x="-730" y="-426" type="qcurve" smooth="yes"/>
      <point x="-730" y="-392"/>
      <point x="-713" y="-355" type="qcurve" smooth="yes"/>
      <point x="-669" y="-263" type="line" smooth="yes"/>
      <point x="-660" y="-242"/>
      <point x="-660" y="-226" type="qcurve" smooth="yes"/>
      <point x="-660" y="-208"/>
      <point x="-682" y="-184"/>
      <point x="-699" y="-184" type="qcurve" smooth="yes"/>
      <point x="-709" y="-185" type="line"/>
      <point x="-758" y="-195"/>
      <point x="-758" y="-286" type="qcurve" smooth="yes"/>
      <point x="-758" y="-306" type="line"/>
      <point x="-801" y="-309" type="line"/>
      <point x="-816" y="-268"/>
      <point x="-816" y="-234" type="qcurve" smooth="yes"/>
      <point x="-816" y="-185"/>
      <point x="-755" y="-118"/>
      <point x="-697" y="-118" type="qcurve" smooth="yes"/>
      <point x="-643" y="-118"/>
      <point x="-584" y="-180"/>
      <point x="-584" y="-227" type="qcurve" smooth="yes"/>
      <point x="-584" y="-262"/>
      <point x="-602" y="-304" type="qcurve"/>
      <point x="-648" y="-388"/>
      <point x="-648" y="-427" type="qcurve" smooth="yes"/>
      <point x="-648" y="-472"/>
      <point x="-602" y="-472" type="qcurve" smooth="yes"/>
      <point x="-492" y="-472" type="line"/>
      <point x="-562" y="-409"/>
      <point x="-562" y="-292" type="qcurve" smooth="yes"/>
      <point x="-562" y="-212"/>
      <point x="-488" y="-118"/>
      <point x="-418" y="-118" type="qcurve" smooth="yes"/>
      <point x="-330" y="-121"/>
      <point x="-307" y="-178" type="qcurve"/>
      <point x="-268" y="-124"/>
      <point x="-194" y="-124" type="qcurve" smooth="yes"/>
      <point x="-50" y="-124"/>
      <point x="-50" y="-276" type="qcurve" smooth="yes"/>
    </contour>
    <contour>
      <point x="-167" y="-771" type="qcurve"/>
      <point x="-138" y="-718"/>
      <point x="-132" y="-589" type="qcurve"/>
      <point x="-180" y="-549"/>
      <point x="-336" y="-507"/>
      <point x="-395" y="-553"/>
      <point x="-395" y="-586" type="qcurve" smooth="yes"/>
      <point x="-395" y="-626"/>
      <point x="-265" y="-680"/>
      <point x="-177" y="-745"/>
    </contour>
    <contour>
      <point x="-173" y="-895" type="qcurve"/>
      <point x="-211" y="-882" type="line"/>
      <point x="-195" y="-830"/>
      <point x="-240" y="-763"/>
      <point x="-466" y="-658"/>
      <point x="-466" y="-588" type="qcurve" smooth="yes"/>
      <point x="-466" y="-580" type="line" smooth="yes"/>
      <point x="-463" y="-532"/>
      <point x="-377" y="-448"/>
      <point x="-197" y="-466"/>
      <point x="-129" y="-530" type="qcurve"/>
      <point x="-50" y="-530" type="line"/>
      <point x="-50" y="-524" type="line" smooth="yes"/>
      <point x="-52" y="-711"/>
    </contour>
  </outline>
</glyph>
<glyph name="uni1B14.ra" format="2">
  <advance width="1295"/>
  <anchor x="1036" y="-453" name="Anchor-3"/>
  <outline>
    <contour>
      <point x="647" y="54" type="qcurve" smooth="yes"/>
      <point x="657" y="54"/>
      <point x="670" y="73"/>
      <point x="670" y="88" type="qcurve" smooth="yes"/>
      <point x="670" y="105"/>
      <point x="644" y="136"/>
      <point x="617" y="139" type="qcurve"/>
      <point x="617" y="100" type="line" smooth="yes"/>
      <point x="618" y="54"/>
    </contour>
    <contour>
      <point x="989" y="-3" type="qcurve" smooth="yes"/>
      <point x="915" y="-3"/>
      <point x="849" y="78"/>
      <point x="849" y="142" type="qcurve" smooth="yes"/>
      <point x="849" y="240" type="line"/>
      <point x="845" y="350"/>
      <point x="755" y="353" type="qcurve" smooth="yes"/>
      <point x="715" y="353" type="line" smooth="yes"/>
      <point x="620" y="350"/>
      <point x="617" y="259" type="qcurve" smooth="yes"/>
      <point x="617" y="194" type="line"/>
      <point x="654" y="193"/>
      <point x="730" y="146"/>
      <point x="736" y="98" type="qcurve" smooth="yes"/>
      <point x="737" y="83" type="line" smooth="yes"/>
      <point x="737" y="47"/>
      <point x="688" y="-1"/>
      <point x="646" y="-1" type="qcurve" smooth="yes"/>
      <point x="551" y="-1"/>
      <point x="542" y="104" type="qcurve"/>
      <point x="542" y="141" type="line"/>
      <point x="488" y="141" type="line"/>
      <point x="488" y="194" type="line"/>
      <point x="542" y="194" type="line"/>
      <point x="542" y="234" type="line" smooth="yes"/>
      <point x="543" y="415"/>
      <point x="713" y="417" type="qcurve" smooth="yes"/>
      <point x="757" y="417" type="line" smooth="yes"/>
      <point x="927" y="415"/>
      <point x="928" y="234" type="qcurve" smooth="yes"/>
      <point x="928" y="157" type="line" smooth="yes"/>
      <point x="928" y="65"/>
      <point x="999" y="65" type="qcurve" smooth="yes"/>
      <point x="1092" y="70"/>
      <point x="1262" y="188" type="qcurve"/>
      <point x="1289" y="145" type="line"/>
      <point x="1106" y="-2"/>
    </contour>
    <contour>
      <point x="384" y="54" type="qcurve" smooth="yes"/>
      <point x="412" y="54"/>
      <point x="413" y="100" type="qcurve" smooth="yes"/>
      <point x="413" y="139" type="line"/>
      <point x="384" y="136"/>
      <point x="360" y="104"/>
      <point x="360" y="87" type="qcurve" smooth="yes"/>
      <point x="360" y="54"/>
    </contour>
    <contour>
      <point x="347" y="175" type="qcurve"/>
      <point x="372" y="190"/>
      <point x="413" y="194" type="qcurve"/>
      <point x="413" y="294" type="line" smooth="yes"/>
      <point x="413" y="350"/>
      <point x="363" y="350" type="qcurve" smooth="yes"/>
      <point x="337" y="350"/>
      <point x="302" y="308"/>
      <point x="302" y="266" type="qcurve" smooth="yes"/>
      <point x="306" y="209"/>
    </contour>
    <contour>
      <point x="384" y="-1" type="qcurve" smooth="yes"/>
      <point x="345" y="-1"/>
      <point x="293" y="43"/>
      <point x="293" y="82" type="qcurve" smooth="yes"/>
      <point x="294" y="98" type="line" smooth="yes"/>
      <point x="298" y="130"/>
      <point x="316" y="151" type="qcurve"/>
      <point x="272" y="172"/>
      <point x="230" y="248"/>
      <point x="230" y="290" type="qcurve" smooth="yes"/>
      <point x="230" y="326"/>
      <point x="249" y="360" type="qcurve" smooth="yes"/>
      <point x="280" y="419"/>
      <point x="364" y="419" type="qcurve" smooth="yes"/>
      <point x="486" y="419"/>
      <point x="488" y="293" type="qcurve" smooth="yes"/>
      <point x="488" y="104" type="line"/>
      <point x="480" y="21"/>
      <point x="415" y="2" type="qcurve" smooth="yes"/>
      <point x="398" y="-1"/>
    </contour>
    <contour>
      <point x="570" y="-630" type="qcurve" smooth="yes"/>
      <point x="317" y="-630"/>
      <point x="30" y="-343"/>
      <point x="30" y="-79" type="qcurve" smooth="yes"/>
      <point x="30" y="28"/>
      <point x="103" y="351"/>
      <point x="179" y="502" type="qcurve"/>
      <point x="224" y="478" type="line"/>
      <point x="178" y="343"/>
      <point x="113" y="91"/>
      <point x="107" y="-69" type="qcurve"/>
      <point x="107" y="-290"/>
      <point x="347" y="-535"/>
      <point x="586" y="-535" type="qcurve" smooth="yes"/>
      <point x="822" y="-535"/>
      <point x="941" y="-408" type="qcurve"/>
      <point x="1016" y="-321"/>
      <point x="1016" y="-177" type="qcurve" smooth="yes"/>
      <point x="1016" y="-116"/>
      <point x="1001" y="-51" type="qcurve"/>
      <point x="1058" y="-33" type="line"/>
      <point x="1083" y="-115"/>
      <point x="1083" y="-199" type="qcurve" smooth="yes"/>
      <point x="1083" y="-359"/>
      <point x="1006" y="-456" type="qcurve" smooth="yes"/>
      <point x="867" y="-630"/>
    </contour>
  </outline>
</glyph>
<glyph name="uni1B15.conj" format="2">
  <advance width="0"/>
  <anchor x="-59" y="-489" name="Anchor-6"/>
  <anchor x="-59" y="-489" name="Anchor-5"/>
  <outline>
    <contour>
      <point x="-50" y="-277" type="qcurve" smooth="yes"/>
      <point x="-50" y="-537" type="line"/>
      <point x="-130" y="-537" type="line"/>
      <point x="-130" y="-285" type="line" smooth="yes"/>
      <point x="-131" y="-194"/>
      <point x="-234" y="-192" type="qcurve" smooth="yes"/>
      <point x="-289" y="-192"/>
      <point x="-385" y="-250"/>
      <point x="-398" y="-266" type="qcurve"/>
      <point x="-408" y="-336"/>
      <point x="-408" y="-389" type="qcurve" smooth="yes"/>
      <point x="-408" y="-472"/>
      <point x="-339" y="-473" type="qcurve" smooth="yes"/>
      <point x="-276" y="-473" type="line"/>
      <point x="-276" y="-537" type="line"/>
      <point x="-349" y="-537" type="line" smooth="yes"/>
      <point x="-491" y="-537"/>
      <point x="-491" y="-409" type="qcurve" smooth="yes"/>
      <point x="-489" y="-370"/>
      <point x="-479" y="-261"/>
      <point x="-479" y="-240" type="qcurve" smooth="yes"/>
      <point x="-479" y="-184"/>
      <point x="-508" y="-184" type="qcurve" smooth="yes"/>
      <point x="-519" y="-185" type="line"/>
      <point x="-553" y="-195"/>
      <point x="-553" y="-286" type="qcurve"/>
      <point x="-552" y="-306" type="line"/>
      <point x="-595" y="-309" type="line"/>
      <point x="-610" y="-268"/>
      <point x="-610" y="-234" type="qcurve" smooth="yes"/>
      <point x="-610" y="-185"/>
      <point x="-550" y="-118"/>
      <point x="-506" y="-118" type="qcurve" smooth="yes"/>
      <point x="-427" y="-118"/>
      <point x="-406" y="-188" type="qcurve"/>
      <point x="-334" y="-122"/>
      <point x="-232" y="-121" type="qcurve" smooth="yes"/>
      <point x="-149" y="-121"/>
      <point x="-50" y="-195"/>
    </contour>
  </outline>
</glyph>
<glyph name="uni1B16.conj.1" format="2">
  <advance width="0"/>
  <anchor x="-59" y="-489" name="Anchor-6"/>
  <outline>
    <contour>
      <point x="-198" y="-542" type="line"/>
      <point x="-267" y="-542"/>
      <point x="-299" y="-485" type="qcurve"/>
      <point x="-337" y="-538"/>
      <point x="-403" y="-538" type="qcurve" smooth="yes"/>
      <point x="-530" y="-538"/>
      <point x="-532" y="-396" type="qcurve" smooth="yes"/>
      <point x="-532" y="-235" type="line" smooth="yes"/>
      <point x="-533" y="-187"/>
      <point x="-572" y="-184" type="qcurve" smooth="yes"/>
      <point x="-581" y="-184" type="line" smooth="yes"/>
      <point x="-606" y="-184"/>
      <point x="-637" y="-216"/>
      <point x="-637" y="-236" type="qcurve" smooth="yes"/>
      <point x="-637" y="-537" type="line"/>
      <point x="-717" y="-537" type="line"/>
      <point x="-717" y="-228" type="line" smooth="yes"/>
      <point x="-718" y="-207"/>
      <point x="-743" y="-182"/>
      <point x="-767" y="-182" type="qcurve" smooth="yes"/>
      <point x="-795" y="-182"/>
      <point x="-828" y="-226"/>
      <point x="-828" y="-271" type="qcurve" smooth="yes"/>
      <point x="-824" y="-328"/>
      <point x="-792" y="-358" type="qcurve"/>
      <point x="-813" y="-385" type="line"/>
      <point x="-857" y="-364"/>
      <point x="-900" y="-287"/>
      <point x="-900" y="-245" type="qcurve" smooth="yes"/>
      <point x="-900" y="-209"/>
      <point x="-884" y="-176" type="qcurve" smooth="yes"/>
      <point x="-854" y="-118"/>
      <point x="-771" y="-118" type="qcurve" smooth="yes"/>
      <point x="-701" y="-118"/>
      <point x="-667" y="-154" type="qcurve"/>
      <point x="-627" y="-121"/>
      <point x="-574" y="-121" type="qcurve" smooth="yes"/>
      <point x="-454" y="-121"/>
      <point x="-452" y="-249" type="qcurve" smooth="yes"/>
      <point x="-452" y="-401" type="line" smooth="yes"/>
      <point x="-452" y="-472"/>
      <point x="-400" y="-472" type="qcurve" smooth="yes"/>
      <point x="-398" y="-472" type="line" smooth="yes"/>
      <point x="-343" y="-470"/>
      <point x="-324" y="-393" type="qcurve"/>
      <point x="-269" y="-393" type="line"/>
      <point x="-248" y="-473"/>
      <point x="-196" y="-473" type="qcurve"/>
      <point x="-189" y="-472" type="line" smooth="yes"/>
      <point x="-132" y="-467"/>
      <point x="-128" y="-354" type="qcurve"/>
      <point x="-129" y="-231"/>
      <point x="-238" y="-138" type="qcurve"/>
      <point x="-222" y="-111" type="line"/>
      <point x="-56" y="-177"/>
      <point x="-56" y="-365" type="qcurve"/>
      <point x="-57" y="-396" type="line"/>
      <point x="-66" y="-465"/>
      <point x="-134" y="-539"/>
      <point x="-186" y="-541" type="qcurve" smooth="yes"/>
    </contour>
  </outline>
</glyph>
<glyph name="uni1B16.ra" format="2">
  <advance width="1256"/>
  <anchor x="973" y="-453" name="Anchor-3"/>
  <outline>
    <contour>
      <point x="816" y="52" type="qcurve"/>
      <point x="785" y="3"/>
      <point x="716" y="-2" type="qcurve"/>
      <point x="601" y="-2"/>
      <point x="598" y="121" type="qcurve" smooth="yes"/>
      <point x="598" y="302" type="line" smooth="yes"/>
      <point x="597" y="350"/>
      <point x="558" y="353" type="qcurve" smooth="yes"/>
      <point x="549" y="354" type="line" smooth="yes"/>
      <point x="524" y="354"/>
      <point x="493" y="321"/>
      <point x="493" y="301" type="qcurve" smooth="yes"/>
      <point x="493" y="0" type="line"/>
      <point x="413" y="0" type="line"/>
      <point x="413" y="294" type="line" smooth="yes"/>
      <point x="410" y="350"/>
      <point x="362" y="350" type="qcurve" smooth="yes"/>
      <point x="302" y="350"/>
      <point x="302" y="267" type="qcurve"/>
      <point x="306" y="209"/>
      <point x="338" y="179" type="qcurve"/>
      <point x="316" y="152" type="line"/>
      <point x="272" y="173"/>
      <point x="230" y="249"/>
      <point x="230" y="290" type="qcurve" smooth="yes"/>
      <point x="230" y="327"/>
      <point x="249" y="361" type="qcurve" smooth="yes"/>
      <point x="280" y="419"/>
      <point x="364" y="419" type="qcurve" smooth="yes"/>
      <point x="431" y="419"/>
      <point x="463" y="384" type="qcurve"/>
      <point x="503" y="416"/>
      <point x="556" y="416" type="qcurve" smooth="yes"/>
      <point x="676" y="416"/>
      <point x="678" y="303" type="qcurve" smooth="yes"/>
      <point x="678" y="116" type="line" smooth="yes"/>
      <point x="678" y="65"/>
      <point x="720" y="65" type="qcurve" smooth="yes"/>
      <point x="770" y="65"/>
      <point x="792" y="145" type="qcurve"/>
      <point x="846" y="145" type="line"/>
      <point x="870" y="65"/>
      <point x="923" y="65" type="qcurve" smooth="yes"/>
      <point x="995" y="69"/>
      <point x="997" y="161" type="qcurve" smooth="yes"/>
      <point x="995" y="334"/>
      <point x="876" y="373" type="qcurve"/>
      <point x="882" y="417" type="line"/>
      <point x="1059" y="417" type="line" smooth="yes"/>
      <point x="1204" y="415"/>
      <point x="1206" y="269" type="qcurve" smooth="yes"/>
      <point x="1206" y="0" type="line"/>
      <point x="1127" y="0" type="line"/>
      <point x="1127" y="274" type="line" smooth="yes"/>
      <point x="1124" y="350"/>
      <point x="1057" y="353" type="qcurve" smooth="yes"/>
      <point x="1007" y="353" type="line"/>
      <point x="1064" y="292"/>
      <point x="1069" y="189" type="qcurve"/>
      <point x="1069" y="167" type="line" smooth="yes"/>
      <point x="1069" y="83"/>
      <point x="998" y="3"/>
      <point x="931" y="0" type="qcurve" smooth="yes"/>
      <point x="847" y="0"/>
    </contour>
    <contour>
      <point x="620" y="-670" type="qcurve" smooth="yes"/>
      <point x="347" y="-670"/>
      <point x="30" y="-343"/>
      <point x="30" y="-79" type="qcurve" smooth="yes"/>
      <point x="30" y="28"/>
      <point x="103" y="351"/>
      <point x="179" y="502" type="qcurve"/>
      <point x="224" y="478" type="line"/>
      <point x="178" y="343"/>
      <point x="113" y="91"/>
      <point x="107" y="-69" type="qcurve"/>
      <point x="107" y="-290"/>
      <point x="377" y="-575"/>
      <point x="636" y="-575" type="qcurve" smooth="yes"/>
      <point x="872" y="-575"/>
      <point x="1136" y="-351"/>
      <point x="1136" y="-177" type="qcurve" smooth="yes"/>
      <point x="1136" y="-116"/>
      <point x="1121" y="-51" type="qcurve"/>
      <point x="1178" y="-33" type="line"/>
      <point x="1203" y="-115"/>
      <point x="1203" y="-199" type="qcurve" smooth="yes"/>
      <point x="1203" y="-389"/>
      <point x="917" y="-670"/>
    </contour>
  </outline>
</glyph>
